M48
; DRILL file {KiCad 5.1.5-52549c5~86~ubuntu19.10.1} date dim. 12 juil. 2020 20:58:43 CEST
; FORMAT={-:-/ absolute / inch / decimal}
; #@! TF.CreationDate,2020-07-12T20:58:43+02:00
; #@! TF.GenerationSoftware,Kicad,Pcbnew,5.1.5-52549c5~86~ubuntu19.10.1
; #@! TF.FileFunction,Plated,1,2,PTH
FMAT,2
INCH
T1C0.0157
T2C0.0276
T3C0.0394
T4C0.0400
T5C0.0543
T6C0.0693
%
G90
G05
T1
X4.04Y-3.79
X4.08Y-2.34
X4.08Y-3.36
X4.26Y-3.49
X4.27Y-2.88
X4.27Y-3.245
X4.27Y-3.79
X4.28Y-3.13
X4.32Y-2.71
X4.47Y-3.245
X4.47Y-3.38
X4.4737Y-2.34
X4.48Y-2.75
X4.5Y-3.79
X4.56Y-2.88
X4.62Y-3.16
X4.68Y-2.34
X4.68Y-2.54
X4.7Y-2.79
X4.73Y-3.79
X4.76Y-3.1
X4.77Y-3.62
X4.8674Y-2.34
X4.965Y-3.0975
X4.995Y-3.19
X5.03Y-2.34
X5.03Y-2.53
X5.0304Y-3.0831
X5.0675Y-3.2
X5.09Y-2.855
X5.0925Y-3.135
X5.16Y-3.48
X5.16Y-3.62
X5.165Y-3.2
X5.17Y-2.77
X5.1825Y-3.255
X5.1825Y-3.3675
X5.27Y-3.0
X5.31Y-2.45
X5.36Y-3.265
X5.3625Y-3.3125
X5.375Y-2.725
X5.39Y-2.93
X5.4426Y-2.655
X5.465Y-2.525
X5.5Y-2.81
X5.54Y-2.46
X5.55Y-3.48
X5.55Y-3.61
X5.56Y-3.15
X5.59Y-2.82
X5.61Y-2.56
X5.61Y-3.29
X5.7Y-2.47
X5.73Y-2.975
X5.735Y-2.895
X5.775Y-2.8
X5.775Y-2.975
X5.775Y-3.51
X5.78Y-3.15
X5.79Y-2.86
X5.89Y-3.48
X5.89Y-3.61
X5.95Y-2.69
X5.95Y-2.8
X5.955Y-2.99
X5.955Y-2.86
X6.005Y-2.86
X6.005Y-3.0
X6.065Y-3.01
X6.065Y-2.86
X6.07Y-3.61
X6.115Y-2.86
X6.115Y-3.01
X6.175Y-3.01
X6.175Y-2.86
X6.24Y-3.0
X6.24Y-3.08
X6.25Y-2.64
X6.25Y-2.83
X6.26Y-3.4
X6.28Y-3.14
X6.28Y-3.29
X6.37Y-2.64
X6.37Y-2.83
X6.37Y-3.0
X6.41Y-3.62
X6.4698Y-3.29
X6.48Y-2.4
X6.48Y-2.51
X6.48Y-2.64
X6.48Y-2.83
X6.48Y-3.0
X6.49Y-3.4
X6.54Y-3.58
X6.56Y-3.66
X6.56Y-3.77
X6.57Y-3.62
X6.58Y-3.09
X6.66Y-2.4
X6.66Y-2.51
X6.66Y-2.64
X6.72Y-3.77
X6.73Y-3.58
X6.73Y-3.66
X6.83Y-2.4
X6.83Y-2.51
X6.83Y-2.64
X6.88Y-3.66
X6.88Y-3.77
X6.95Y-3.26
X6.95Y-3.59
X6.96Y-3.42
X6.98Y-3.21
X6.99Y-2.4
X6.99Y-2.51
X6.99Y-2.64
T2
X6.8524Y-2.8218
X6.8524Y-3.0128
T3
X6.015Y-2.345
X6.015Y-2.445
X6.115Y-2.345
X6.115Y-2.445
X6.215Y-2.345
X6.215Y-2.445
X6.315Y-2.345
X6.315Y-2.445
X5.87Y-2.345
X5.87Y-2.445
X5.315Y-2.345
X5.415Y-2.345
X5.515Y-2.345
X5.615Y-2.345
X5.715Y-2.345
T4
X4.07Y-2.53
X4.07Y-2.63
X4.07Y-2.73
X4.07Y-2.83
X4.17Y-2.53
X4.17Y-2.63
X4.17Y-2.73
X4.17Y-2.83
T6
X6.9579Y-2.7746
X6.9579Y-3.06
T5
G00X4.0391Y-4.1501
M15
G01X4.0391Y-4.1099
M16
G05
G00X6.9091Y-4.1501
M15
G01X6.9091Y-4.1099
M16
G05
T0
M30
