G04 #@! TF.GenerationSoftware,KiCad,Pcbnew,5.1.5-52549c5~86~ubuntu19.10.1*
G04 #@! TF.CreationDate,2020-07-12T21:09:55+02:00*
G04 #@! TF.ProjectId,Remote_TempHumid,52656d6f-7465-45f5-9465-6d7048756d69,rev?*
G04 #@! TF.SameCoordinates,Original*
G04 #@! TF.FileFunction,Copper,L2,Bot*
G04 #@! TF.FilePolarity,Positive*
%FSLAX46Y46*%
G04 Gerber Fmt 4.6, Leading zero omitted, Abs format (unit mm)*
G04 Created by KiCad (PCBNEW 5.1.5-52549c5~86~ubuntu19.10.1) date 2020-07-12 21:09:55*
%MOMM*%
%LPD*%
G04 APERTURE LIST*
%ADD10O,1.700000X1.700000*%
%ADD11R,1.700000X1.700000*%
%ADD12O,1.727200X1.727200*%
%ADD13R,1.727200X1.727200*%
%ADD14C,2.640000*%
%ADD15C,1.200000*%
%ADD16O,2.070000X4.140000*%
%ADD17C,0.800000*%
%ADD18C,0.508000*%
%ADD19C,0.254000*%
%ADD20C,0.203200*%
%ADD21C,0.200000*%
G04 APERTURE END LIST*
D10*
X152781000Y-62103000D03*
X152781000Y-59563000D03*
X155321000Y-62103000D03*
X155321000Y-59563000D03*
X157861000Y-62103000D03*
X157861000Y-59563000D03*
X160401000Y-62103000D03*
D11*
X160401000Y-59563000D03*
D12*
X103378000Y-64262000D03*
X105918000Y-64262000D03*
X103378000Y-66802000D03*
X105918000Y-66802000D03*
X103378000Y-69342000D03*
X105918000Y-69342000D03*
X103378000Y-71882000D03*
D13*
X105918000Y-71882000D03*
D10*
X149098000Y-62103000D03*
D11*
X149098000Y-59563000D03*
D14*
X176730000Y-70474000D03*
X176730000Y-77724000D03*
D15*
X174050000Y-71674000D03*
X174050000Y-76524000D03*
D10*
X145161000Y-59563000D03*
X142621000Y-59563000D03*
X140081000Y-59563000D03*
X137541000Y-59563000D03*
D11*
X135001000Y-59563000D03*
D16*
X102592000Y-104902000D03*
X175492000Y-104902000D03*
D17*
X176530000Y-82804000D03*
X167132000Y-78486000D03*
X159512000Y-79756000D03*
X159512000Y-83566054D03*
X140716000Y-62484000D03*
X164332980Y-83566000D03*
X164846000Y-86360000D03*
X133858000Y-76200000D03*
X113538000Y-85852000D03*
X117348000Y-80264000D03*
X108712000Y-79502000D03*
X103632000Y-85344000D03*
X120904000Y-78740000D03*
X119380000Y-70866000D03*
X115824000Y-73152000D03*
X108458000Y-73152000D03*
X103632000Y-59436000D03*
X113632000Y-59436000D03*
X123632000Y-59436000D03*
X118872000Y-64516000D03*
X136906000Y-74422000D03*
X141986000Y-71628000D03*
X142494000Y-65024000D03*
X144780000Y-62738000D03*
X151130000Y-68326000D03*
X158750000Y-71882000D03*
X161798000Y-71882000D03*
X164592000Y-71882000D03*
X164592000Y-67056000D03*
X161798000Y-67056000D03*
X158750000Y-67056000D03*
X164592000Y-63754000D03*
X164592000Y-60960000D03*
X169164000Y-60960000D03*
X177546000Y-60960000D03*
X169164000Y-63754000D03*
X169164000Y-67056000D03*
X177546000Y-63754000D03*
X177546000Y-67056000D03*
X173482000Y-67056000D03*
X173482000Y-63754000D03*
X173482000Y-60960000D03*
X158496000Y-76200000D03*
X161798000Y-76200000D03*
X164592000Y-76200000D03*
X158496000Y-78232000D03*
X159004000Y-86360000D03*
X170942000Y-90932000D03*
X166116000Y-90932000D03*
X166624000Y-92964000D03*
X170942000Y-92964000D03*
X174752000Y-92964000D03*
X176530000Y-91186000D03*
X176784000Y-86868000D03*
X177292000Y-81534000D03*
X166624000Y-95758000D03*
X170688000Y-95758000D03*
X174752000Y-95758000D03*
X149606000Y-88392000D03*
X149606000Y-91694000D03*
X154178000Y-91694000D03*
X121158000Y-91948000D03*
X140970000Y-91694000D03*
X131064000Y-91948000D03*
X131064000Y-88392000D03*
X140970000Y-88392000D03*
X131318000Y-70358000D03*
X127762000Y-64262000D03*
X118872000Y-59436000D03*
X127762000Y-59436000D03*
X134874000Y-62230000D03*
X151130000Y-71120000D03*
X102616000Y-96266000D03*
X108458000Y-96266000D03*
X114300000Y-96266000D03*
X120142000Y-96266000D03*
X108204000Y-88646000D03*
X113792000Y-69850000D03*
X146812000Y-80010000D03*
X141224000Y-80010000D03*
X126873000Y-81026000D03*
X142494000Y-83566000D03*
X129286000Y-72517000D03*
X127771697Y-78311535D03*
X166878000Y-91948000D03*
X162814000Y-91948000D03*
X146685000Y-89154000D03*
X146685000Y-71120000D03*
X138811000Y-64135000D03*
X139700000Y-71374000D03*
X145669000Y-73533000D03*
X145542000Y-75565000D03*
X146685000Y-75565000D03*
X147066000Y-72644000D03*
X155321000Y-72644000D03*
X155321000Y-76454000D03*
X154051004Y-72644000D03*
X154051000Y-76454000D03*
X152527000Y-72644000D03*
X152527002Y-76200000D03*
X151257000Y-72644000D03*
X151256990Y-75946000D03*
X156845006Y-72644000D03*
X156845000Y-76454000D03*
X126111000Y-78676500D03*
X128714500Y-81280000D03*
X138242610Y-67436964D03*
X136525006Y-69215000D03*
X136144000Y-82931000D03*
X129349496Y-79629000D03*
X131191000Y-81280000D03*
X136207500Y-84137500D03*
X113538000Y-82423000D03*
X108458000Y-82423000D03*
X109728000Y-68834000D03*
X131635500Y-82677000D03*
X131635500Y-85534500D03*
D18*
X176530000Y-82804000D02*
X173482000Y-79756000D01*
X173482000Y-79756000D02*
X172212000Y-78486000D01*
X172212000Y-78486000D02*
X167132000Y-78486000D01*
X159512000Y-79756000D02*
X159512000Y-83566054D01*
X142621000Y-59563000D02*
X142621000Y-60579000D01*
X142621000Y-60579000D02*
X140716000Y-62484000D01*
X154471001Y-58713001D02*
X155321000Y-59563000D01*
X133858000Y-85471000D02*
X139440185Y-85471000D01*
X130302000Y-87376000D02*
X131953000Y-87376000D01*
X131953000Y-87376000D02*
X133858000Y-85471000D01*
X126873000Y-83947000D02*
X130302000Y-87376000D01*
X126873000Y-81026000D02*
X126873000Y-83947000D01*
X153797000Y-58039000D02*
X154471001Y-58713001D01*
X142621000Y-82290185D02*
X142621000Y-73152000D01*
X151765000Y-58039000D02*
X153797000Y-58039000D01*
X142621000Y-73152000D02*
X150876000Y-64897000D01*
X150876000Y-64897000D02*
X150876000Y-58928000D01*
X150876000Y-58928000D02*
X151765000Y-58039000D01*
X142046592Y-83118592D02*
X142494000Y-83566000D01*
X139440185Y-85471000D02*
X142046592Y-82864592D01*
X142046592Y-82864592D02*
X142046592Y-83118592D01*
X142046592Y-82864592D02*
X142621000Y-82290185D01*
D19*
X128171696Y-77911536D02*
X127771697Y-78311535D01*
X129286000Y-72517000D02*
X129286000Y-76797232D01*
X129286000Y-76797232D02*
X128171696Y-77911536D01*
D18*
X163576000Y-91948000D02*
X166878000Y-91948000D01*
X162814000Y-91948000D02*
X163576000Y-91948000D01*
X144145000Y-86614000D02*
X146685000Y-89154000D01*
X145669000Y-72136000D02*
X144145000Y-73660000D01*
X144145000Y-73660000D02*
X144145000Y-86614000D01*
X145669000Y-72136000D02*
X146304000Y-71501000D01*
X146304000Y-71501000D02*
X146685000Y-71120000D01*
D19*
X138811000Y-64135000D02*
X139700000Y-65024000D01*
X139700000Y-65024000D02*
X139700000Y-71374000D01*
X145669000Y-75438000D02*
X145542000Y-75565000D01*
X145669000Y-73533000D02*
X145669000Y-75438000D01*
X146685000Y-75565000D02*
X146685000Y-73025000D01*
X146685000Y-73025000D02*
X147066000Y-72644000D01*
X155321000Y-72644000D02*
X155321000Y-75819000D01*
X155321000Y-75819000D02*
X155321000Y-76454000D01*
X154051004Y-72644000D02*
X154051004Y-76453996D01*
X154051004Y-76453996D02*
X154051000Y-76454000D01*
X152527000Y-72644000D02*
X152527000Y-76199998D01*
X152527000Y-76199998D02*
X152527002Y-76200000D01*
X151257000Y-72644000D02*
X151257000Y-75945990D01*
X151257000Y-75945990D02*
X151256990Y-75946000D01*
X156845006Y-76453994D02*
X156845000Y-76454000D01*
X156845006Y-72644000D02*
X156845006Y-76453994D01*
X126111000Y-78676500D02*
X128714500Y-81280000D01*
D20*
X136525006Y-69154568D02*
X136525006Y-69215000D01*
X138242610Y-67436964D02*
X136525006Y-69154568D01*
D19*
X132842000Y-79629000D02*
X129349496Y-79629000D01*
X136144000Y-82931000D02*
X132842000Y-79629000D01*
X134614185Y-84137500D02*
X136207500Y-84137500D01*
X131191000Y-81280000D02*
X131756685Y-81280000D01*
X131756685Y-81280000D02*
X134614185Y-84137500D01*
X113538000Y-82423000D02*
X108458000Y-82423000D01*
X104648000Y-68072000D02*
X104241599Y-67665599D01*
X104241599Y-67665599D02*
X103378000Y-66802000D01*
X109728000Y-68834000D02*
X108966000Y-68072000D01*
X108966000Y-68072000D02*
X104648000Y-68072000D01*
D20*
X131635500Y-82677000D02*
X131635500Y-85534500D01*
D21*
G36*
X150503505Y-58517022D02*
G01*
X150482369Y-58534368D01*
X150465022Y-58555505D01*
X150413138Y-58618725D01*
X150361696Y-58714968D01*
X150330016Y-58819397D01*
X150319321Y-58928000D01*
X150322001Y-58955214D01*
X150322000Y-64667526D01*
X142248506Y-72741021D01*
X142227369Y-72758368D01*
X142210022Y-72779505D01*
X142158138Y-72842725D01*
X142106696Y-72938968D01*
X142075016Y-73043397D01*
X142064321Y-73152000D01*
X142067001Y-73179214D01*
X142067000Y-82060711D01*
X141674102Y-82453609D01*
X141652960Y-82470960D01*
X141635613Y-82492097D01*
X139210711Y-84917000D01*
X133885204Y-84917000D01*
X133858000Y-84914321D01*
X133830796Y-84917000D01*
X133830788Y-84917000D01*
X133758765Y-84924093D01*
X133749396Y-84925016D01*
X133644967Y-84956695D01*
X133548725Y-85008137D01*
X133485504Y-85060021D01*
X133485499Y-85060026D01*
X133464368Y-85077368D01*
X133447026Y-85098499D01*
X131723527Y-86822000D01*
X130531474Y-86822000D01*
X127427000Y-83717527D01*
X127427000Y-81456848D01*
X127493332Y-81357574D01*
X127546099Y-81230182D01*
X127573000Y-81094944D01*
X127573000Y-80957056D01*
X127546099Y-80821818D01*
X127493332Y-80694426D01*
X127429449Y-80598818D01*
X128019011Y-81188380D01*
X128014500Y-81211056D01*
X128014500Y-81348944D01*
X128041401Y-81484182D01*
X128094168Y-81611574D01*
X128170774Y-81726224D01*
X128268276Y-81823726D01*
X128382926Y-81900332D01*
X128510318Y-81953099D01*
X128645556Y-81980000D01*
X128783444Y-81980000D01*
X128918682Y-81953099D01*
X129046074Y-81900332D01*
X129160724Y-81823726D01*
X129258226Y-81726224D01*
X129334832Y-81611574D01*
X129387599Y-81484182D01*
X129414500Y-81348944D01*
X129414500Y-81211056D01*
X129387599Y-81075818D01*
X129334832Y-80948426D01*
X129258226Y-80833776D01*
X129160724Y-80736274D01*
X129046074Y-80659668D01*
X128918682Y-80606901D01*
X128783444Y-80580000D01*
X128645556Y-80580000D01*
X128622880Y-80584511D01*
X127598425Y-79560056D01*
X128649496Y-79560056D01*
X128649496Y-79697944D01*
X128676397Y-79833182D01*
X128729164Y-79960574D01*
X128805770Y-80075224D01*
X128903272Y-80172726D01*
X129017922Y-80249332D01*
X129145314Y-80302099D01*
X129280552Y-80329000D01*
X129418440Y-80329000D01*
X129553678Y-80302099D01*
X129681070Y-80249332D01*
X129795720Y-80172726D01*
X129893222Y-80075224D01*
X129906067Y-80056000D01*
X132665132Y-80056000D01*
X135448511Y-82839380D01*
X135444000Y-82862056D01*
X135444000Y-82999944D01*
X135470901Y-83135182D01*
X135523668Y-83262574D01*
X135600274Y-83377224D01*
X135697776Y-83474726D01*
X135812426Y-83551332D01*
X135820062Y-83554495D01*
X135761276Y-83593774D01*
X135663774Y-83691276D01*
X135650929Y-83710500D01*
X134791055Y-83710500D01*
X132073452Y-80992899D01*
X132060080Y-80976605D01*
X131995061Y-80923245D01*
X131920881Y-80883595D01*
X131840392Y-80859178D01*
X131777663Y-80853000D01*
X131777652Y-80853000D01*
X131756685Y-80850935D01*
X131746839Y-80851905D01*
X131734726Y-80833776D01*
X131637224Y-80736274D01*
X131522574Y-80659668D01*
X131395182Y-80606901D01*
X131259944Y-80580000D01*
X131122056Y-80580000D01*
X130986818Y-80606901D01*
X130859426Y-80659668D01*
X130744776Y-80736274D01*
X130647274Y-80833776D01*
X130570668Y-80948426D01*
X130517901Y-81075818D01*
X130491000Y-81211056D01*
X130491000Y-81348944D01*
X130517901Y-81484182D01*
X130570668Y-81611574D01*
X130647274Y-81726224D01*
X130744776Y-81823726D01*
X130859426Y-81900332D01*
X130986818Y-81953099D01*
X131122056Y-81980000D01*
X131259944Y-81980000D01*
X131395182Y-81953099D01*
X131522574Y-81900332D01*
X131637224Y-81823726D01*
X131666883Y-81794067D01*
X131902905Y-82030089D01*
X131839682Y-82003901D01*
X131704444Y-81977000D01*
X131566556Y-81977000D01*
X131431318Y-82003901D01*
X131303926Y-82056668D01*
X131189276Y-82133274D01*
X131091774Y-82230776D01*
X131015168Y-82345426D01*
X130962401Y-82472818D01*
X130935500Y-82608056D01*
X130935500Y-82745944D01*
X130962401Y-82881182D01*
X131015168Y-83008574D01*
X131091774Y-83123224D01*
X131189276Y-83220726D01*
X131233900Y-83250543D01*
X131233901Y-84960957D01*
X131189276Y-84990774D01*
X131091774Y-85088276D01*
X131015168Y-85202926D01*
X130962401Y-85330318D01*
X130935500Y-85465556D01*
X130935500Y-85603444D01*
X130962401Y-85738682D01*
X131015168Y-85866074D01*
X131091774Y-85980724D01*
X131189276Y-86078226D01*
X131303926Y-86154832D01*
X131431318Y-86207599D01*
X131566556Y-86234500D01*
X131704444Y-86234500D01*
X131839682Y-86207599D01*
X131967074Y-86154832D01*
X132081724Y-86078226D01*
X132179226Y-85980724D01*
X132255832Y-85866074D01*
X132308599Y-85738682D01*
X132335500Y-85603444D01*
X132335500Y-85465556D01*
X132308599Y-85330318D01*
X132255832Y-85202926D01*
X132179226Y-85088276D01*
X132081724Y-84990774D01*
X132037100Y-84960957D01*
X132037100Y-83250543D01*
X132081724Y-83220726D01*
X132179226Y-83123224D01*
X132255832Y-83008574D01*
X132308599Y-82881182D01*
X132335500Y-82745944D01*
X132335500Y-82608056D01*
X132308599Y-82472818D01*
X132282411Y-82409595D01*
X134297426Y-84424611D01*
X134310790Y-84440895D01*
X134327074Y-84454259D01*
X134327083Y-84454268D01*
X134375808Y-84494255D01*
X134415458Y-84515448D01*
X134449989Y-84533905D01*
X134530478Y-84558322D01*
X134593207Y-84564500D01*
X134593219Y-84564500D01*
X134614184Y-84566565D01*
X134635149Y-84564500D01*
X135650929Y-84564500D01*
X135663774Y-84583724D01*
X135761276Y-84681226D01*
X135875926Y-84757832D01*
X136003318Y-84810599D01*
X136138556Y-84837500D01*
X136276444Y-84837500D01*
X136411682Y-84810599D01*
X136539074Y-84757832D01*
X136653724Y-84681226D01*
X136751226Y-84583724D01*
X136827832Y-84469074D01*
X136880599Y-84341682D01*
X136907500Y-84206444D01*
X136907500Y-84068556D01*
X136880599Y-83933318D01*
X136827832Y-83805926D01*
X136751226Y-83691276D01*
X136653724Y-83593774D01*
X136539074Y-83517168D01*
X136531438Y-83514005D01*
X136590224Y-83474726D01*
X136687726Y-83377224D01*
X136764332Y-83262574D01*
X136817099Y-83135182D01*
X136844000Y-82999944D01*
X136844000Y-82862056D01*
X136817099Y-82726818D01*
X136764332Y-82599426D01*
X136687726Y-82484776D01*
X136590224Y-82387274D01*
X136475574Y-82310668D01*
X136348182Y-82257901D01*
X136212944Y-82231000D01*
X136075056Y-82231000D01*
X136052380Y-82235511D01*
X133158768Y-79341900D01*
X133145395Y-79325605D01*
X133080376Y-79272245D01*
X133006196Y-79232595D01*
X132925707Y-79208178D01*
X132862978Y-79202000D01*
X132862967Y-79202000D01*
X132842000Y-79199935D01*
X132821033Y-79202000D01*
X129906067Y-79202000D01*
X129893222Y-79182776D01*
X129795720Y-79085274D01*
X129681070Y-79008668D01*
X129553678Y-78955901D01*
X129418440Y-78929000D01*
X129280552Y-78929000D01*
X129145314Y-78955901D01*
X129017922Y-79008668D01*
X128903272Y-79085274D01*
X128805770Y-79182776D01*
X128729164Y-79297426D01*
X128676397Y-79424818D01*
X128649496Y-79560056D01*
X127598425Y-79560056D01*
X126806489Y-78768121D01*
X126811000Y-78745444D01*
X126811000Y-78607556D01*
X126784099Y-78472318D01*
X126731332Y-78344926D01*
X126662955Y-78242591D01*
X127071697Y-78242591D01*
X127071697Y-78380479D01*
X127098598Y-78515717D01*
X127151365Y-78643109D01*
X127227971Y-78757759D01*
X127325473Y-78855261D01*
X127440123Y-78931867D01*
X127567515Y-78984634D01*
X127702753Y-79011535D01*
X127840641Y-79011535D01*
X127975879Y-78984634D01*
X128103271Y-78931867D01*
X128217921Y-78855261D01*
X128315423Y-78757759D01*
X128392029Y-78643109D01*
X128444796Y-78515717D01*
X128471697Y-78380479D01*
X128471697Y-78242591D01*
X128467186Y-78219915D01*
X128488464Y-78198637D01*
X128488468Y-78198632D01*
X129573105Y-77113996D01*
X129589395Y-77100627D01*
X129602764Y-77084337D01*
X129602768Y-77084333D01*
X129642755Y-77035609D01*
X129682404Y-76961429D01*
X129682405Y-76961428D01*
X129706822Y-76880939D01*
X129713000Y-76818210D01*
X129713000Y-76818199D01*
X129715065Y-76797232D01*
X129713000Y-76776265D01*
X129713000Y-73073571D01*
X129732224Y-73060726D01*
X129829726Y-72963224D01*
X129906332Y-72848574D01*
X129959099Y-72721182D01*
X129986000Y-72585944D01*
X129986000Y-72448056D01*
X129959099Y-72312818D01*
X129906332Y-72185426D01*
X129829726Y-72070776D01*
X129732224Y-71973274D01*
X129617574Y-71896668D01*
X129490182Y-71843901D01*
X129354944Y-71817000D01*
X129217056Y-71817000D01*
X129081818Y-71843901D01*
X128954426Y-71896668D01*
X128839776Y-71973274D01*
X128742274Y-72070776D01*
X128665668Y-72185426D01*
X128612901Y-72312818D01*
X128586000Y-72448056D01*
X128586000Y-72585944D01*
X128612901Y-72721182D01*
X128665668Y-72848574D01*
X128742274Y-72963224D01*
X128839776Y-73060726D01*
X128859000Y-73073571D01*
X128859001Y-76620362D01*
X127884600Y-77594764D01*
X127884595Y-77594768D01*
X127863317Y-77616046D01*
X127840641Y-77611535D01*
X127702753Y-77611535D01*
X127567515Y-77638436D01*
X127440123Y-77691203D01*
X127325473Y-77767809D01*
X127227971Y-77865311D01*
X127151365Y-77979961D01*
X127098598Y-78107353D01*
X127071697Y-78242591D01*
X126662955Y-78242591D01*
X126654726Y-78230276D01*
X126557224Y-78132774D01*
X126442574Y-78056168D01*
X126315182Y-78003401D01*
X126179944Y-77976500D01*
X126042056Y-77976500D01*
X125906818Y-78003401D01*
X125779426Y-78056168D01*
X125664776Y-78132774D01*
X125567274Y-78230276D01*
X125490668Y-78344926D01*
X125437901Y-78472318D01*
X125411000Y-78607556D01*
X125411000Y-78745444D01*
X125437901Y-78880682D01*
X125490668Y-79008074D01*
X125567274Y-79122724D01*
X125664776Y-79220226D01*
X125779426Y-79296832D01*
X125906818Y-79349599D01*
X126042056Y-79376500D01*
X126179944Y-79376500D01*
X126202621Y-79371989D01*
X127300182Y-80469551D01*
X127204574Y-80405668D01*
X127077182Y-80352901D01*
X126941944Y-80326000D01*
X126804056Y-80326000D01*
X126668818Y-80352901D01*
X126541426Y-80405668D01*
X126426776Y-80482274D01*
X126329274Y-80579776D01*
X126252668Y-80694426D01*
X126199901Y-80821818D01*
X126173000Y-80957056D01*
X126173000Y-81094944D01*
X126199901Y-81230182D01*
X126252668Y-81357574D01*
X126319000Y-81456848D01*
X126319001Y-83919786D01*
X126316321Y-83947000D01*
X126327016Y-84055603D01*
X126351861Y-84137500D01*
X126358696Y-84160032D01*
X126410138Y-84256275D01*
X126479369Y-84340632D01*
X126500506Y-84357979D01*
X129891021Y-87748495D01*
X129908368Y-87769632D01*
X129992725Y-87838863D01*
X130088968Y-87890305D01*
X130193397Y-87921984D01*
X130274788Y-87930000D01*
X130274797Y-87930000D01*
X130301999Y-87932679D01*
X130329201Y-87930000D01*
X131925796Y-87930000D01*
X131953000Y-87932679D01*
X131980204Y-87930000D01*
X131980212Y-87930000D01*
X132061603Y-87921984D01*
X132166032Y-87890305D01*
X132262275Y-87838863D01*
X132346632Y-87769632D01*
X132363983Y-87748490D01*
X134087475Y-86025000D01*
X139412981Y-86025000D01*
X139440185Y-86027679D01*
X139467387Y-86025000D01*
X139467397Y-86025000D01*
X139548788Y-86016984D01*
X139653217Y-85985305D01*
X139749460Y-85933863D01*
X139833817Y-85864632D01*
X139851168Y-85843490D01*
X141851237Y-83843421D01*
X141873668Y-83897574D01*
X141950274Y-84012224D01*
X142047776Y-84109726D01*
X142162426Y-84186332D01*
X142289818Y-84239099D01*
X142425056Y-84266000D01*
X142562944Y-84266000D01*
X142698182Y-84239099D01*
X142825574Y-84186332D01*
X142940224Y-84109726D01*
X143037726Y-84012224D01*
X143114332Y-83897574D01*
X143167099Y-83770182D01*
X143194000Y-83634944D01*
X143194000Y-83497056D01*
X143167099Y-83361818D01*
X143114332Y-83234426D01*
X143037726Y-83119776D01*
X142940224Y-83022274D01*
X142825574Y-82945668D01*
X142771421Y-82923237D01*
X142993495Y-82701164D01*
X143014632Y-82683817D01*
X143083863Y-82599460D01*
X143135305Y-82503217D01*
X143166984Y-82398788D01*
X143175000Y-82317397D01*
X143175000Y-82317390D01*
X143177679Y-82290186D01*
X143175000Y-82262982D01*
X143175000Y-73660000D01*
X143588321Y-73660000D01*
X143591000Y-73687204D01*
X143591001Y-86586786D01*
X143588321Y-86614000D01*
X143599016Y-86722603D01*
X143630696Y-86827032D01*
X143682138Y-86923275D01*
X143751369Y-87007632D01*
X143772506Y-87024979D01*
X145988608Y-89241082D01*
X146011901Y-89358182D01*
X146064668Y-89485574D01*
X146141274Y-89600224D01*
X146238776Y-89697726D01*
X146353426Y-89774332D01*
X146480818Y-89827099D01*
X146616056Y-89854000D01*
X146753944Y-89854000D01*
X146889182Y-89827099D01*
X147016574Y-89774332D01*
X147131224Y-89697726D01*
X147228726Y-89600224D01*
X147305332Y-89485574D01*
X147358099Y-89358182D01*
X147385000Y-89222944D01*
X147385000Y-89085056D01*
X147358099Y-88949818D01*
X147305332Y-88822426D01*
X147228726Y-88707776D01*
X147131224Y-88610274D01*
X147016574Y-88533668D01*
X146889182Y-88480901D01*
X146772082Y-88457608D01*
X144699000Y-86384527D01*
X144699000Y-79687056D01*
X158812000Y-79687056D01*
X158812000Y-79824944D01*
X158838901Y-79960182D01*
X158891668Y-80087574D01*
X158958000Y-80186848D01*
X158958001Y-83135205D01*
X158891668Y-83234480D01*
X158838901Y-83361872D01*
X158812000Y-83497110D01*
X158812000Y-83634998D01*
X158838901Y-83770236D01*
X158891668Y-83897628D01*
X158968274Y-84012278D01*
X159065776Y-84109780D01*
X159180426Y-84186386D01*
X159307818Y-84239153D01*
X159443056Y-84266054D01*
X159580944Y-84266054D01*
X159716182Y-84239153D01*
X159843574Y-84186386D01*
X159958224Y-84109780D01*
X160055726Y-84012278D01*
X160132332Y-83897628D01*
X160185099Y-83770236D01*
X160212000Y-83634998D01*
X160212000Y-83497110D01*
X160185099Y-83361872D01*
X160132332Y-83234480D01*
X160066000Y-83135206D01*
X160066000Y-80186848D01*
X160132332Y-80087574D01*
X160185099Y-79960182D01*
X160212000Y-79824944D01*
X160212000Y-79687056D01*
X160185099Y-79551818D01*
X160132332Y-79424426D01*
X160055726Y-79309776D01*
X159958224Y-79212274D01*
X159843574Y-79135668D01*
X159716182Y-79082901D01*
X159580944Y-79056000D01*
X159443056Y-79056000D01*
X159307818Y-79082901D01*
X159180426Y-79135668D01*
X159065776Y-79212274D01*
X158968274Y-79309776D01*
X158891668Y-79424426D01*
X158838901Y-79551818D01*
X158812000Y-79687056D01*
X144699000Y-79687056D01*
X144699000Y-78417056D01*
X166432000Y-78417056D01*
X166432000Y-78554944D01*
X166458901Y-78690182D01*
X166511668Y-78817574D01*
X166588274Y-78932224D01*
X166685776Y-79029726D01*
X166800426Y-79106332D01*
X166927818Y-79159099D01*
X167063056Y-79186000D01*
X167200944Y-79186000D01*
X167336182Y-79159099D01*
X167463574Y-79106332D01*
X167562848Y-79040000D01*
X171982527Y-79040000D01*
X173109504Y-80166978D01*
X173109510Y-80166983D01*
X175833608Y-82891082D01*
X175856901Y-83008182D01*
X175909668Y-83135574D01*
X175986274Y-83250224D01*
X176083776Y-83347726D01*
X176198426Y-83424332D01*
X176325818Y-83477099D01*
X176461056Y-83504000D01*
X176598944Y-83504000D01*
X176734182Y-83477099D01*
X176861574Y-83424332D01*
X176976224Y-83347726D01*
X177073726Y-83250224D01*
X177150332Y-83135574D01*
X177203099Y-83008182D01*
X177230000Y-82872944D01*
X177230000Y-82735056D01*
X177203099Y-82599818D01*
X177150332Y-82472426D01*
X177073726Y-82357776D01*
X176976224Y-82260274D01*
X176861574Y-82183668D01*
X176734182Y-82130901D01*
X176617082Y-82107608D01*
X173892983Y-79383510D01*
X173892978Y-79383504D01*
X172622983Y-78113510D01*
X172605632Y-78092368D01*
X172521275Y-78023137D01*
X172425032Y-77971695D01*
X172320603Y-77940016D01*
X172239212Y-77932000D01*
X172239204Y-77932000D01*
X172212000Y-77929321D01*
X172184796Y-77932000D01*
X167562848Y-77932000D01*
X167463574Y-77865668D01*
X167336182Y-77812901D01*
X167200944Y-77786000D01*
X167063056Y-77786000D01*
X166927818Y-77812901D01*
X166800426Y-77865668D01*
X166685776Y-77942274D01*
X166588274Y-78039776D01*
X166511668Y-78154426D01*
X166458901Y-78281818D01*
X166432000Y-78417056D01*
X144699000Y-78417056D01*
X144699000Y-77564444D01*
X175110000Y-77564444D01*
X175110000Y-77883556D01*
X175172256Y-78196536D01*
X175294375Y-78491358D01*
X175471664Y-78756689D01*
X175697311Y-78982336D01*
X175962642Y-79159625D01*
X176257464Y-79281744D01*
X176570444Y-79344000D01*
X176889556Y-79344000D01*
X177202536Y-79281744D01*
X177497358Y-79159625D01*
X177762689Y-78982336D01*
X177988336Y-78756689D01*
X178165625Y-78491358D01*
X178287744Y-78196536D01*
X178350000Y-77883556D01*
X178350000Y-77564444D01*
X178287744Y-77251464D01*
X178165625Y-76956642D01*
X177988336Y-76691311D01*
X177762689Y-76465664D01*
X177497358Y-76288375D01*
X177202536Y-76166256D01*
X176889556Y-76104000D01*
X176570444Y-76104000D01*
X176257464Y-76166256D01*
X175962642Y-76288375D01*
X175697311Y-76465664D01*
X175471664Y-76691311D01*
X175294375Y-76956642D01*
X175172256Y-77251464D01*
X175110000Y-77564444D01*
X144699000Y-77564444D01*
X144699000Y-73889473D01*
X144971908Y-73616565D01*
X144995901Y-73737182D01*
X145048668Y-73864574D01*
X145125274Y-73979224D01*
X145222776Y-74076726D01*
X145242000Y-74089571D01*
X145242001Y-74931589D01*
X145210426Y-74944668D01*
X145095776Y-75021274D01*
X144998274Y-75118776D01*
X144921668Y-75233426D01*
X144868901Y-75360818D01*
X144842000Y-75496056D01*
X144842000Y-75633944D01*
X144868901Y-75769182D01*
X144921668Y-75896574D01*
X144998274Y-76011224D01*
X145095776Y-76108726D01*
X145210426Y-76185332D01*
X145337818Y-76238099D01*
X145473056Y-76265000D01*
X145610944Y-76265000D01*
X145746182Y-76238099D01*
X145873574Y-76185332D01*
X145988224Y-76108726D01*
X146085726Y-76011224D01*
X146113500Y-75969657D01*
X146141274Y-76011224D01*
X146238776Y-76108726D01*
X146353426Y-76185332D01*
X146480818Y-76238099D01*
X146616056Y-76265000D01*
X146753944Y-76265000D01*
X146889182Y-76238099D01*
X147016574Y-76185332D01*
X147131224Y-76108726D01*
X147228726Y-76011224D01*
X147305332Y-75896574D01*
X147313416Y-75877056D01*
X150556990Y-75877056D01*
X150556990Y-76014944D01*
X150583891Y-76150182D01*
X150636658Y-76277574D01*
X150713264Y-76392224D01*
X150810766Y-76489726D01*
X150925416Y-76566332D01*
X151052808Y-76619099D01*
X151188046Y-76646000D01*
X151325934Y-76646000D01*
X151461172Y-76619099D01*
X151588564Y-76566332D01*
X151703214Y-76489726D01*
X151800716Y-76392224D01*
X151839869Y-76333627D01*
X151853903Y-76404182D01*
X151906670Y-76531574D01*
X151983276Y-76646224D01*
X152080778Y-76743726D01*
X152195428Y-76820332D01*
X152322820Y-76873099D01*
X152458058Y-76900000D01*
X152595946Y-76900000D01*
X152731184Y-76873099D01*
X152858576Y-76820332D01*
X152973226Y-76743726D01*
X153070728Y-76646224D01*
X153147334Y-76531574D01*
X153200101Y-76404182D01*
X153203905Y-76385056D01*
X153351000Y-76385056D01*
X153351000Y-76522944D01*
X153377901Y-76658182D01*
X153430668Y-76785574D01*
X153507274Y-76900224D01*
X153604776Y-76997726D01*
X153719426Y-77074332D01*
X153846818Y-77127099D01*
X153982056Y-77154000D01*
X154119944Y-77154000D01*
X154255182Y-77127099D01*
X154382574Y-77074332D01*
X154497224Y-76997726D01*
X154594726Y-76900224D01*
X154671332Y-76785574D01*
X154686000Y-76750162D01*
X154700668Y-76785574D01*
X154777274Y-76900224D01*
X154874776Y-76997726D01*
X154989426Y-77074332D01*
X155116818Y-77127099D01*
X155252056Y-77154000D01*
X155389944Y-77154000D01*
X155525182Y-77127099D01*
X155652574Y-77074332D01*
X155767224Y-76997726D01*
X155864726Y-76900224D01*
X155941332Y-76785574D01*
X155994099Y-76658182D01*
X156021000Y-76522944D01*
X156021000Y-76385056D01*
X156145000Y-76385056D01*
X156145000Y-76522944D01*
X156171901Y-76658182D01*
X156224668Y-76785574D01*
X156301274Y-76900224D01*
X156398776Y-76997726D01*
X156513426Y-77074332D01*
X156640818Y-77127099D01*
X156776056Y-77154000D01*
X156913944Y-77154000D01*
X157049182Y-77127099D01*
X157176574Y-77074332D01*
X157291224Y-76997726D01*
X157388726Y-76900224D01*
X157465332Y-76785574D01*
X157518099Y-76658182D01*
X157545000Y-76522944D01*
X157545000Y-76435358D01*
X173150000Y-76435358D01*
X173150000Y-76612642D01*
X173184586Y-76786520D01*
X173252430Y-76950310D01*
X173350924Y-77097717D01*
X173476283Y-77223076D01*
X173623690Y-77321570D01*
X173787480Y-77389414D01*
X173961358Y-77424000D01*
X174138642Y-77424000D01*
X174312520Y-77389414D01*
X174476310Y-77321570D01*
X174623717Y-77223076D01*
X174749076Y-77097717D01*
X174847570Y-76950310D01*
X174915414Y-76786520D01*
X174950000Y-76612642D01*
X174950000Y-76435358D01*
X174915414Y-76261480D01*
X174847570Y-76097690D01*
X174749076Y-75950283D01*
X174623717Y-75824924D01*
X174476310Y-75726430D01*
X174312520Y-75658586D01*
X174138642Y-75624000D01*
X173961358Y-75624000D01*
X173787480Y-75658586D01*
X173623690Y-75726430D01*
X173476283Y-75824924D01*
X173350924Y-75950283D01*
X173252430Y-76097690D01*
X173184586Y-76261480D01*
X173150000Y-76435358D01*
X157545000Y-76435358D01*
X157545000Y-76385056D01*
X157518099Y-76249818D01*
X157465332Y-76122426D01*
X157388726Y-76007776D01*
X157291224Y-75910274D01*
X157272006Y-75897433D01*
X157272006Y-73200571D01*
X157291230Y-73187726D01*
X157388732Y-73090224D01*
X157465338Y-72975574D01*
X157518105Y-72848182D01*
X157545006Y-72712944D01*
X157545006Y-72575056D01*
X157518105Y-72439818D01*
X157465338Y-72312426D01*
X157388732Y-72197776D01*
X157291230Y-72100274D01*
X157176580Y-72023668D01*
X157049188Y-71970901D01*
X156913950Y-71944000D01*
X156776062Y-71944000D01*
X156640824Y-71970901D01*
X156513432Y-72023668D01*
X156398782Y-72100274D01*
X156301280Y-72197776D01*
X156224674Y-72312426D01*
X156171907Y-72439818D01*
X156145006Y-72575056D01*
X156145006Y-72712944D01*
X156171907Y-72848182D01*
X156224674Y-72975574D01*
X156301280Y-73090224D01*
X156398782Y-73187726D01*
X156418006Y-73200571D01*
X156418007Y-75897424D01*
X156398776Y-75910274D01*
X156301274Y-76007776D01*
X156224668Y-76122426D01*
X156171901Y-76249818D01*
X156145000Y-76385056D01*
X156021000Y-76385056D01*
X155994099Y-76249818D01*
X155941332Y-76122426D01*
X155864726Y-76007776D01*
X155767224Y-75910274D01*
X155748000Y-75897429D01*
X155748000Y-73200571D01*
X155767224Y-73187726D01*
X155864726Y-73090224D01*
X155941332Y-72975574D01*
X155994099Y-72848182D01*
X156021000Y-72712944D01*
X156021000Y-72575056D01*
X155994099Y-72439818D01*
X155941332Y-72312426D01*
X155864726Y-72197776D01*
X155767224Y-72100274D01*
X155652574Y-72023668D01*
X155525182Y-71970901D01*
X155389944Y-71944000D01*
X155252056Y-71944000D01*
X155116818Y-71970901D01*
X154989426Y-72023668D01*
X154874776Y-72100274D01*
X154777274Y-72197776D01*
X154700668Y-72312426D01*
X154686002Y-72347833D01*
X154671336Y-72312426D01*
X154594730Y-72197776D01*
X154497228Y-72100274D01*
X154382578Y-72023668D01*
X154255186Y-71970901D01*
X154119948Y-71944000D01*
X153982060Y-71944000D01*
X153846822Y-71970901D01*
X153719430Y-72023668D01*
X153604780Y-72100274D01*
X153507278Y-72197776D01*
X153430672Y-72312426D01*
X153377905Y-72439818D01*
X153351004Y-72575056D01*
X153351004Y-72712944D01*
X153377905Y-72848182D01*
X153430672Y-72975574D01*
X153507278Y-73090224D01*
X153604780Y-73187726D01*
X153624004Y-73200571D01*
X153624005Y-75897426D01*
X153604776Y-75910274D01*
X153507274Y-76007776D01*
X153430668Y-76122426D01*
X153377901Y-76249818D01*
X153351000Y-76385056D01*
X153203905Y-76385056D01*
X153227002Y-76268944D01*
X153227002Y-76131056D01*
X153200101Y-75995818D01*
X153147334Y-75868426D01*
X153070728Y-75753776D01*
X152973226Y-75656274D01*
X152954000Y-75643428D01*
X152954000Y-73200571D01*
X152973224Y-73187726D01*
X153070726Y-73090224D01*
X153147332Y-72975574D01*
X153200099Y-72848182D01*
X153227000Y-72712944D01*
X153227000Y-72575056D01*
X153200099Y-72439818D01*
X153147332Y-72312426D01*
X153070726Y-72197776D01*
X152973224Y-72100274D01*
X152858574Y-72023668D01*
X152731182Y-71970901D01*
X152595944Y-71944000D01*
X152458056Y-71944000D01*
X152322818Y-71970901D01*
X152195426Y-72023668D01*
X152080776Y-72100274D01*
X151983274Y-72197776D01*
X151906668Y-72312426D01*
X151892000Y-72347838D01*
X151877332Y-72312426D01*
X151800726Y-72197776D01*
X151703224Y-72100274D01*
X151588574Y-72023668D01*
X151461182Y-71970901D01*
X151325944Y-71944000D01*
X151188056Y-71944000D01*
X151052818Y-71970901D01*
X150925426Y-72023668D01*
X150810776Y-72100274D01*
X150713274Y-72197776D01*
X150636668Y-72312426D01*
X150583901Y-72439818D01*
X150557000Y-72575056D01*
X150557000Y-72712944D01*
X150583901Y-72848182D01*
X150636668Y-72975574D01*
X150713274Y-73090224D01*
X150810776Y-73187726D01*
X150830000Y-73200571D01*
X150830001Y-75389422D01*
X150810766Y-75402274D01*
X150713264Y-75499776D01*
X150636658Y-75614426D01*
X150583891Y-75741818D01*
X150556990Y-75877056D01*
X147313416Y-75877056D01*
X147358099Y-75769182D01*
X147385000Y-75633944D01*
X147385000Y-75496056D01*
X147358099Y-75360818D01*
X147305332Y-75233426D01*
X147228726Y-75118776D01*
X147131224Y-75021274D01*
X147112000Y-75008429D01*
X147112000Y-73344000D01*
X147134944Y-73344000D01*
X147270182Y-73317099D01*
X147397574Y-73264332D01*
X147512224Y-73187726D01*
X147609726Y-73090224D01*
X147686332Y-72975574D01*
X147739099Y-72848182D01*
X147766000Y-72712944D01*
X147766000Y-72575056D01*
X147739099Y-72439818D01*
X147686332Y-72312426D01*
X147609726Y-72197776D01*
X147512224Y-72100274D01*
X147397574Y-72023668D01*
X147270182Y-71970901D01*
X147134944Y-71944000D01*
X146997056Y-71944000D01*
X146861818Y-71970901D01*
X146734426Y-72023668D01*
X146619776Y-72100274D01*
X146522274Y-72197776D01*
X146445668Y-72312426D01*
X146392901Y-72439818D01*
X146366000Y-72575056D01*
X146366000Y-72712944D01*
X146370431Y-72735221D01*
X146368237Y-72737895D01*
X146368232Y-72737900D01*
X146328245Y-72786624D01*
X146295133Y-72848574D01*
X146288596Y-72860804D01*
X146264179Y-72941293D01*
X146258767Y-72996247D01*
X146255935Y-73025000D01*
X146258001Y-73045977D01*
X146258001Y-73154535D01*
X146212726Y-73086776D01*
X146115224Y-72989274D01*
X146000574Y-72912668D01*
X145873182Y-72859901D01*
X145752565Y-72835908D01*
X146079978Y-72508496D01*
X146079982Y-72508491D01*
X146714979Y-71873496D01*
X146714988Y-71873485D01*
X146772081Y-71816392D01*
X146889182Y-71793099D01*
X147016574Y-71740332D01*
X147131224Y-71663726D01*
X147209592Y-71585358D01*
X173150000Y-71585358D01*
X173150000Y-71762642D01*
X173184586Y-71936520D01*
X173252430Y-72100310D01*
X173350924Y-72247717D01*
X173476283Y-72373076D01*
X173623690Y-72471570D01*
X173787480Y-72539414D01*
X173961358Y-72574000D01*
X174138642Y-72574000D01*
X174312520Y-72539414D01*
X174476310Y-72471570D01*
X174623717Y-72373076D01*
X174749076Y-72247717D01*
X174847570Y-72100310D01*
X174915414Y-71936520D01*
X174950000Y-71762642D01*
X174950000Y-71585358D01*
X174915414Y-71411480D01*
X174847570Y-71247690D01*
X174749076Y-71100283D01*
X174623717Y-70974924D01*
X174476310Y-70876430D01*
X174312520Y-70808586D01*
X174138642Y-70774000D01*
X173961358Y-70774000D01*
X173787480Y-70808586D01*
X173623690Y-70876430D01*
X173476283Y-70974924D01*
X173350924Y-71100283D01*
X173252430Y-71247690D01*
X173184586Y-71411480D01*
X173150000Y-71585358D01*
X147209592Y-71585358D01*
X147228726Y-71566224D01*
X147305332Y-71451574D01*
X147358099Y-71324182D01*
X147385000Y-71188944D01*
X147385000Y-71051056D01*
X147358099Y-70915818D01*
X147305332Y-70788426D01*
X147228726Y-70673776D01*
X147131224Y-70576274D01*
X147016574Y-70499668D01*
X146889182Y-70446901D01*
X146753944Y-70420000D01*
X146616056Y-70420000D01*
X146480818Y-70446901D01*
X146353426Y-70499668D01*
X146238776Y-70576274D01*
X146141274Y-70673776D01*
X146064668Y-70788426D01*
X146011901Y-70915818D01*
X145988608Y-71032919D01*
X145931515Y-71090012D01*
X145931504Y-71090021D01*
X145296509Y-71725018D01*
X145296504Y-71725022D01*
X143772510Y-73249017D01*
X143751368Y-73266368D01*
X143682137Y-73350725D01*
X143630695Y-73446969D01*
X143599016Y-73551398D01*
X143591000Y-73632789D01*
X143591000Y-73632796D01*
X143588321Y-73660000D01*
X143175000Y-73660000D01*
X143175000Y-73381473D01*
X146242029Y-70314444D01*
X175110000Y-70314444D01*
X175110000Y-70633556D01*
X175172256Y-70946536D01*
X175294375Y-71241358D01*
X175471664Y-71506689D01*
X175697311Y-71732336D01*
X175962642Y-71909625D01*
X176257464Y-72031744D01*
X176570444Y-72094000D01*
X176889556Y-72094000D01*
X177202536Y-72031744D01*
X177497358Y-71909625D01*
X177762689Y-71732336D01*
X177988336Y-71506689D01*
X178165625Y-71241358D01*
X178287744Y-70946536D01*
X178350000Y-70633556D01*
X178350000Y-70314444D01*
X178287744Y-70001464D01*
X178165625Y-69706642D01*
X177988336Y-69441311D01*
X177762689Y-69215664D01*
X177497358Y-69038375D01*
X177202536Y-68916256D01*
X176889556Y-68854000D01*
X176570444Y-68854000D01*
X176257464Y-68916256D01*
X175962642Y-69038375D01*
X175697311Y-69215664D01*
X175471664Y-69441311D01*
X175294375Y-69706642D01*
X175172256Y-70001464D01*
X175110000Y-70314444D01*
X146242029Y-70314444D01*
X151248495Y-65307979D01*
X151269632Y-65290632D01*
X151338863Y-65206275D01*
X151390305Y-65110032D01*
X151421984Y-65005603D01*
X151430000Y-64924212D01*
X151430000Y-64924204D01*
X151432679Y-64897000D01*
X151430000Y-64869796D01*
X151430000Y-60092612D01*
X151474065Y-60209300D01*
X151625264Y-60451852D01*
X151820878Y-60660246D01*
X152053389Y-60826473D01*
X152313861Y-60944146D01*
X152402090Y-60970903D01*
X152626998Y-60859890D01*
X152626998Y-60961103D01*
X152445557Y-60997194D01*
X152236271Y-61083884D01*
X152047918Y-61209737D01*
X151887737Y-61369918D01*
X151761884Y-61558271D01*
X151675194Y-61767557D01*
X151631000Y-61989735D01*
X151631000Y-62216265D01*
X151675194Y-62438443D01*
X151761884Y-62647729D01*
X151887737Y-62836082D01*
X152047918Y-62996263D01*
X152236271Y-63122116D01*
X152445557Y-63208806D01*
X152667735Y-63253000D01*
X152894265Y-63253000D01*
X153116443Y-63208806D01*
X153325729Y-63122116D01*
X153514082Y-62996263D01*
X153674263Y-62836082D01*
X153800116Y-62647729D01*
X153886806Y-62438443D01*
X153931000Y-62216265D01*
X153931000Y-61989735D01*
X154171000Y-61989735D01*
X154171000Y-62216265D01*
X154215194Y-62438443D01*
X154301884Y-62647729D01*
X154427737Y-62836082D01*
X154587918Y-62996263D01*
X154776271Y-63122116D01*
X154985557Y-63208806D01*
X155207735Y-63253000D01*
X155434265Y-63253000D01*
X155656443Y-63208806D01*
X155865729Y-63122116D01*
X156054082Y-62996263D01*
X156214263Y-62836082D01*
X156340116Y-62647729D01*
X156426806Y-62438443D01*
X156471000Y-62216265D01*
X156471000Y-61989735D01*
X156711000Y-61989735D01*
X156711000Y-62216265D01*
X156755194Y-62438443D01*
X156841884Y-62647729D01*
X156967737Y-62836082D01*
X157127918Y-62996263D01*
X157316271Y-63122116D01*
X157525557Y-63208806D01*
X157747735Y-63253000D01*
X157974265Y-63253000D01*
X158196443Y-63208806D01*
X158405729Y-63122116D01*
X158594082Y-62996263D01*
X158754263Y-62836082D01*
X158880116Y-62647729D01*
X158966806Y-62438443D01*
X159011000Y-62216265D01*
X159011000Y-61989735D01*
X159251000Y-61989735D01*
X159251000Y-62216265D01*
X159295194Y-62438443D01*
X159381884Y-62647729D01*
X159507737Y-62836082D01*
X159667918Y-62996263D01*
X159856271Y-63122116D01*
X160065557Y-63208806D01*
X160287735Y-63253000D01*
X160514265Y-63253000D01*
X160736443Y-63208806D01*
X160945729Y-63122116D01*
X161134082Y-62996263D01*
X161294263Y-62836082D01*
X161420116Y-62647729D01*
X161506806Y-62438443D01*
X161551000Y-62216265D01*
X161551000Y-61989735D01*
X161506806Y-61767557D01*
X161420116Y-61558271D01*
X161294263Y-61369918D01*
X161134082Y-61209737D01*
X160945729Y-61083884D01*
X160736443Y-60997194D01*
X160514265Y-60953000D01*
X160287735Y-60953000D01*
X160065557Y-60997194D01*
X159856271Y-61083884D01*
X159667918Y-61209737D01*
X159507737Y-61369918D01*
X159381884Y-61558271D01*
X159295194Y-61767557D01*
X159251000Y-61989735D01*
X159011000Y-61989735D01*
X158966806Y-61767557D01*
X158880116Y-61558271D01*
X158754263Y-61369918D01*
X158594082Y-61209737D01*
X158405729Y-61083884D01*
X158196443Y-60997194D01*
X157974265Y-60953000D01*
X157747735Y-60953000D01*
X157525557Y-60997194D01*
X157316271Y-61083884D01*
X157127918Y-61209737D01*
X156967737Y-61369918D01*
X156841884Y-61558271D01*
X156755194Y-61767557D01*
X156711000Y-61989735D01*
X156471000Y-61989735D01*
X156426806Y-61767557D01*
X156340116Y-61558271D01*
X156214263Y-61369918D01*
X156054082Y-61209737D01*
X155865729Y-61083884D01*
X155656443Y-60997194D01*
X155434265Y-60953000D01*
X155207735Y-60953000D01*
X154985557Y-60997194D01*
X154776271Y-61083884D01*
X154587918Y-61209737D01*
X154427737Y-61369918D01*
X154301884Y-61558271D01*
X154215194Y-61767557D01*
X154171000Y-61989735D01*
X153931000Y-61989735D01*
X153886806Y-61767557D01*
X153800116Y-61558271D01*
X153674263Y-61369918D01*
X153514082Y-61209737D01*
X153325729Y-61083884D01*
X153116443Y-60997194D01*
X152935002Y-60961103D01*
X152935002Y-60859890D01*
X153159910Y-60970903D01*
X153248139Y-60944146D01*
X153508611Y-60826473D01*
X153741122Y-60660246D01*
X153936736Y-60451852D01*
X154087935Y-60209300D01*
X154188909Y-59941911D01*
X154078851Y-59717002D01*
X154179103Y-59717002D01*
X154215194Y-59898443D01*
X154301884Y-60107729D01*
X154427737Y-60296082D01*
X154587918Y-60456263D01*
X154776271Y-60582116D01*
X154985557Y-60668806D01*
X155207735Y-60713000D01*
X155434265Y-60713000D01*
X155656443Y-60668806D01*
X155865729Y-60582116D01*
X156054082Y-60456263D01*
X156214263Y-60296082D01*
X156340116Y-60107729D01*
X156426806Y-59898443D01*
X156471000Y-59676265D01*
X156471000Y-59449735D01*
X156711000Y-59449735D01*
X156711000Y-59676265D01*
X156755194Y-59898443D01*
X156841884Y-60107729D01*
X156967737Y-60296082D01*
X157127918Y-60456263D01*
X157316271Y-60582116D01*
X157525557Y-60668806D01*
X157747735Y-60713000D01*
X157974265Y-60713000D01*
X158196443Y-60668806D01*
X158405729Y-60582116D01*
X158594082Y-60456263D01*
X158754263Y-60296082D01*
X158880116Y-60107729D01*
X158966806Y-59898443D01*
X159011000Y-59676265D01*
X159011000Y-59449735D01*
X158966806Y-59227557D01*
X158880116Y-59018271D01*
X158754263Y-58829918D01*
X158637345Y-58713000D01*
X159249549Y-58713000D01*
X159249549Y-60413000D01*
X159255341Y-60471810D01*
X159272496Y-60528360D01*
X159300353Y-60580477D01*
X159337842Y-60626158D01*
X159383523Y-60663647D01*
X159435640Y-60691504D01*
X159492190Y-60708659D01*
X159551000Y-60714451D01*
X161251000Y-60714451D01*
X161309810Y-60708659D01*
X161366360Y-60691504D01*
X161418477Y-60663647D01*
X161464158Y-60626158D01*
X161501647Y-60580477D01*
X161529504Y-60528360D01*
X161546659Y-60471810D01*
X161552451Y-60413000D01*
X161552451Y-58713000D01*
X161546659Y-58654190D01*
X161529504Y-58597640D01*
X161501647Y-58545523D01*
X161464158Y-58499842D01*
X161418477Y-58462353D01*
X161366360Y-58434496D01*
X161309810Y-58417341D01*
X161251000Y-58411549D01*
X159551000Y-58411549D01*
X159492190Y-58417341D01*
X159435640Y-58434496D01*
X159383523Y-58462353D01*
X159337842Y-58499842D01*
X159300353Y-58545523D01*
X159272496Y-58597640D01*
X159255341Y-58654190D01*
X159249549Y-58713000D01*
X158637345Y-58713000D01*
X158594082Y-58669737D01*
X158405729Y-58543884D01*
X158196443Y-58457194D01*
X157974265Y-58413000D01*
X157747735Y-58413000D01*
X157525557Y-58457194D01*
X157316271Y-58543884D01*
X157127918Y-58669737D01*
X156967737Y-58829918D01*
X156841884Y-59018271D01*
X156755194Y-59227557D01*
X156711000Y-59449735D01*
X156471000Y-59449735D01*
X156426806Y-59227557D01*
X156340116Y-59018271D01*
X156214263Y-58829918D01*
X156054082Y-58669737D01*
X155865729Y-58543884D01*
X155656443Y-58457194D01*
X155434265Y-58413000D01*
X155207735Y-58413000D01*
X154996492Y-58455019D01*
X154881983Y-58340510D01*
X154881979Y-58340505D01*
X154299473Y-57758000D01*
X179478000Y-57758000D01*
X179478000Y-114454000D01*
X100176000Y-114454000D01*
X100176000Y-106002578D01*
X101257000Y-106002578D01*
X101276317Y-106198705D01*
X101352653Y-106450353D01*
X101476618Y-106682274D01*
X101643445Y-106885555D01*
X101846725Y-107052382D01*
X102078646Y-107176347D01*
X102330294Y-107252683D01*
X102592000Y-107278459D01*
X102853705Y-107252683D01*
X103105353Y-107176347D01*
X103337274Y-107052382D01*
X103540555Y-106885555D01*
X103707382Y-106682275D01*
X103831347Y-106450354D01*
X103907683Y-106198706D01*
X103927000Y-106002579D01*
X103927000Y-104714866D01*
X109482000Y-104714866D01*
X109482000Y-105089134D01*
X109555016Y-105456209D01*
X109698242Y-105801987D01*
X109906174Y-106113179D01*
X110170821Y-106377826D01*
X110482013Y-106585758D01*
X110827791Y-106728984D01*
X111194866Y-106802000D01*
X111569134Y-106802000D01*
X111936209Y-106728984D01*
X112281987Y-106585758D01*
X112593179Y-106377826D01*
X112857826Y-106113179D01*
X113065758Y-105801987D01*
X113208984Y-105456209D01*
X113282000Y-105089134D01*
X113282000Y-104714866D01*
X165097000Y-104714866D01*
X165097000Y-105089134D01*
X165170016Y-105456209D01*
X165313242Y-105801987D01*
X165521174Y-106113179D01*
X165785821Y-106377826D01*
X166097013Y-106585758D01*
X166442791Y-106728984D01*
X166809866Y-106802000D01*
X167184134Y-106802000D01*
X167551209Y-106728984D01*
X167896987Y-106585758D01*
X168208179Y-106377826D01*
X168472826Y-106113179D01*
X168546727Y-106002578D01*
X174157000Y-106002578D01*
X174176317Y-106198705D01*
X174252653Y-106450353D01*
X174376618Y-106682274D01*
X174543445Y-106885555D01*
X174746725Y-107052382D01*
X174978646Y-107176347D01*
X175230294Y-107252683D01*
X175492000Y-107278459D01*
X175753705Y-107252683D01*
X176005353Y-107176347D01*
X176237274Y-107052382D01*
X176440555Y-106885555D01*
X176607382Y-106682275D01*
X176731347Y-106450354D01*
X176807683Y-106198706D01*
X176827000Y-106002579D01*
X176827000Y-103801421D01*
X176807683Y-103605294D01*
X176731347Y-103353646D01*
X176607382Y-103121725D01*
X176440555Y-102918445D01*
X176237275Y-102751618D01*
X176005354Y-102627653D01*
X175753706Y-102551317D01*
X175492000Y-102525541D01*
X175230295Y-102551317D01*
X174978647Y-102627653D01*
X174746726Y-102751618D01*
X174543446Y-102918445D01*
X174376619Y-103121725D01*
X174252654Y-103353646D01*
X174176318Y-103605294D01*
X174157001Y-103801421D01*
X174157000Y-106002578D01*
X168546727Y-106002578D01*
X168680758Y-105801987D01*
X168823984Y-105456209D01*
X168897000Y-105089134D01*
X168897000Y-104714866D01*
X168823984Y-104347791D01*
X168680758Y-104002013D01*
X168472826Y-103690821D01*
X168208179Y-103426174D01*
X167896987Y-103218242D01*
X167551209Y-103075016D01*
X167184134Y-103002000D01*
X166809866Y-103002000D01*
X166442791Y-103075016D01*
X166097013Y-103218242D01*
X165785821Y-103426174D01*
X165521174Y-103690821D01*
X165313242Y-104002013D01*
X165170016Y-104347791D01*
X165097000Y-104714866D01*
X113282000Y-104714866D01*
X113208984Y-104347791D01*
X113065758Y-104002013D01*
X112857826Y-103690821D01*
X112593179Y-103426174D01*
X112281987Y-103218242D01*
X111936209Y-103075016D01*
X111569134Y-103002000D01*
X111194866Y-103002000D01*
X110827791Y-103075016D01*
X110482013Y-103218242D01*
X110170821Y-103426174D01*
X109906174Y-103690821D01*
X109698242Y-104002013D01*
X109555016Y-104347791D01*
X109482000Y-104714866D01*
X103927000Y-104714866D01*
X103927000Y-103801421D01*
X103907683Y-103605294D01*
X103831347Y-103353646D01*
X103707382Y-103121725D01*
X103540555Y-102918445D01*
X103337275Y-102751618D01*
X103105354Y-102627653D01*
X102853706Y-102551317D01*
X102592000Y-102525541D01*
X102330295Y-102551317D01*
X102078647Y-102627653D01*
X101846726Y-102751618D01*
X101643446Y-102918445D01*
X101476619Y-103121725D01*
X101352654Y-103353646D01*
X101276318Y-103605294D01*
X101257001Y-103801421D01*
X101257000Y-106002578D01*
X100176000Y-106002578D01*
X100176000Y-91879056D01*
X162114000Y-91879056D01*
X162114000Y-92016944D01*
X162140901Y-92152182D01*
X162193668Y-92279574D01*
X162270274Y-92394224D01*
X162367776Y-92491726D01*
X162482426Y-92568332D01*
X162609818Y-92621099D01*
X162745056Y-92648000D01*
X162882944Y-92648000D01*
X163018182Y-92621099D01*
X163145574Y-92568332D01*
X163244848Y-92502000D01*
X166447152Y-92502000D01*
X166546426Y-92568332D01*
X166673818Y-92621099D01*
X166809056Y-92648000D01*
X166946944Y-92648000D01*
X167082182Y-92621099D01*
X167209574Y-92568332D01*
X167324224Y-92491726D01*
X167421726Y-92394224D01*
X167498332Y-92279574D01*
X167551099Y-92152182D01*
X167578000Y-92016944D01*
X167578000Y-91879056D01*
X167551099Y-91743818D01*
X167498332Y-91616426D01*
X167421726Y-91501776D01*
X167324224Y-91404274D01*
X167209574Y-91327668D01*
X167082182Y-91274901D01*
X166946944Y-91248000D01*
X166809056Y-91248000D01*
X166673818Y-91274901D01*
X166546426Y-91327668D01*
X166447152Y-91394000D01*
X163244848Y-91394000D01*
X163145574Y-91327668D01*
X163018182Y-91274901D01*
X162882944Y-91248000D01*
X162745056Y-91248000D01*
X162609818Y-91274901D01*
X162482426Y-91327668D01*
X162367776Y-91404274D01*
X162270274Y-91501776D01*
X162193668Y-91616426D01*
X162140901Y-91743818D01*
X162114000Y-91879056D01*
X100176000Y-91879056D01*
X100176000Y-82354056D01*
X107758000Y-82354056D01*
X107758000Y-82491944D01*
X107784901Y-82627182D01*
X107837668Y-82754574D01*
X107914274Y-82869224D01*
X108011776Y-82966726D01*
X108126426Y-83043332D01*
X108253818Y-83096099D01*
X108389056Y-83123000D01*
X108526944Y-83123000D01*
X108662182Y-83096099D01*
X108789574Y-83043332D01*
X108904224Y-82966726D01*
X109001726Y-82869224D01*
X109014571Y-82850000D01*
X112981429Y-82850000D01*
X112994274Y-82869224D01*
X113091776Y-82966726D01*
X113206426Y-83043332D01*
X113333818Y-83096099D01*
X113469056Y-83123000D01*
X113606944Y-83123000D01*
X113742182Y-83096099D01*
X113869574Y-83043332D01*
X113984224Y-82966726D01*
X114081726Y-82869224D01*
X114158332Y-82754574D01*
X114211099Y-82627182D01*
X114238000Y-82491944D01*
X114238000Y-82354056D01*
X114211099Y-82218818D01*
X114158332Y-82091426D01*
X114081726Y-81976776D01*
X113984224Y-81879274D01*
X113869574Y-81802668D01*
X113742182Y-81749901D01*
X113606944Y-81723000D01*
X113469056Y-81723000D01*
X113333818Y-81749901D01*
X113206426Y-81802668D01*
X113091776Y-81879274D01*
X112994274Y-81976776D01*
X112981429Y-81996000D01*
X109014571Y-81996000D01*
X109001726Y-81976776D01*
X108904224Y-81879274D01*
X108789574Y-81802668D01*
X108662182Y-81749901D01*
X108526944Y-81723000D01*
X108389056Y-81723000D01*
X108253818Y-81749901D01*
X108126426Y-81802668D01*
X108011776Y-81879274D01*
X107914274Y-81976776D01*
X107837668Y-82091426D01*
X107784901Y-82218818D01*
X107758000Y-82354056D01*
X100176000Y-82354056D01*
X100176000Y-71767395D01*
X102214400Y-71767395D01*
X102214400Y-71996605D01*
X102259117Y-72221410D01*
X102346831Y-72433171D01*
X102474173Y-72623752D01*
X102636248Y-72785827D01*
X102826829Y-72913169D01*
X103038590Y-73000883D01*
X103263395Y-73045600D01*
X103492605Y-73045600D01*
X103717410Y-73000883D01*
X103929171Y-72913169D01*
X104119752Y-72785827D01*
X104281827Y-72623752D01*
X104409169Y-72433171D01*
X104496883Y-72221410D01*
X104541600Y-71996605D01*
X104541600Y-71767395D01*
X104496883Y-71542590D01*
X104409169Y-71330829D01*
X104281827Y-71140248D01*
X104159979Y-71018400D01*
X104752949Y-71018400D01*
X104752949Y-72745600D01*
X104758741Y-72804410D01*
X104775896Y-72860960D01*
X104803753Y-72913077D01*
X104841242Y-72958758D01*
X104886923Y-72996247D01*
X104939040Y-73024104D01*
X104995590Y-73041259D01*
X105054400Y-73047051D01*
X106781600Y-73047051D01*
X106840410Y-73041259D01*
X106896960Y-73024104D01*
X106949077Y-72996247D01*
X106994758Y-72958758D01*
X107032247Y-72913077D01*
X107060104Y-72860960D01*
X107077259Y-72804410D01*
X107083051Y-72745600D01*
X107083051Y-71018400D01*
X107077259Y-70959590D01*
X107060104Y-70903040D01*
X107032247Y-70850923D01*
X106994758Y-70805242D01*
X106949077Y-70767753D01*
X106896960Y-70739896D01*
X106840410Y-70722741D01*
X106781600Y-70716949D01*
X105054400Y-70716949D01*
X104995590Y-70722741D01*
X104939040Y-70739896D01*
X104886923Y-70767753D01*
X104841242Y-70805242D01*
X104803753Y-70850923D01*
X104775896Y-70903040D01*
X104758741Y-70959590D01*
X104752949Y-71018400D01*
X104159979Y-71018400D01*
X104119752Y-70978173D01*
X103929171Y-70850831D01*
X103717410Y-70763117D01*
X103492605Y-70718400D01*
X103263395Y-70718400D01*
X103038590Y-70763117D01*
X102826829Y-70850831D01*
X102636248Y-70978173D01*
X102474173Y-71140248D01*
X102346831Y-71330829D01*
X102259117Y-71542590D01*
X102214400Y-71767395D01*
X100176000Y-71767395D01*
X100176000Y-69227395D01*
X102214400Y-69227395D01*
X102214400Y-69456605D01*
X102259117Y-69681410D01*
X102346831Y-69893171D01*
X102474173Y-70083752D01*
X102636248Y-70245827D01*
X102826829Y-70373169D01*
X103038590Y-70460883D01*
X103263395Y-70505600D01*
X103492605Y-70505600D01*
X103717410Y-70460883D01*
X103929171Y-70373169D01*
X104119752Y-70245827D01*
X104281827Y-70083752D01*
X104409169Y-69893171D01*
X104496883Y-69681410D01*
X104541600Y-69456605D01*
X104541600Y-69227395D01*
X104496883Y-69002590D01*
X104409169Y-68790829D01*
X104281827Y-68600248D01*
X104119752Y-68438173D01*
X103929171Y-68310831D01*
X103717410Y-68223117D01*
X103492605Y-68178400D01*
X103263395Y-68178400D01*
X103038590Y-68223117D01*
X102826829Y-68310831D01*
X102636248Y-68438173D01*
X102474173Y-68600248D01*
X102346831Y-68790829D01*
X102259117Y-69002590D01*
X102214400Y-69227395D01*
X100176000Y-69227395D01*
X100176000Y-66687395D01*
X102214400Y-66687395D01*
X102214400Y-66916605D01*
X102259117Y-67141410D01*
X102346831Y-67353171D01*
X102474173Y-67543752D01*
X102636248Y-67705827D01*
X102826829Y-67833169D01*
X103038590Y-67920883D01*
X103263395Y-67965600D01*
X103492605Y-67965600D01*
X103717410Y-67920883D01*
X103841581Y-67869450D01*
X103954497Y-67982366D01*
X103954502Y-67982370D01*
X104331236Y-68359105D01*
X104344605Y-68375395D01*
X104360895Y-68388764D01*
X104360899Y-68388768D01*
X104409623Y-68428756D01*
X104466538Y-68459176D01*
X104483804Y-68468405D01*
X104564293Y-68492822D01*
X104627022Y-68499000D01*
X104627033Y-68499000D01*
X104648000Y-68501065D01*
X104668967Y-68499000D01*
X105115421Y-68499000D01*
X105014173Y-68600248D01*
X104886831Y-68790829D01*
X104799117Y-69002590D01*
X104754400Y-69227395D01*
X104754400Y-69456605D01*
X104799117Y-69681410D01*
X104886831Y-69893171D01*
X105014173Y-70083752D01*
X105176248Y-70245827D01*
X105366829Y-70373169D01*
X105578590Y-70460883D01*
X105803395Y-70505600D01*
X106032605Y-70505600D01*
X106257410Y-70460883D01*
X106469171Y-70373169D01*
X106659752Y-70245827D01*
X106821827Y-70083752D01*
X106949169Y-69893171D01*
X107036883Y-69681410D01*
X107081600Y-69456605D01*
X107081600Y-69227395D01*
X107036883Y-69002590D01*
X106949169Y-68790829D01*
X106821827Y-68600248D01*
X106720579Y-68499000D01*
X108789132Y-68499000D01*
X109032511Y-68742379D01*
X109028000Y-68765056D01*
X109028000Y-68902944D01*
X109054901Y-69038182D01*
X109107668Y-69165574D01*
X109184274Y-69280224D01*
X109281776Y-69377726D01*
X109396426Y-69454332D01*
X109523818Y-69507099D01*
X109659056Y-69534000D01*
X109796944Y-69534000D01*
X109932182Y-69507099D01*
X110059574Y-69454332D01*
X110174224Y-69377726D01*
X110271726Y-69280224D01*
X110348332Y-69165574D01*
X110356416Y-69146056D01*
X135825006Y-69146056D01*
X135825006Y-69283944D01*
X135851907Y-69419182D01*
X135904674Y-69546574D01*
X135981280Y-69661224D01*
X136078782Y-69758726D01*
X136193432Y-69835332D01*
X136320824Y-69888099D01*
X136456062Y-69915000D01*
X136593950Y-69915000D01*
X136729188Y-69888099D01*
X136856580Y-69835332D01*
X136971230Y-69758726D01*
X137068732Y-69661224D01*
X137145338Y-69546574D01*
X137198105Y-69419182D01*
X137225006Y-69283944D01*
X137225006Y-69146056D01*
X137204509Y-69043012D01*
X138121028Y-68126494D01*
X138173666Y-68136964D01*
X138311554Y-68136964D01*
X138446792Y-68110063D01*
X138574184Y-68057296D01*
X138688834Y-67980690D01*
X138786336Y-67883188D01*
X138862942Y-67768538D01*
X138915709Y-67641146D01*
X138942610Y-67505908D01*
X138942610Y-67368020D01*
X138915709Y-67232782D01*
X138862942Y-67105390D01*
X138786336Y-66990740D01*
X138688834Y-66893238D01*
X138574184Y-66816632D01*
X138446792Y-66763865D01*
X138311554Y-66736964D01*
X138173666Y-66736964D01*
X138038428Y-66763865D01*
X137911036Y-66816632D01*
X137796386Y-66893238D01*
X137698884Y-66990740D01*
X137622278Y-67105390D01*
X137569511Y-67232782D01*
X137542610Y-67368020D01*
X137542610Y-67505908D01*
X137553080Y-67558546D01*
X136596183Y-68515444D01*
X136593950Y-68515000D01*
X136456062Y-68515000D01*
X136320824Y-68541901D01*
X136193432Y-68594668D01*
X136078782Y-68671274D01*
X135981280Y-68768776D01*
X135904674Y-68883426D01*
X135851907Y-69010818D01*
X135825006Y-69146056D01*
X110356416Y-69146056D01*
X110401099Y-69038182D01*
X110428000Y-68902944D01*
X110428000Y-68765056D01*
X110401099Y-68629818D01*
X110348332Y-68502426D01*
X110271726Y-68387776D01*
X110174224Y-68290274D01*
X110059574Y-68213668D01*
X109932182Y-68160901D01*
X109796944Y-68134000D01*
X109659056Y-68134000D01*
X109636379Y-68138511D01*
X109282767Y-67784899D01*
X109269395Y-67768605D01*
X109204376Y-67715245D01*
X109130196Y-67675595D01*
X109049707Y-67651178D01*
X108986978Y-67645000D01*
X108986967Y-67645000D01*
X108966000Y-67642935D01*
X108945033Y-67645000D01*
X106720579Y-67645000D01*
X106821827Y-67543752D01*
X106949169Y-67353171D01*
X107036883Y-67141410D01*
X107081600Y-66916605D01*
X107081600Y-66687395D01*
X107036883Y-66462590D01*
X106949169Y-66250829D01*
X106821827Y-66060248D01*
X106659752Y-65898173D01*
X106469171Y-65770831D01*
X106257410Y-65683117D01*
X106032605Y-65638400D01*
X105803395Y-65638400D01*
X105578590Y-65683117D01*
X105366829Y-65770831D01*
X105176248Y-65898173D01*
X105014173Y-66060248D01*
X104886831Y-66250829D01*
X104799117Y-66462590D01*
X104754400Y-66687395D01*
X104754400Y-66916605D01*
X104799117Y-67141410D01*
X104886831Y-67353171D01*
X105014173Y-67543752D01*
X105115421Y-67645000D01*
X104824869Y-67645000D01*
X104558370Y-67378502D01*
X104558366Y-67378497D01*
X104445450Y-67265581D01*
X104496883Y-67141410D01*
X104541600Y-66916605D01*
X104541600Y-66687395D01*
X104496883Y-66462590D01*
X104409169Y-66250829D01*
X104281827Y-66060248D01*
X104119752Y-65898173D01*
X103929171Y-65770831D01*
X103717410Y-65683117D01*
X103492605Y-65638400D01*
X103263395Y-65638400D01*
X103038590Y-65683117D01*
X102826829Y-65770831D01*
X102636248Y-65898173D01*
X102474173Y-66060248D01*
X102346831Y-66250829D01*
X102259117Y-66462590D01*
X102214400Y-66687395D01*
X100176000Y-66687395D01*
X100176000Y-64147395D01*
X102214400Y-64147395D01*
X102214400Y-64376605D01*
X102259117Y-64601410D01*
X102346831Y-64813171D01*
X102474173Y-65003752D01*
X102636248Y-65165827D01*
X102826829Y-65293169D01*
X103038590Y-65380883D01*
X103263395Y-65425600D01*
X103492605Y-65425600D01*
X103717410Y-65380883D01*
X103929171Y-65293169D01*
X104119752Y-65165827D01*
X104281827Y-65003752D01*
X104409169Y-64813171D01*
X104496883Y-64601410D01*
X104541600Y-64376605D01*
X104541600Y-64147395D01*
X104754400Y-64147395D01*
X104754400Y-64376605D01*
X104799117Y-64601410D01*
X104886831Y-64813171D01*
X105014173Y-65003752D01*
X105176248Y-65165827D01*
X105366829Y-65293169D01*
X105578590Y-65380883D01*
X105803395Y-65425600D01*
X106032605Y-65425600D01*
X106257410Y-65380883D01*
X106469171Y-65293169D01*
X106659752Y-65165827D01*
X106821827Y-65003752D01*
X106949169Y-64813171D01*
X107036883Y-64601410D01*
X107081600Y-64376605D01*
X107081600Y-64147395D01*
X107065421Y-64066056D01*
X138111000Y-64066056D01*
X138111000Y-64203944D01*
X138137901Y-64339182D01*
X138190668Y-64466574D01*
X138267274Y-64581224D01*
X138364776Y-64678726D01*
X138479426Y-64755332D01*
X138606818Y-64808099D01*
X138742056Y-64835000D01*
X138879944Y-64835000D01*
X138902621Y-64830489D01*
X139273000Y-65200869D01*
X139273001Y-70817428D01*
X139253776Y-70830274D01*
X139156274Y-70927776D01*
X139079668Y-71042426D01*
X139026901Y-71169818D01*
X139000000Y-71305056D01*
X139000000Y-71442944D01*
X139026901Y-71578182D01*
X139079668Y-71705574D01*
X139156274Y-71820224D01*
X139253776Y-71917726D01*
X139368426Y-71994332D01*
X139495818Y-72047099D01*
X139631056Y-72074000D01*
X139768944Y-72074000D01*
X139904182Y-72047099D01*
X140031574Y-71994332D01*
X140146224Y-71917726D01*
X140243726Y-71820224D01*
X140320332Y-71705574D01*
X140373099Y-71578182D01*
X140400000Y-71442944D01*
X140400000Y-71305056D01*
X140373099Y-71169818D01*
X140320332Y-71042426D01*
X140243726Y-70927776D01*
X140146224Y-70830274D01*
X140127000Y-70817429D01*
X140127000Y-65044967D01*
X140129065Y-65024000D01*
X140127000Y-65003033D01*
X140127000Y-65003022D01*
X140120822Y-64940293D01*
X140096405Y-64859804D01*
X140068768Y-64808099D01*
X140056755Y-64785623D01*
X140016768Y-64736899D01*
X140016764Y-64736895D01*
X140003395Y-64720605D01*
X139987106Y-64707237D01*
X139506489Y-64226621D01*
X139511000Y-64203944D01*
X139511000Y-64066056D01*
X139484099Y-63930818D01*
X139431332Y-63803426D01*
X139354726Y-63688776D01*
X139257224Y-63591274D01*
X139142574Y-63514668D01*
X139015182Y-63461901D01*
X138879944Y-63435000D01*
X138742056Y-63435000D01*
X138606818Y-63461901D01*
X138479426Y-63514668D01*
X138364776Y-63591274D01*
X138267274Y-63688776D01*
X138190668Y-63803426D01*
X138137901Y-63930818D01*
X138111000Y-64066056D01*
X107065421Y-64066056D01*
X107036883Y-63922590D01*
X106949169Y-63710829D01*
X106821827Y-63520248D01*
X106659752Y-63358173D01*
X106469171Y-63230831D01*
X106257410Y-63143117D01*
X106032605Y-63098400D01*
X105803395Y-63098400D01*
X105578590Y-63143117D01*
X105366829Y-63230831D01*
X105176248Y-63358173D01*
X105014173Y-63520248D01*
X104886831Y-63710829D01*
X104799117Y-63922590D01*
X104754400Y-64147395D01*
X104541600Y-64147395D01*
X104496883Y-63922590D01*
X104409169Y-63710829D01*
X104281827Y-63520248D01*
X104119752Y-63358173D01*
X103929171Y-63230831D01*
X103717410Y-63143117D01*
X103492605Y-63098400D01*
X103263395Y-63098400D01*
X103038590Y-63143117D01*
X102826829Y-63230831D01*
X102636248Y-63358173D01*
X102474173Y-63520248D01*
X102346831Y-63710829D01*
X102259117Y-63922590D01*
X102214400Y-64147395D01*
X100176000Y-64147395D01*
X100176000Y-61989735D01*
X147948000Y-61989735D01*
X147948000Y-62216265D01*
X147992194Y-62438443D01*
X148078884Y-62647729D01*
X148204737Y-62836082D01*
X148364918Y-62996263D01*
X148553271Y-63122116D01*
X148762557Y-63208806D01*
X148984735Y-63253000D01*
X149211265Y-63253000D01*
X149433443Y-63208806D01*
X149642729Y-63122116D01*
X149831082Y-62996263D01*
X149991263Y-62836082D01*
X150117116Y-62647729D01*
X150203806Y-62438443D01*
X150248000Y-62216265D01*
X150248000Y-61989735D01*
X150203806Y-61767557D01*
X150117116Y-61558271D01*
X149991263Y-61369918D01*
X149831082Y-61209737D01*
X149642729Y-61083884D01*
X149433443Y-60997194D01*
X149211265Y-60953000D01*
X148984735Y-60953000D01*
X148762557Y-60997194D01*
X148553271Y-61083884D01*
X148364918Y-61209737D01*
X148204737Y-61369918D01*
X148078884Y-61558271D01*
X147992194Y-61767557D01*
X147948000Y-61989735D01*
X100176000Y-61989735D01*
X100176000Y-58713000D01*
X133849549Y-58713000D01*
X133849549Y-60413000D01*
X133855341Y-60471810D01*
X133872496Y-60528360D01*
X133900353Y-60580477D01*
X133937842Y-60626158D01*
X133983523Y-60663647D01*
X134035640Y-60691504D01*
X134092190Y-60708659D01*
X134151000Y-60714451D01*
X135851000Y-60714451D01*
X135909810Y-60708659D01*
X135966360Y-60691504D01*
X136018477Y-60663647D01*
X136064158Y-60626158D01*
X136101647Y-60580477D01*
X136129504Y-60528360D01*
X136146659Y-60471810D01*
X136152451Y-60413000D01*
X136152451Y-59449735D01*
X136391000Y-59449735D01*
X136391000Y-59676265D01*
X136435194Y-59898443D01*
X136521884Y-60107729D01*
X136647737Y-60296082D01*
X136807918Y-60456263D01*
X136996271Y-60582116D01*
X137205557Y-60668806D01*
X137427735Y-60713000D01*
X137654265Y-60713000D01*
X137876443Y-60668806D01*
X138085729Y-60582116D01*
X138274082Y-60456263D01*
X138434263Y-60296082D01*
X138560116Y-60107729D01*
X138646806Y-59898443D01*
X138691000Y-59676265D01*
X138691000Y-59449735D01*
X138931000Y-59449735D01*
X138931000Y-59676265D01*
X138975194Y-59898443D01*
X139061884Y-60107729D01*
X139187737Y-60296082D01*
X139347918Y-60456263D01*
X139536271Y-60582116D01*
X139745557Y-60668806D01*
X139967735Y-60713000D01*
X140194265Y-60713000D01*
X140416443Y-60668806D01*
X140625729Y-60582116D01*
X140814082Y-60456263D01*
X140974263Y-60296082D01*
X141100116Y-60107729D01*
X141186806Y-59898443D01*
X141222897Y-59717002D01*
X141323149Y-59717002D01*
X141213091Y-59941911D01*
X141314065Y-60209300D01*
X141465264Y-60451852D01*
X141660878Y-60660246D01*
X141893389Y-60826473D01*
X142153861Y-60944146D01*
X142242090Y-60970903D01*
X142467000Y-60859889D01*
X142467000Y-59717000D01*
X142447000Y-59717000D01*
X142447000Y-59409000D01*
X142467000Y-59409000D01*
X142467000Y-58266111D01*
X142775000Y-58266111D01*
X142775000Y-59409000D01*
X142795000Y-59409000D01*
X142795000Y-59717000D01*
X142775000Y-59717000D01*
X142775000Y-60859889D01*
X142999910Y-60970903D01*
X143088139Y-60944146D01*
X143348611Y-60826473D01*
X143581122Y-60660246D01*
X143776736Y-60451852D01*
X143927935Y-60209300D01*
X144028909Y-59941911D01*
X143918851Y-59717002D01*
X144019103Y-59717002D01*
X144055194Y-59898443D01*
X144141884Y-60107729D01*
X144267737Y-60296082D01*
X144427918Y-60456263D01*
X144616271Y-60582116D01*
X144825557Y-60668806D01*
X145047735Y-60713000D01*
X145274265Y-60713000D01*
X145496443Y-60668806D01*
X145705729Y-60582116D01*
X145894082Y-60456263D01*
X146054263Y-60296082D01*
X146180116Y-60107729D01*
X146266806Y-59898443D01*
X146311000Y-59676265D01*
X146311000Y-59449735D01*
X146266806Y-59227557D01*
X146180116Y-59018271D01*
X146054263Y-58829918D01*
X145937345Y-58713000D01*
X147946549Y-58713000D01*
X147946549Y-60413000D01*
X147952341Y-60471810D01*
X147969496Y-60528360D01*
X147997353Y-60580477D01*
X148034842Y-60626158D01*
X148080523Y-60663647D01*
X148132640Y-60691504D01*
X148189190Y-60708659D01*
X148248000Y-60714451D01*
X149948000Y-60714451D01*
X150006810Y-60708659D01*
X150063360Y-60691504D01*
X150115477Y-60663647D01*
X150161158Y-60626158D01*
X150198647Y-60580477D01*
X150226504Y-60528360D01*
X150243659Y-60471810D01*
X150249451Y-60413000D01*
X150249451Y-58713000D01*
X150243659Y-58654190D01*
X150226504Y-58597640D01*
X150198647Y-58545523D01*
X150161158Y-58499842D01*
X150115477Y-58462353D01*
X150063360Y-58434496D01*
X150006810Y-58417341D01*
X149948000Y-58411549D01*
X148248000Y-58411549D01*
X148189190Y-58417341D01*
X148132640Y-58434496D01*
X148080523Y-58462353D01*
X148034842Y-58499842D01*
X147997353Y-58545523D01*
X147969496Y-58597640D01*
X147952341Y-58654190D01*
X147946549Y-58713000D01*
X145937345Y-58713000D01*
X145894082Y-58669737D01*
X145705729Y-58543884D01*
X145496443Y-58457194D01*
X145274265Y-58413000D01*
X145047735Y-58413000D01*
X144825557Y-58457194D01*
X144616271Y-58543884D01*
X144427918Y-58669737D01*
X144267737Y-58829918D01*
X144141884Y-59018271D01*
X144055194Y-59227557D01*
X144019103Y-59408998D01*
X143918851Y-59408998D01*
X144028909Y-59184089D01*
X143927935Y-58916700D01*
X143776736Y-58674148D01*
X143581122Y-58465754D01*
X143348611Y-58299527D01*
X143088139Y-58181854D01*
X142999910Y-58155097D01*
X142775000Y-58266111D01*
X142467000Y-58266111D01*
X142242090Y-58155097D01*
X142153861Y-58181854D01*
X141893389Y-58299527D01*
X141660878Y-58465754D01*
X141465264Y-58674148D01*
X141314065Y-58916700D01*
X141213091Y-59184089D01*
X141323149Y-59408998D01*
X141222897Y-59408998D01*
X141186806Y-59227557D01*
X141100116Y-59018271D01*
X140974263Y-58829918D01*
X140814082Y-58669737D01*
X140625729Y-58543884D01*
X140416443Y-58457194D01*
X140194265Y-58413000D01*
X139967735Y-58413000D01*
X139745557Y-58457194D01*
X139536271Y-58543884D01*
X139347918Y-58669737D01*
X139187737Y-58829918D01*
X139061884Y-59018271D01*
X138975194Y-59227557D01*
X138931000Y-59449735D01*
X138691000Y-59449735D01*
X138646806Y-59227557D01*
X138560116Y-59018271D01*
X138434263Y-58829918D01*
X138274082Y-58669737D01*
X138085729Y-58543884D01*
X137876443Y-58457194D01*
X137654265Y-58413000D01*
X137427735Y-58413000D01*
X137205557Y-58457194D01*
X136996271Y-58543884D01*
X136807918Y-58669737D01*
X136647737Y-58829918D01*
X136521884Y-59018271D01*
X136435194Y-59227557D01*
X136391000Y-59449735D01*
X136152451Y-59449735D01*
X136152451Y-58713000D01*
X136146659Y-58654190D01*
X136129504Y-58597640D01*
X136101647Y-58545523D01*
X136064158Y-58499842D01*
X136018477Y-58462353D01*
X135966360Y-58434496D01*
X135909810Y-58417341D01*
X135851000Y-58411549D01*
X134151000Y-58411549D01*
X134092190Y-58417341D01*
X134035640Y-58434496D01*
X133983523Y-58462353D01*
X133937842Y-58499842D01*
X133900353Y-58545523D01*
X133872496Y-58597640D01*
X133855341Y-58654190D01*
X133849549Y-58713000D01*
X100176000Y-58713000D01*
X100176000Y-57758000D01*
X151262525Y-57758000D01*
X150503505Y-58517022D01*
G37*
X150503505Y-58517022D02*
X150482369Y-58534368D01*
X150465022Y-58555505D01*
X150413138Y-58618725D01*
X150361696Y-58714968D01*
X150330016Y-58819397D01*
X150319321Y-58928000D01*
X150322001Y-58955214D01*
X150322000Y-64667526D01*
X142248506Y-72741021D01*
X142227369Y-72758368D01*
X142210022Y-72779505D01*
X142158138Y-72842725D01*
X142106696Y-72938968D01*
X142075016Y-73043397D01*
X142064321Y-73152000D01*
X142067001Y-73179214D01*
X142067000Y-82060711D01*
X141674102Y-82453609D01*
X141652960Y-82470960D01*
X141635613Y-82492097D01*
X139210711Y-84917000D01*
X133885204Y-84917000D01*
X133858000Y-84914321D01*
X133830796Y-84917000D01*
X133830788Y-84917000D01*
X133758765Y-84924093D01*
X133749396Y-84925016D01*
X133644967Y-84956695D01*
X133548725Y-85008137D01*
X133485504Y-85060021D01*
X133485499Y-85060026D01*
X133464368Y-85077368D01*
X133447026Y-85098499D01*
X131723527Y-86822000D01*
X130531474Y-86822000D01*
X127427000Y-83717527D01*
X127427000Y-81456848D01*
X127493332Y-81357574D01*
X127546099Y-81230182D01*
X127573000Y-81094944D01*
X127573000Y-80957056D01*
X127546099Y-80821818D01*
X127493332Y-80694426D01*
X127429449Y-80598818D01*
X128019011Y-81188380D01*
X128014500Y-81211056D01*
X128014500Y-81348944D01*
X128041401Y-81484182D01*
X128094168Y-81611574D01*
X128170774Y-81726224D01*
X128268276Y-81823726D01*
X128382926Y-81900332D01*
X128510318Y-81953099D01*
X128645556Y-81980000D01*
X128783444Y-81980000D01*
X128918682Y-81953099D01*
X129046074Y-81900332D01*
X129160724Y-81823726D01*
X129258226Y-81726224D01*
X129334832Y-81611574D01*
X129387599Y-81484182D01*
X129414500Y-81348944D01*
X129414500Y-81211056D01*
X129387599Y-81075818D01*
X129334832Y-80948426D01*
X129258226Y-80833776D01*
X129160724Y-80736274D01*
X129046074Y-80659668D01*
X128918682Y-80606901D01*
X128783444Y-80580000D01*
X128645556Y-80580000D01*
X128622880Y-80584511D01*
X127598425Y-79560056D01*
X128649496Y-79560056D01*
X128649496Y-79697944D01*
X128676397Y-79833182D01*
X128729164Y-79960574D01*
X128805770Y-80075224D01*
X128903272Y-80172726D01*
X129017922Y-80249332D01*
X129145314Y-80302099D01*
X129280552Y-80329000D01*
X129418440Y-80329000D01*
X129553678Y-80302099D01*
X129681070Y-80249332D01*
X129795720Y-80172726D01*
X129893222Y-80075224D01*
X129906067Y-80056000D01*
X132665132Y-80056000D01*
X135448511Y-82839380D01*
X135444000Y-82862056D01*
X135444000Y-82999944D01*
X135470901Y-83135182D01*
X135523668Y-83262574D01*
X135600274Y-83377224D01*
X135697776Y-83474726D01*
X135812426Y-83551332D01*
X135820062Y-83554495D01*
X135761276Y-83593774D01*
X135663774Y-83691276D01*
X135650929Y-83710500D01*
X134791055Y-83710500D01*
X132073452Y-80992899D01*
X132060080Y-80976605D01*
X131995061Y-80923245D01*
X131920881Y-80883595D01*
X131840392Y-80859178D01*
X131777663Y-80853000D01*
X131777652Y-80853000D01*
X131756685Y-80850935D01*
X131746839Y-80851905D01*
X131734726Y-80833776D01*
X131637224Y-80736274D01*
X131522574Y-80659668D01*
X131395182Y-80606901D01*
X131259944Y-80580000D01*
X131122056Y-80580000D01*
X130986818Y-80606901D01*
X130859426Y-80659668D01*
X130744776Y-80736274D01*
X130647274Y-80833776D01*
X130570668Y-80948426D01*
X130517901Y-81075818D01*
X130491000Y-81211056D01*
X130491000Y-81348944D01*
X130517901Y-81484182D01*
X130570668Y-81611574D01*
X130647274Y-81726224D01*
X130744776Y-81823726D01*
X130859426Y-81900332D01*
X130986818Y-81953099D01*
X131122056Y-81980000D01*
X131259944Y-81980000D01*
X131395182Y-81953099D01*
X131522574Y-81900332D01*
X131637224Y-81823726D01*
X131666883Y-81794067D01*
X131902905Y-82030089D01*
X131839682Y-82003901D01*
X131704444Y-81977000D01*
X131566556Y-81977000D01*
X131431318Y-82003901D01*
X131303926Y-82056668D01*
X131189276Y-82133274D01*
X131091774Y-82230776D01*
X131015168Y-82345426D01*
X130962401Y-82472818D01*
X130935500Y-82608056D01*
X130935500Y-82745944D01*
X130962401Y-82881182D01*
X131015168Y-83008574D01*
X131091774Y-83123224D01*
X131189276Y-83220726D01*
X131233900Y-83250543D01*
X131233901Y-84960957D01*
X131189276Y-84990774D01*
X131091774Y-85088276D01*
X131015168Y-85202926D01*
X130962401Y-85330318D01*
X130935500Y-85465556D01*
X130935500Y-85603444D01*
X130962401Y-85738682D01*
X131015168Y-85866074D01*
X131091774Y-85980724D01*
X131189276Y-86078226D01*
X131303926Y-86154832D01*
X131431318Y-86207599D01*
X131566556Y-86234500D01*
X131704444Y-86234500D01*
X131839682Y-86207599D01*
X131967074Y-86154832D01*
X132081724Y-86078226D01*
X132179226Y-85980724D01*
X132255832Y-85866074D01*
X132308599Y-85738682D01*
X132335500Y-85603444D01*
X132335500Y-85465556D01*
X132308599Y-85330318D01*
X132255832Y-85202926D01*
X132179226Y-85088276D01*
X132081724Y-84990774D01*
X132037100Y-84960957D01*
X132037100Y-83250543D01*
X132081724Y-83220726D01*
X132179226Y-83123224D01*
X132255832Y-83008574D01*
X132308599Y-82881182D01*
X132335500Y-82745944D01*
X132335500Y-82608056D01*
X132308599Y-82472818D01*
X132282411Y-82409595D01*
X134297426Y-84424611D01*
X134310790Y-84440895D01*
X134327074Y-84454259D01*
X134327083Y-84454268D01*
X134375808Y-84494255D01*
X134415458Y-84515448D01*
X134449989Y-84533905D01*
X134530478Y-84558322D01*
X134593207Y-84564500D01*
X134593219Y-84564500D01*
X134614184Y-84566565D01*
X134635149Y-84564500D01*
X135650929Y-84564500D01*
X135663774Y-84583724D01*
X135761276Y-84681226D01*
X135875926Y-84757832D01*
X136003318Y-84810599D01*
X136138556Y-84837500D01*
X136276444Y-84837500D01*
X136411682Y-84810599D01*
X136539074Y-84757832D01*
X136653724Y-84681226D01*
X136751226Y-84583724D01*
X136827832Y-84469074D01*
X136880599Y-84341682D01*
X136907500Y-84206444D01*
X136907500Y-84068556D01*
X136880599Y-83933318D01*
X136827832Y-83805926D01*
X136751226Y-83691276D01*
X136653724Y-83593774D01*
X136539074Y-83517168D01*
X136531438Y-83514005D01*
X136590224Y-83474726D01*
X136687726Y-83377224D01*
X136764332Y-83262574D01*
X136817099Y-83135182D01*
X136844000Y-82999944D01*
X136844000Y-82862056D01*
X136817099Y-82726818D01*
X136764332Y-82599426D01*
X136687726Y-82484776D01*
X136590224Y-82387274D01*
X136475574Y-82310668D01*
X136348182Y-82257901D01*
X136212944Y-82231000D01*
X136075056Y-82231000D01*
X136052380Y-82235511D01*
X133158768Y-79341900D01*
X133145395Y-79325605D01*
X133080376Y-79272245D01*
X133006196Y-79232595D01*
X132925707Y-79208178D01*
X132862978Y-79202000D01*
X132862967Y-79202000D01*
X132842000Y-79199935D01*
X132821033Y-79202000D01*
X129906067Y-79202000D01*
X129893222Y-79182776D01*
X129795720Y-79085274D01*
X129681070Y-79008668D01*
X129553678Y-78955901D01*
X129418440Y-78929000D01*
X129280552Y-78929000D01*
X129145314Y-78955901D01*
X129017922Y-79008668D01*
X128903272Y-79085274D01*
X128805770Y-79182776D01*
X128729164Y-79297426D01*
X128676397Y-79424818D01*
X128649496Y-79560056D01*
X127598425Y-79560056D01*
X126806489Y-78768121D01*
X126811000Y-78745444D01*
X126811000Y-78607556D01*
X126784099Y-78472318D01*
X126731332Y-78344926D01*
X126662955Y-78242591D01*
X127071697Y-78242591D01*
X127071697Y-78380479D01*
X127098598Y-78515717D01*
X127151365Y-78643109D01*
X127227971Y-78757759D01*
X127325473Y-78855261D01*
X127440123Y-78931867D01*
X127567515Y-78984634D01*
X127702753Y-79011535D01*
X127840641Y-79011535D01*
X127975879Y-78984634D01*
X128103271Y-78931867D01*
X128217921Y-78855261D01*
X128315423Y-78757759D01*
X128392029Y-78643109D01*
X128444796Y-78515717D01*
X128471697Y-78380479D01*
X128471697Y-78242591D01*
X128467186Y-78219915D01*
X128488464Y-78198637D01*
X128488468Y-78198632D01*
X129573105Y-77113996D01*
X129589395Y-77100627D01*
X129602764Y-77084337D01*
X129602768Y-77084333D01*
X129642755Y-77035609D01*
X129682404Y-76961429D01*
X129682405Y-76961428D01*
X129706822Y-76880939D01*
X129713000Y-76818210D01*
X129713000Y-76818199D01*
X129715065Y-76797232D01*
X129713000Y-76776265D01*
X129713000Y-73073571D01*
X129732224Y-73060726D01*
X129829726Y-72963224D01*
X129906332Y-72848574D01*
X129959099Y-72721182D01*
X129986000Y-72585944D01*
X129986000Y-72448056D01*
X129959099Y-72312818D01*
X129906332Y-72185426D01*
X129829726Y-72070776D01*
X129732224Y-71973274D01*
X129617574Y-71896668D01*
X129490182Y-71843901D01*
X129354944Y-71817000D01*
X129217056Y-71817000D01*
X129081818Y-71843901D01*
X128954426Y-71896668D01*
X128839776Y-71973274D01*
X128742274Y-72070776D01*
X128665668Y-72185426D01*
X128612901Y-72312818D01*
X128586000Y-72448056D01*
X128586000Y-72585944D01*
X128612901Y-72721182D01*
X128665668Y-72848574D01*
X128742274Y-72963224D01*
X128839776Y-73060726D01*
X128859000Y-73073571D01*
X128859001Y-76620362D01*
X127884600Y-77594764D01*
X127884595Y-77594768D01*
X127863317Y-77616046D01*
X127840641Y-77611535D01*
X127702753Y-77611535D01*
X127567515Y-77638436D01*
X127440123Y-77691203D01*
X127325473Y-77767809D01*
X127227971Y-77865311D01*
X127151365Y-77979961D01*
X127098598Y-78107353D01*
X127071697Y-78242591D01*
X126662955Y-78242591D01*
X126654726Y-78230276D01*
X126557224Y-78132774D01*
X126442574Y-78056168D01*
X126315182Y-78003401D01*
X126179944Y-77976500D01*
X126042056Y-77976500D01*
X125906818Y-78003401D01*
X125779426Y-78056168D01*
X125664776Y-78132774D01*
X125567274Y-78230276D01*
X125490668Y-78344926D01*
X125437901Y-78472318D01*
X125411000Y-78607556D01*
X125411000Y-78745444D01*
X125437901Y-78880682D01*
X125490668Y-79008074D01*
X125567274Y-79122724D01*
X125664776Y-79220226D01*
X125779426Y-79296832D01*
X125906818Y-79349599D01*
X126042056Y-79376500D01*
X126179944Y-79376500D01*
X126202621Y-79371989D01*
X127300182Y-80469551D01*
X127204574Y-80405668D01*
X127077182Y-80352901D01*
X126941944Y-80326000D01*
X126804056Y-80326000D01*
X126668818Y-80352901D01*
X126541426Y-80405668D01*
X126426776Y-80482274D01*
X126329274Y-80579776D01*
X126252668Y-80694426D01*
X126199901Y-80821818D01*
X126173000Y-80957056D01*
X126173000Y-81094944D01*
X126199901Y-81230182D01*
X126252668Y-81357574D01*
X126319000Y-81456848D01*
X126319001Y-83919786D01*
X126316321Y-83947000D01*
X126327016Y-84055603D01*
X126351861Y-84137500D01*
X126358696Y-84160032D01*
X126410138Y-84256275D01*
X126479369Y-84340632D01*
X126500506Y-84357979D01*
X129891021Y-87748495D01*
X129908368Y-87769632D01*
X129992725Y-87838863D01*
X130088968Y-87890305D01*
X130193397Y-87921984D01*
X130274788Y-87930000D01*
X130274797Y-87930000D01*
X130301999Y-87932679D01*
X130329201Y-87930000D01*
X131925796Y-87930000D01*
X131953000Y-87932679D01*
X131980204Y-87930000D01*
X131980212Y-87930000D01*
X132061603Y-87921984D01*
X132166032Y-87890305D01*
X132262275Y-87838863D01*
X132346632Y-87769632D01*
X132363983Y-87748490D01*
X134087475Y-86025000D01*
X139412981Y-86025000D01*
X139440185Y-86027679D01*
X139467387Y-86025000D01*
X139467397Y-86025000D01*
X139548788Y-86016984D01*
X139653217Y-85985305D01*
X139749460Y-85933863D01*
X139833817Y-85864632D01*
X139851168Y-85843490D01*
X141851237Y-83843421D01*
X141873668Y-83897574D01*
X141950274Y-84012224D01*
X142047776Y-84109726D01*
X142162426Y-84186332D01*
X142289818Y-84239099D01*
X142425056Y-84266000D01*
X142562944Y-84266000D01*
X142698182Y-84239099D01*
X142825574Y-84186332D01*
X142940224Y-84109726D01*
X143037726Y-84012224D01*
X143114332Y-83897574D01*
X143167099Y-83770182D01*
X143194000Y-83634944D01*
X143194000Y-83497056D01*
X143167099Y-83361818D01*
X143114332Y-83234426D01*
X143037726Y-83119776D01*
X142940224Y-83022274D01*
X142825574Y-82945668D01*
X142771421Y-82923237D01*
X142993495Y-82701164D01*
X143014632Y-82683817D01*
X143083863Y-82599460D01*
X143135305Y-82503217D01*
X143166984Y-82398788D01*
X143175000Y-82317397D01*
X143175000Y-82317390D01*
X143177679Y-82290186D01*
X143175000Y-82262982D01*
X143175000Y-73660000D01*
X143588321Y-73660000D01*
X143591000Y-73687204D01*
X143591001Y-86586786D01*
X143588321Y-86614000D01*
X143599016Y-86722603D01*
X143630696Y-86827032D01*
X143682138Y-86923275D01*
X143751369Y-87007632D01*
X143772506Y-87024979D01*
X145988608Y-89241082D01*
X146011901Y-89358182D01*
X146064668Y-89485574D01*
X146141274Y-89600224D01*
X146238776Y-89697726D01*
X146353426Y-89774332D01*
X146480818Y-89827099D01*
X146616056Y-89854000D01*
X146753944Y-89854000D01*
X146889182Y-89827099D01*
X147016574Y-89774332D01*
X147131224Y-89697726D01*
X147228726Y-89600224D01*
X147305332Y-89485574D01*
X147358099Y-89358182D01*
X147385000Y-89222944D01*
X147385000Y-89085056D01*
X147358099Y-88949818D01*
X147305332Y-88822426D01*
X147228726Y-88707776D01*
X147131224Y-88610274D01*
X147016574Y-88533668D01*
X146889182Y-88480901D01*
X146772082Y-88457608D01*
X144699000Y-86384527D01*
X144699000Y-79687056D01*
X158812000Y-79687056D01*
X158812000Y-79824944D01*
X158838901Y-79960182D01*
X158891668Y-80087574D01*
X158958000Y-80186848D01*
X158958001Y-83135205D01*
X158891668Y-83234480D01*
X158838901Y-83361872D01*
X158812000Y-83497110D01*
X158812000Y-83634998D01*
X158838901Y-83770236D01*
X158891668Y-83897628D01*
X158968274Y-84012278D01*
X159065776Y-84109780D01*
X159180426Y-84186386D01*
X159307818Y-84239153D01*
X159443056Y-84266054D01*
X159580944Y-84266054D01*
X159716182Y-84239153D01*
X159843574Y-84186386D01*
X159958224Y-84109780D01*
X160055726Y-84012278D01*
X160132332Y-83897628D01*
X160185099Y-83770236D01*
X160212000Y-83634998D01*
X160212000Y-83497110D01*
X160185099Y-83361872D01*
X160132332Y-83234480D01*
X160066000Y-83135206D01*
X160066000Y-80186848D01*
X160132332Y-80087574D01*
X160185099Y-79960182D01*
X160212000Y-79824944D01*
X160212000Y-79687056D01*
X160185099Y-79551818D01*
X160132332Y-79424426D01*
X160055726Y-79309776D01*
X159958224Y-79212274D01*
X159843574Y-79135668D01*
X159716182Y-79082901D01*
X159580944Y-79056000D01*
X159443056Y-79056000D01*
X159307818Y-79082901D01*
X159180426Y-79135668D01*
X159065776Y-79212274D01*
X158968274Y-79309776D01*
X158891668Y-79424426D01*
X158838901Y-79551818D01*
X158812000Y-79687056D01*
X144699000Y-79687056D01*
X144699000Y-78417056D01*
X166432000Y-78417056D01*
X166432000Y-78554944D01*
X166458901Y-78690182D01*
X166511668Y-78817574D01*
X166588274Y-78932224D01*
X166685776Y-79029726D01*
X166800426Y-79106332D01*
X166927818Y-79159099D01*
X167063056Y-79186000D01*
X167200944Y-79186000D01*
X167336182Y-79159099D01*
X167463574Y-79106332D01*
X167562848Y-79040000D01*
X171982527Y-79040000D01*
X173109504Y-80166978D01*
X173109510Y-80166983D01*
X175833608Y-82891082D01*
X175856901Y-83008182D01*
X175909668Y-83135574D01*
X175986274Y-83250224D01*
X176083776Y-83347726D01*
X176198426Y-83424332D01*
X176325818Y-83477099D01*
X176461056Y-83504000D01*
X176598944Y-83504000D01*
X176734182Y-83477099D01*
X176861574Y-83424332D01*
X176976224Y-83347726D01*
X177073726Y-83250224D01*
X177150332Y-83135574D01*
X177203099Y-83008182D01*
X177230000Y-82872944D01*
X177230000Y-82735056D01*
X177203099Y-82599818D01*
X177150332Y-82472426D01*
X177073726Y-82357776D01*
X176976224Y-82260274D01*
X176861574Y-82183668D01*
X176734182Y-82130901D01*
X176617082Y-82107608D01*
X173892983Y-79383510D01*
X173892978Y-79383504D01*
X172622983Y-78113510D01*
X172605632Y-78092368D01*
X172521275Y-78023137D01*
X172425032Y-77971695D01*
X172320603Y-77940016D01*
X172239212Y-77932000D01*
X172239204Y-77932000D01*
X172212000Y-77929321D01*
X172184796Y-77932000D01*
X167562848Y-77932000D01*
X167463574Y-77865668D01*
X167336182Y-77812901D01*
X167200944Y-77786000D01*
X167063056Y-77786000D01*
X166927818Y-77812901D01*
X166800426Y-77865668D01*
X166685776Y-77942274D01*
X166588274Y-78039776D01*
X166511668Y-78154426D01*
X166458901Y-78281818D01*
X166432000Y-78417056D01*
X144699000Y-78417056D01*
X144699000Y-77564444D01*
X175110000Y-77564444D01*
X175110000Y-77883556D01*
X175172256Y-78196536D01*
X175294375Y-78491358D01*
X175471664Y-78756689D01*
X175697311Y-78982336D01*
X175962642Y-79159625D01*
X176257464Y-79281744D01*
X176570444Y-79344000D01*
X176889556Y-79344000D01*
X177202536Y-79281744D01*
X177497358Y-79159625D01*
X177762689Y-78982336D01*
X177988336Y-78756689D01*
X178165625Y-78491358D01*
X178287744Y-78196536D01*
X178350000Y-77883556D01*
X178350000Y-77564444D01*
X178287744Y-77251464D01*
X178165625Y-76956642D01*
X177988336Y-76691311D01*
X177762689Y-76465664D01*
X177497358Y-76288375D01*
X177202536Y-76166256D01*
X176889556Y-76104000D01*
X176570444Y-76104000D01*
X176257464Y-76166256D01*
X175962642Y-76288375D01*
X175697311Y-76465664D01*
X175471664Y-76691311D01*
X175294375Y-76956642D01*
X175172256Y-77251464D01*
X175110000Y-77564444D01*
X144699000Y-77564444D01*
X144699000Y-73889473D01*
X144971908Y-73616565D01*
X144995901Y-73737182D01*
X145048668Y-73864574D01*
X145125274Y-73979224D01*
X145222776Y-74076726D01*
X145242000Y-74089571D01*
X145242001Y-74931589D01*
X145210426Y-74944668D01*
X145095776Y-75021274D01*
X144998274Y-75118776D01*
X144921668Y-75233426D01*
X144868901Y-75360818D01*
X144842000Y-75496056D01*
X144842000Y-75633944D01*
X144868901Y-75769182D01*
X144921668Y-75896574D01*
X144998274Y-76011224D01*
X145095776Y-76108726D01*
X145210426Y-76185332D01*
X145337818Y-76238099D01*
X145473056Y-76265000D01*
X145610944Y-76265000D01*
X145746182Y-76238099D01*
X145873574Y-76185332D01*
X145988224Y-76108726D01*
X146085726Y-76011224D01*
X146113500Y-75969657D01*
X146141274Y-76011224D01*
X146238776Y-76108726D01*
X146353426Y-76185332D01*
X146480818Y-76238099D01*
X146616056Y-76265000D01*
X146753944Y-76265000D01*
X146889182Y-76238099D01*
X147016574Y-76185332D01*
X147131224Y-76108726D01*
X147228726Y-76011224D01*
X147305332Y-75896574D01*
X147313416Y-75877056D01*
X150556990Y-75877056D01*
X150556990Y-76014944D01*
X150583891Y-76150182D01*
X150636658Y-76277574D01*
X150713264Y-76392224D01*
X150810766Y-76489726D01*
X150925416Y-76566332D01*
X151052808Y-76619099D01*
X151188046Y-76646000D01*
X151325934Y-76646000D01*
X151461172Y-76619099D01*
X151588564Y-76566332D01*
X151703214Y-76489726D01*
X151800716Y-76392224D01*
X151839869Y-76333627D01*
X151853903Y-76404182D01*
X151906670Y-76531574D01*
X151983276Y-76646224D01*
X152080778Y-76743726D01*
X152195428Y-76820332D01*
X152322820Y-76873099D01*
X152458058Y-76900000D01*
X152595946Y-76900000D01*
X152731184Y-76873099D01*
X152858576Y-76820332D01*
X152973226Y-76743726D01*
X153070728Y-76646224D01*
X153147334Y-76531574D01*
X153200101Y-76404182D01*
X153203905Y-76385056D01*
X153351000Y-76385056D01*
X153351000Y-76522944D01*
X153377901Y-76658182D01*
X153430668Y-76785574D01*
X153507274Y-76900224D01*
X153604776Y-76997726D01*
X153719426Y-77074332D01*
X153846818Y-77127099D01*
X153982056Y-77154000D01*
X154119944Y-77154000D01*
X154255182Y-77127099D01*
X154382574Y-77074332D01*
X154497224Y-76997726D01*
X154594726Y-76900224D01*
X154671332Y-76785574D01*
X154686000Y-76750162D01*
X154700668Y-76785574D01*
X154777274Y-76900224D01*
X154874776Y-76997726D01*
X154989426Y-77074332D01*
X155116818Y-77127099D01*
X155252056Y-77154000D01*
X155389944Y-77154000D01*
X155525182Y-77127099D01*
X155652574Y-77074332D01*
X155767224Y-76997726D01*
X155864726Y-76900224D01*
X155941332Y-76785574D01*
X155994099Y-76658182D01*
X156021000Y-76522944D01*
X156021000Y-76385056D01*
X156145000Y-76385056D01*
X156145000Y-76522944D01*
X156171901Y-76658182D01*
X156224668Y-76785574D01*
X156301274Y-76900224D01*
X156398776Y-76997726D01*
X156513426Y-77074332D01*
X156640818Y-77127099D01*
X156776056Y-77154000D01*
X156913944Y-77154000D01*
X157049182Y-77127099D01*
X157176574Y-77074332D01*
X157291224Y-76997726D01*
X157388726Y-76900224D01*
X157465332Y-76785574D01*
X157518099Y-76658182D01*
X157545000Y-76522944D01*
X157545000Y-76435358D01*
X173150000Y-76435358D01*
X173150000Y-76612642D01*
X173184586Y-76786520D01*
X173252430Y-76950310D01*
X173350924Y-77097717D01*
X173476283Y-77223076D01*
X173623690Y-77321570D01*
X173787480Y-77389414D01*
X173961358Y-77424000D01*
X174138642Y-77424000D01*
X174312520Y-77389414D01*
X174476310Y-77321570D01*
X174623717Y-77223076D01*
X174749076Y-77097717D01*
X174847570Y-76950310D01*
X174915414Y-76786520D01*
X174950000Y-76612642D01*
X174950000Y-76435358D01*
X174915414Y-76261480D01*
X174847570Y-76097690D01*
X174749076Y-75950283D01*
X174623717Y-75824924D01*
X174476310Y-75726430D01*
X174312520Y-75658586D01*
X174138642Y-75624000D01*
X173961358Y-75624000D01*
X173787480Y-75658586D01*
X173623690Y-75726430D01*
X173476283Y-75824924D01*
X173350924Y-75950283D01*
X173252430Y-76097690D01*
X173184586Y-76261480D01*
X173150000Y-76435358D01*
X157545000Y-76435358D01*
X157545000Y-76385056D01*
X157518099Y-76249818D01*
X157465332Y-76122426D01*
X157388726Y-76007776D01*
X157291224Y-75910274D01*
X157272006Y-75897433D01*
X157272006Y-73200571D01*
X157291230Y-73187726D01*
X157388732Y-73090224D01*
X157465338Y-72975574D01*
X157518105Y-72848182D01*
X157545006Y-72712944D01*
X157545006Y-72575056D01*
X157518105Y-72439818D01*
X157465338Y-72312426D01*
X157388732Y-72197776D01*
X157291230Y-72100274D01*
X157176580Y-72023668D01*
X157049188Y-71970901D01*
X156913950Y-71944000D01*
X156776062Y-71944000D01*
X156640824Y-71970901D01*
X156513432Y-72023668D01*
X156398782Y-72100274D01*
X156301280Y-72197776D01*
X156224674Y-72312426D01*
X156171907Y-72439818D01*
X156145006Y-72575056D01*
X156145006Y-72712944D01*
X156171907Y-72848182D01*
X156224674Y-72975574D01*
X156301280Y-73090224D01*
X156398782Y-73187726D01*
X156418006Y-73200571D01*
X156418007Y-75897424D01*
X156398776Y-75910274D01*
X156301274Y-76007776D01*
X156224668Y-76122426D01*
X156171901Y-76249818D01*
X156145000Y-76385056D01*
X156021000Y-76385056D01*
X155994099Y-76249818D01*
X155941332Y-76122426D01*
X155864726Y-76007776D01*
X155767224Y-75910274D01*
X155748000Y-75897429D01*
X155748000Y-73200571D01*
X155767224Y-73187726D01*
X155864726Y-73090224D01*
X155941332Y-72975574D01*
X155994099Y-72848182D01*
X156021000Y-72712944D01*
X156021000Y-72575056D01*
X155994099Y-72439818D01*
X155941332Y-72312426D01*
X155864726Y-72197776D01*
X155767224Y-72100274D01*
X155652574Y-72023668D01*
X155525182Y-71970901D01*
X155389944Y-71944000D01*
X155252056Y-71944000D01*
X155116818Y-71970901D01*
X154989426Y-72023668D01*
X154874776Y-72100274D01*
X154777274Y-72197776D01*
X154700668Y-72312426D01*
X154686002Y-72347833D01*
X154671336Y-72312426D01*
X154594730Y-72197776D01*
X154497228Y-72100274D01*
X154382578Y-72023668D01*
X154255186Y-71970901D01*
X154119948Y-71944000D01*
X153982060Y-71944000D01*
X153846822Y-71970901D01*
X153719430Y-72023668D01*
X153604780Y-72100274D01*
X153507278Y-72197776D01*
X153430672Y-72312426D01*
X153377905Y-72439818D01*
X153351004Y-72575056D01*
X153351004Y-72712944D01*
X153377905Y-72848182D01*
X153430672Y-72975574D01*
X153507278Y-73090224D01*
X153604780Y-73187726D01*
X153624004Y-73200571D01*
X153624005Y-75897426D01*
X153604776Y-75910274D01*
X153507274Y-76007776D01*
X153430668Y-76122426D01*
X153377901Y-76249818D01*
X153351000Y-76385056D01*
X153203905Y-76385056D01*
X153227002Y-76268944D01*
X153227002Y-76131056D01*
X153200101Y-75995818D01*
X153147334Y-75868426D01*
X153070728Y-75753776D01*
X152973226Y-75656274D01*
X152954000Y-75643428D01*
X152954000Y-73200571D01*
X152973224Y-73187726D01*
X153070726Y-73090224D01*
X153147332Y-72975574D01*
X153200099Y-72848182D01*
X153227000Y-72712944D01*
X153227000Y-72575056D01*
X153200099Y-72439818D01*
X153147332Y-72312426D01*
X153070726Y-72197776D01*
X152973224Y-72100274D01*
X152858574Y-72023668D01*
X152731182Y-71970901D01*
X152595944Y-71944000D01*
X152458056Y-71944000D01*
X152322818Y-71970901D01*
X152195426Y-72023668D01*
X152080776Y-72100274D01*
X151983274Y-72197776D01*
X151906668Y-72312426D01*
X151892000Y-72347838D01*
X151877332Y-72312426D01*
X151800726Y-72197776D01*
X151703224Y-72100274D01*
X151588574Y-72023668D01*
X151461182Y-71970901D01*
X151325944Y-71944000D01*
X151188056Y-71944000D01*
X151052818Y-71970901D01*
X150925426Y-72023668D01*
X150810776Y-72100274D01*
X150713274Y-72197776D01*
X150636668Y-72312426D01*
X150583901Y-72439818D01*
X150557000Y-72575056D01*
X150557000Y-72712944D01*
X150583901Y-72848182D01*
X150636668Y-72975574D01*
X150713274Y-73090224D01*
X150810776Y-73187726D01*
X150830000Y-73200571D01*
X150830001Y-75389422D01*
X150810766Y-75402274D01*
X150713264Y-75499776D01*
X150636658Y-75614426D01*
X150583891Y-75741818D01*
X150556990Y-75877056D01*
X147313416Y-75877056D01*
X147358099Y-75769182D01*
X147385000Y-75633944D01*
X147385000Y-75496056D01*
X147358099Y-75360818D01*
X147305332Y-75233426D01*
X147228726Y-75118776D01*
X147131224Y-75021274D01*
X147112000Y-75008429D01*
X147112000Y-73344000D01*
X147134944Y-73344000D01*
X147270182Y-73317099D01*
X147397574Y-73264332D01*
X147512224Y-73187726D01*
X147609726Y-73090224D01*
X147686332Y-72975574D01*
X147739099Y-72848182D01*
X147766000Y-72712944D01*
X147766000Y-72575056D01*
X147739099Y-72439818D01*
X147686332Y-72312426D01*
X147609726Y-72197776D01*
X147512224Y-72100274D01*
X147397574Y-72023668D01*
X147270182Y-71970901D01*
X147134944Y-71944000D01*
X146997056Y-71944000D01*
X146861818Y-71970901D01*
X146734426Y-72023668D01*
X146619776Y-72100274D01*
X146522274Y-72197776D01*
X146445668Y-72312426D01*
X146392901Y-72439818D01*
X146366000Y-72575056D01*
X146366000Y-72712944D01*
X146370431Y-72735221D01*
X146368237Y-72737895D01*
X146368232Y-72737900D01*
X146328245Y-72786624D01*
X146295133Y-72848574D01*
X146288596Y-72860804D01*
X146264179Y-72941293D01*
X146258767Y-72996247D01*
X146255935Y-73025000D01*
X146258001Y-73045977D01*
X146258001Y-73154535D01*
X146212726Y-73086776D01*
X146115224Y-72989274D01*
X146000574Y-72912668D01*
X145873182Y-72859901D01*
X145752565Y-72835908D01*
X146079978Y-72508496D01*
X146079982Y-72508491D01*
X146714979Y-71873496D01*
X146714988Y-71873485D01*
X146772081Y-71816392D01*
X146889182Y-71793099D01*
X147016574Y-71740332D01*
X147131224Y-71663726D01*
X147209592Y-71585358D01*
X173150000Y-71585358D01*
X173150000Y-71762642D01*
X173184586Y-71936520D01*
X173252430Y-72100310D01*
X173350924Y-72247717D01*
X173476283Y-72373076D01*
X173623690Y-72471570D01*
X173787480Y-72539414D01*
X173961358Y-72574000D01*
X174138642Y-72574000D01*
X174312520Y-72539414D01*
X174476310Y-72471570D01*
X174623717Y-72373076D01*
X174749076Y-72247717D01*
X174847570Y-72100310D01*
X174915414Y-71936520D01*
X174950000Y-71762642D01*
X174950000Y-71585358D01*
X174915414Y-71411480D01*
X174847570Y-71247690D01*
X174749076Y-71100283D01*
X174623717Y-70974924D01*
X174476310Y-70876430D01*
X174312520Y-70808586D01*
X174138642Y-70774000D01*
X173961358Y-70774000D01*
X173787480Y-70808586D01*
X173623690Y-70876430D01*
X173476283Y-70974924D01*
X173350924Y-71100283D01*
X173252430Y-71247690D01*
X173184586Y-71411480D01*
X173150000Y-71585358D01*
X147209592Y-71585358D01*
X147228726Y-71566224D01*
X147305332Y-71451574D01*
X147358099Y-71324182D01*
X147385000Y-71188944D01*
X147385000Y-71051056D01*
X147358099Y-70915818D01*
X147305332Y-70788426D01*
X147228726Y-70673776D01*
X147131224Y-70576274D01*
X147016574Y-70499668D01*
X146889182Y-70446901D01*
X146753944Y-70420000D01*
X146616056Y-70420000D01*
X146480818Y-70446901D01*
X146353426Y-70499668D01*
X146238776Y-70576274D01*
X146141274Y-70673776D01*
X146064668Y-70788426D01*
X146011901Y-70915818D01*
X145988608Y-71032919D01*
X145931515Y-71090012D01*
X145931504Y-71090021D01*
X145296509Y-71725018D01*
X145296504Y-71725022D01*
X143772510Y-73249017D01*
X143751368Y-73266368D01*
X143682137Y-73350725D01*
X143630695Y-73446969D01*
X143599016Y-73551398D01*
X143591000Y-73632789D01*
X143591000Y-73632796D01*
X143588321Y-73660000D01*
X143175000Y-73660000D01*
X143175000Y-73381473D01*
X146242029Y-70314444D01*
X175110000Y-70314444D01*
X175110000Y-70633556D01*
X175172256Y-70946536D01*
X175294375Y-71241358D01*
X175471664Y-71506689D01*
X175697311Y-71732336D01*
X175962642Y-71909625D01*
X176257464Y-72031744D01*
X176570444Y-72094000D01*
X176889556Y-72094000D01*
X177202536Y-72031744D01*
X177497358Y-71909625D01*
X177762689Y-71732336D01*
X177988336Y-71506689D01*
X178165625Y-71241358D01*
X178287744Y-70946536D01*
X178350000Y-70633556D01*
X178350000Y-70314444D01*
X178287744Y-70001464D01*
X178165625Y-69706642D01*
X177988336Y-69441311D01*
X177762689Y-69215664D01*
X177497358Y-69038375D01*
X177202536Y-68916256D01*
X176889556Y-68854000D01*
X176570444Y-68854000D01*
X176257464Y-68916256D01*
X175962642Y-69038375D01*
X175697311Y-69215664D01*
X175471664Y-69441311D01*
X175294375Y-69706642D01*
X175172256Y-70001464D01*
X175110000Y-70314444D01*
X146242029Y-70314444D01*
X151248495Y-65307979D01*
X151269632Y-65290632D01*
X151338863Y-65206275D01*
X151390305Y-65110032D01*
X151421984Y-65005603D01*
X151430000Y-64924212D01*
X151430000Y-64924204D01*
X151432679Y-64897000D01*
X151430000Y-64869796D01*
X151430000Y-60092612D01*
X151474065Y-60209300D01*
X151625264Y-60451852D01*
X151820878Y-60660246D01*
X152053389Y-60826473D01*
X152313861Y-60944146D01*
X152402090Y-60970903D01*
X152626998Y-60859890D01*
X152626998Y-60961103D01*
X152445557Y-60997194D01*
X152236271Y-61083884D01*
X152047918Y-61209737D01*
X151887737Y-61369918D01*
X151761884Y-61558271D01*
X151675194Y-61767557D01*
X151631000Y-61989735D01*
X151631000Y-62216265D01*
X151675194Y-62438443D01*
X151761884Y-62647729D01*
X151887737Y-62836082D01*
X152047918Y-62996263D01*
X152236271Y-63122116D01*
X152445557Y-63208806D01*
X152667735Y-63253000D01*
X152894265Y-63253000D01*
X153116443Y-63208806D01*
X153325729Y-63122116D01*
X153514082Y-62996263D01*
X153674263Y-62836082D01*
X153800116Y-62647729D01*
X153886806Y-62438443D01*
X153931000Y-62216265D01*
X153931000Y-61989735D01*
X154171000Y-61989735D01*
X154171000Y-62216265D01*
X154215194Y-62438443D01*
X154301884Y-62647729D01*
X154427737Y-62836082D01*
X154587918Y-62996263D01*
X154776271Y-63122116D01*
X154985557Y-63208806D01*
X155207735Y-63253000D01*
X155434265Y-63253000D01*
X155656443Y-63208806D01*
X155865729Y-63122116D01*
X156054082Y-62996263D01*
X156214263Y-62836082D01*
X156340116Y-62647729D01*
X156426806Y-62438443D01*
X156471000Y-62216265D01*
X156471000Y-61989735D01*
X156711000Y-61989735D01*
X156711000Y-62216265D01*
X156755194Y-62438443D01*
X156841884Y-62647729D01*
X156967737Y-62836082D01*
X157127918Y-62996263D01*
X157316271Y-63122116D01*
X157525557Y-63208806D01*
X157747735Y-63253000D01*
X157974265Y-63253000D01*
X158196443Y-63208806D01*
X158405729Y-63122116D01*
X158594082Y-62996263D01*
X158754263Y-62836082D01*
X158880116Y-62647729D01*
X158966806Y-62438443D01*
X159011000Y-62216265D01*
X159011000Y-61989735D01*
X159251000Y-61989735D01*
X159251000Y-62216265D01*
X159295194Y-62438443D01*
X159381884Y-62647729D01*
X159507737Y-62836082D01*
X159667918Y-62996263D01*
X159856271Y-63122116D01*
X160065557Y-63208806D01*
X160287735Y-63253000D01*
X160514265Y-63253000D01*
X160736443Y-63208806D01*
X160945729Y-63122116D01*
X161134082Y-62996263D01*
X161294263Y-62836082D01*
X161420116Y-62647729D01*
X161506806Y-62438443D01*
X161551000Y-62216265D01*
X161551000Y-61989735D01*
X161506806Y-61767557D01*
X161420116Y-61558271D01*
X161294263Y-61369918D01*
X161134082Y-61209737D01*
X160945729Y-61083884D01*
X160736443Y-60997194D01*
X160514265Y-60953000D01*
X160287735Y-60953000D01*
X160065557Y-60997194D01*
X159856271Y-61083884D01*
X159667918Y-61209737D01*
X159507737Y-61369918D01*
X159381884Y-61558271D01*
X159295194Y-61767557D01*
X159251000Y-61989735D01*
X159011000Y-61989735D01*
X158966806Y-61767557D01*
X158880116Y-61558271D01*
X158754263Y-61369918D01*
X158594082Y-61209737D01*
X158405729Y-61083884D01*
X158196443Y-60997194D01*
X157974265Y-60953000D01*
X157747735Y-60953000D01*
X157525557Y-60997194D01*
X157316271Y-61083884D01*
X157127918Y-61209737D01*
X156967737Y-61369918D01*
X156841884Y-61558271D01*
X156755194Y-61767557D01*
X156711000Y-61989735D01*
X156471000Y-61989735D01*
X156426806Y-61767557D01*
X156340116Y-61558271D01*
X156214263Y-61369918D01*
X156054082Y-61209737D01*
X155865729Y-61083884D01*
X155656443Y-60997194D01*
X155434265Y-60953000D01*
X155207735Y-60953000D01*
X154985557Y-60997194D01*
X154776271Y-61083884D01*
X154587918Y-61209737D01*
X154427737Y-61369918D01*
X154301884Y-61558271D01*
X154215194Y-61767557D01*
X154171000Y-61989735D01*
X153931000Y-61989735D01*
X153886806Y-61767557D01*
X153800116Y-61558271D01*
X153674263Y-61369918D01*
X153514082Y-61209737D01*
X153325729Y-61083884D01*
X153116443Y-60997194D01*
X152935002Y-60961103D01*
X152935002Y-60859890D01*
X153159910Y-60970903D01*
X153248139Y-60944146D01*
X153508611Y-60826473D01*
X153741122Y-60660246D01*
X153936736Y-60451852D01*
X154087935Y-60209300D01*
X154188909Y-59941911D01*
X154078851Y-59717002D01*
X154179103Y-59717002D01*
X154215194Y-59898443D01*
X154301884Y-60107729D01*
X154427737Y-60296082D01*
X154587918Y-60456263D01*
X154776271Y-60582116D01*
X154985557Y-60668806D01*
X155207735Y-60713000D01*
X155434265Y-60713000D01*
X155656443Y-60668806D01*
X155865729Y-60582116D01*
X156054082Y-60456263D01*
X156214263Y-60296082D01*
X156340116Y-60107729D01*
X156426806Y-59898443D01*
X156471000Y-59676265D01*
X156471000Y-59449735D01*
X156711000Y-59449735D01*
X156711000Y-59676265D01*
X156755194Y-59898443D01*
X156841884Y-60107729D01*
X156967737Y-60296082D01*
X157127918Y-60456263D01*
X157316271Y-60582116D01*
X157525557Y-60668806D01*
X157747735Y-60713000D01*
X157974265Y-60713000D01*
X158196443Y-60668806D01*
X158405729Y-60582116D01*
X158594082Y-60456263D01*
X158754263Y-60296082D01*
X158880116Y-60107729D01*
X158966806Y-59898443D01*
X159011000Y-59676265D01*
X159011000Y-59449735D01*
X158966806Y-59227557D01*
X158880116Y-59018271D01*
X158754263Y-58829918D01*
X158637345Y-58713000D01*
X159249549Y-58713000D01*
X159249549Y-60413000D01*
X159255341Y-60471810D01*
X159272496Y-60528360D01*
X159300353Y-60580477D01*
X159337842Y-60626158D01*
X159383523Y-60663647D01*
X159435640Y-60691504D01*
X159492190Y-60708659D01*
X159551000Y-60714451D01*
X161251000Y-60714451D01*
X161309810Y-60708659D01*
X161366360Y-60691504D01*
X161418477Y-60663647D01*
X161464158Y-60626158D01*
X161501647Y-60580477D01*
X161529504Y-60528360D01*
X161546659Y-60471810D01*
X161552451Y-60413000D01*
X161552451Y-58713000D01*
X161546659Y-58654190D01*
X161529504Y-58597640D01*
X161501647Y-58545523D01*
X161464158Y-58499842D01*
X161418477Y-58462353D01*
X161366360Y-58434496D01*
X161309810Y-58417341D01*
X161251000Y-58411549D01*
X159551000Y-58411549D01*
X159492190Y-58417341D01*
X159435640Y-58434496D01*
X159383523Y-58462353D01*
X159337842Y-58499842D01*
X159300353Y-58545523D01*
X159272496Y-58597640D01*
X159255341Y-58654190D01*
X159249549Y-58713000D01*
X158637345Y-58713000D01*
X158594082Y-58669737D01*
X158405729Y-58543884D01*
X158196443Y-58457194D01*
X157974265Y-58413000D01*
X157747735Y-58413000D01*
X157525557Y-58457194D01*
X157316271Y-58543884D01*
X157127918Y-58669737D01*
X156967737Y-58829918D01*
X156841884Y-59018271D01*
X156755194Y-59227557D01*
X156711000Y-59449735D01*
X156471000Y-59449735D01*
X156426806Y-59227557D01*
X156340116Y-59018271D01*
X156214263Y-58829918D01*
X156054082Y-58669737D01*
X155865729Y-58543884D01*
X155656443Y-58457194D01*
X155434265Y-58413000D01*
X155207735Y-58413000D01*
X154996492Y-58455019D01*
X154881983Y-58340510D01*
X154881979Y-58340505D01*
X154299473Y-57758000D01*
X179478000Y-57758000D01*
X179478000Y-114454000D01*
X100176000Y-114454000D01*
X100176000Y-106002578D01*
X101257000Y-106002578D01*
X101276317Y-106198705D01*
X101352653Y-106450353D01*
X101476618Y-106682274D01*
X101643445Y-106885555D01*
X101846725Y-107052382D01*
X102078646Y-107176347D01*
X102330294Y-107252683D01*
X102592000Y-107278459D01*
X102853705Y-107252683D01*
X103105353Y-107176347D01*
X103337274Y-107052382D01*
X103540555Y-106885555D01*
X103707382Y-106682275D01*
X103831347Y-106450354D01*
X103907683Y-106198706D01*
X103927000Y-106002579D01*
X103927000Y-104714866D01*
X109482000Y-104714866D01*
X109482000Y-105089134D01*
X109555016Y-105456209D01*
X109698242Y-105801987D01*
X109906174Y-106113179D01*
X110170821Y-106377826D01*
X110482013Y-106585758D01*
X110827791Y-106728984D01*
X111194866Y-106802000D01*
X111569134Y-106802000D01*
X111936209Y-106728984D01*
X112281987Y-106585758D01*
X112593179Y-106377826D01*
X112857826Y-106113179D01*
X113065758Y-105801987D01*
X113208984Y-105456209D01*
X113282000Y-105089134D01*
X113282000Y-104714866D01*
X165097000Y-104714866D01*
X165097000Y-105089134D01*
X165170016Y-105456209D01*
X165313242Y-105801987D01*
X165521174Y-106113179D01*
X165785821Y-106377826D01*
X166097013Y-106585758D01*
X166442791Y-106728984D01*
X166809866Y-106802000D01*
X167184134Y-106802000D01*
X167551209Y-106728984D01*
X167896987Y-106585758D01*
X168208179Y-106377826D01*
X168472826Y-106113179D01*
X168546727Y-106002578D01*
X174157000Y-106002578D01*
X174176317Y-106198705D01*
X174252653Y-106450353D01*
X174376618Y-106682274D01*
X174543445Y-106885555D01*
X174746725Y-107052382D01*
X174978646Y-107176347D01*
X175230294Y-107252683D01*
X175492000Y-107278459D01*
X175753705Y-107252683D01*
X176005353Y-107176347D01*
X176237274Y-107052382D01*
X176440555Y-106885555D01*
X176607382Y-106682275D01*
X176731347Y-106450354D01*
X176807683Y-106198706D01*
X176827000Y-106002579D01*
X176827000Y-103801421D01*
X176807683Y-103605294D01*
X176731347Y-103353646D01*
X176607382Y-103121725D01*
X176440555Y-102918445D01*
X176237275Y-102751618D01*
X176005354Y-102627653D01*
X175753706Y-102551317D01*
X175492000Y-102525541D01*
X175230295Y-102551317D01*
X174978647Y-102627653D01*
X174746726Y-102751618D01*
X174543446Y-102918445D01*
X174376619Y-103121725D01*
X174252654Y-103353646D01*
X174176318Y-103605294D01*
X174157001Y-103801421D01*
X174157000Y-106002578D01*
X168546727Y-106002578D01*
X168680758Y-105801987D01*
X168823984Y-105456209D01*
X168897000Y-105089134D01*
X168897000Y-104714866D01*
X168823984Y-104347791D01*
X168680758Y-104002013D01*
X168472826Y-103690821D01*
X168208179Y-103426174D01*
X167896987Y-103218242D01*
X167551209Y-103075016D01*
X167184134Y-103002000D01*
X166809866Y-103002000D01*
X166442791Y-103075016D01*
X166097013Y-103218242D01*
X165785821Y-103426174D01*
X165521174Y-103690821D01*
X165313242Y-104002013D01*
X165170016Y-104347791D01*
X165097000Y-104714866D01*
X113282000Y-104714866D01*
X113208984Y-104347791D01*
X113065758Y-104002013D01*
X112857826Y-103690821D01*
X112593179Y-103426174D01*
X112281987Y-103218242D01*
X111936209Y-103075016D01*
X111569134Y-103002000D01*
X111194866Y-103002000D01*
X110827791Y-103075016D01*
X110482013Y-103218242D01*
X110170821Y-103426174D01*
X109906174Y-103690821D01*
X109698242Y-104002013D01*
X109555016Y-104347791D01*
X109482000Y-104714866D01*
X103927000Y-104714866D01*
X103927000Y-103801421D01*
X103907683Y-103605294D01*
X103831347Y-103353646D01*
X103707382Y-103121725D01*
X103540555Y-102918445D01*
X103337275Y-102751618D01*
X103105354Y-102627653D01*
X102853706Y-102551317D01*
X102592000Y-102525541D01*
X102330295Y-102551317D01*
X102078647Y-102627653D01*
X101846726Y-102751618D01*
X101643446Y-102918445D01*
X101476619Y-103121725D01*
X101352654Y-103353646D01*
X101276318Y-103605294D01*
X101257001Y-103801421D01*
X101257000Y-106002578D01*
X100176000Y-106002578D01*
X100176000Y-91879056D01*
X162114000Y-91879056D01*
X162114000Y-92016944D01*
X162140901Y-92152182D01*
X162193668Y-92279574D01*
X162270274Y-92394224D01*
X162367776Y-92491726D01*
X162482426Y-92568332D01*
X162609818Y-92621099D01*
X162745056Y-92648000D01*
X162882944Y-92648000D01*
X163018182Y-92621099D01*
X163145574Y-92568332D01*
X163244848Y-92502000D01*
X166447152Y-92502000D01*
X166546426Y-92568332D01*
X166673818Y-92621099D01*
X166809056Y-92648000D01*
X166946944Y-92648000D01*
X167082182Y-92621099D01*
X167209574Y-92568332D01*
X167324224Y-92491726D01*
X167421726Y-92394224D01*
X167498332Y-92279574D01*
X167551099Y-92152182D01*
X167578000Y-92016944D01*
X167578000Y-91879056D01*
X167551099Y-91743818D01*
X167498332Y-91616426D01*
X167421726Y-91501776D01*
X167324224Y-91404274D01*
X167209574Y-91327668D01*
X167082182Y-91274901D01*
X166946944Y-91248000D01*
X166809056Y-91248000D01*
X166673818Y-91274901D01*
X166546426Y-91327668D01*
X166447152Y-91394000D01*
X163244848Y-91394000D01*
X163145574Y-91327668D01*
X163018182Y-91274901D01*
X162882944Y-91248000D01*
X162745056Y-91248000D01*
X162609818Y-91274901D01*
X162482426Y-91327668D01*
X162367776Y-91404274D01*
X162270274Y-91501776D01*
X162193668Y-91616426D01*
X162140901Y-91743818D01*
X162114000Y-91879056D01*
X100176000Y-91879056D01*
X100176000Y-82354056D01*
X107758000Y-82354056D01*
X107758000Y-82491944D01*
X107784901Y-82627182D01*
X107837668Y-82754574D01*
X107914274Y-82869224D01*
X108011776Y-82966726D01*
X108126426Y-83043332D01*
X108253818Y-83096099D01*
X108389056Y-83123000D01*
X108526944Y-83123000D01*
X108662182Y-83096099D01*
X108789574Y-83043332D01*
X108904224Y-82966726D01*
X109001726Y-82869224D01*
X109014571Y-82850000D01*
X112981429Y-82850000D01*
X112994274Y-82869224D01*
X113091776Y-82966726D01*
X113206426Y-83043332D01*
X113333818Y-83096099D01*
X113469056Y-83123000D01*
X113606944Y-83123000D01*
X113742182Y-83096099D01*
X113869574Y-83043332D01*
X113984224Y-82966726D01*
X114081726Y-82869224D01*
X114158332Y-82754574D01*
X114211099Y-82627182D01*
X114238000Y-82491944D01*
X114238000Y-82354056D01*
X114211099Y-82218818D01*
X114158332Y-82091426D01*
X114081726Y-81976776D01*
X113984224Y-81879274D01*
X113869574Y-81802668D01*
X113742182Y-81749901D01*
X113606944Y-81723000D01*
X113469056Y-81723000D01*
X113333818Y-81749901D01*
X113206426Y-81802668D01*
X113091776Y-81879274D01*
X112994274Y-81976776D01*
X112981429Y-81996000D01*
X109014571Y-81996000D01*
X109001726Y-81976776D01*
X108904224Y-81879274D01*
X108789574Y-81802668D01*
X108662182Y-81749901D01*
X108526944Y-81723000D01*
X108389056Y-81723000D01*
X108253818Y-81749901D01*
X108126426Y-81802668D01*
X108011776Y-81879274D01*
X107914274Y-81976776D01*
X107837668Y-82091426D01*
X107784901Y-82218818D01*
X107758000Y-82354056D01*
X100176000Y-82354056D01*
X100176000Y-71767395D01*
X102214400Y-71767395D01*
X102214400Y-71996605D01*
X102259117Y-72221410D01*
X102346831Y-72433171D01*
X102474173Y-72623752D01*
X102636248Y-72785827D01*
X102826829Y-72913169D01*
X103038590Y-73000883D01*
X103263395Y-73045600D01*
X103492605Y-73045600D01*
X103717410Y-73000883D01*
X103929171Y-72913169D01*
X104119752Y-72785827D01*
X104281827Y-72623752D01*
X104409169Y-72433171D01*
X104496883Y-72221410D01*
X104541600Y-71996605D01*
X104541600Y-71767395D01*
X104496883Y-71542590D01*
X104409169Y-71330829D01*
X104281827Y-71140248D01*
X104159979Y-71018400D01*
X104752949Y-71018400D01*
X104752949Y-72745600D01*
X104758741Y-72804410D01*
X104775896Y-72860960D01*
X104803753Y-72913077D01*
X104841242Y-72958758D01*
X104886923Y-72996247D01*
X104939040Y-73024104D01*
X104995590Y-73041259D01*
X105054400Y-73047051D01*
X106781600Y-73047051D01*
X106840410Y-73041259D01*
X106896960Y-73024104D01*
X106949077Y-72996247D01*
X106994758Y-72958758D01*
X107032247Y-72913077D01*
X107060104Y-72860960D01*
X107077259Y-72804410D01*
X107083051Y-72745600D01*
X107083051Y-71018400D01*
X107077259Y-70959590D01*
X107060104Y-70903040D01*
X107032247Y-70850923D01*
X106994758Y-70805242D01*
X106949077Y-70767753D01*
X106896960Y-70739896D01*
X106840410Y-70722741D01*
X106781600Y-70716949D01*
X105054400Y-70716949D01*
X104995590Y-70722741D01*
X104939040Y-70739896D01*
X104886923Y-70767753D01*
X104841242Y-70805242D01*
X104803753Y-70850923D01*
X104775896Y-70903040D01*
X104758741Y-70959590D01*
X104752949Y-71018400D01*
X104159979Y-71018400D01*
X104119752Y-70978173D01*
X103929171Y-70850831D01*
X103717410Y-70763117D01*
X103492605Y-70718400D01*
X103263395Y-70718400D01*
X103038590Y-70763117D01*
X102826829Y-70850831D01*
X102636248Y-70978173D01*
X102474173Y-71140248D01*
X102346831Y-71330829D01*
X102259117Y-71542590D01*
X102214400Y-71767395D01*
X100176000Y-71767395D01*
X100176000Y-69227395D01*
X102214400Y-69227395D01*
X102214400Y-69456605D01*
X102259117Y-69681410D01*
X102346831Y-69893171D01*
X102474173Y-70083752D01*
X102636248Y-70245827D01*
X102826829Y-70373169D01*
X103038590Y-70460883D01*
X103263395Y-70505600D01*
X103492605Y-70505600D01*
X103717410Y-70460883D01*
X103929171Y-70373169D01*
X104119752Y-70245827D01*
X104281827Y-70083752D01*
X104409169Y-69893171D01*
X104496883Y-69681410D01*
X104541600Y-69456605D01*
X104541600Y-69227395D01*
X104496883Y-69002590D01*
X104409169Y-68790829D01*
X104281827Y-68600248D01*
X104119752Y-68438173D01*
X103929171Y-68310831D01*
X103717410Y-68223117D01*
X103492605Y-68178400D01*
X103263395Y-68178400D01*
X103038590Y-68223117D01*
X102826829Y-68310831D01*
X102636248Y-68438173D01*
X102474173Y-68600248D01*
X102346831Y-68790829D01*
X102259117Y-69002590D01*
X102214400Y-69227395D01*
X100176000Y-69227395D01*
X100176000Y-66687395D01*
X102214400Y-66687395D01*
X102214400Y-66916605D01*
X102259117Y-67141410D01*
X102346831Y-67353171D01*
X102474173Y-67543752D01*
X102636248Y-67705827D01*
X102826829Y-67833169D01*
X103038590Y-67920883D01*
X103263395Y-67965600D01*
X103492605Y-67965600D01*
X103717410Y-67920883D01*
X103841581Y-67869450D01*
X103954497Y-67982366D01*
X103954502Y-67982370D01*
X104331236Y-68359105D01*
X104344605Y-68375395D01*
X104360895Y-68388764D01*
X104360899Y-68388768D01*
X104409623Y-68428756D01*
X104466538Y-68459176D01*
X104483804Y-68468405D01*
X104564293Y-68492822D01*
X104627022Y-68499000D01*
X104627033Y-68499000D01*
X104648000Y-68501065D01*
X104668967Y-68499000D01*
X105115421Y-68499000D01*
X105014173Y-68600248D01*
X104886831Y-68790829D01*
X104799117Y-69002590D01*
X104754400Y-69227395D01*
X104754400Y-69456605D01*
X104799117Y-69681410D01*
X104886831Y-69893171D01*
X105014173Y-70083752D01*
X105176248Y-70245827D01*
X105366829Y-70373169D01*
X105578590Y-70460883D01*
X105803395Y-70505600D01*
X106032605Y-70505600D01*
X106257410Y-70460883D01*
X106469171Y-70373169D01*
X106659752Y-70245827D01*
X106821827Y-70083752D01*
X106949169Y-69893171D01*
X107036883Y-69681410D01*
X107081600Y-69456605D01*
X107081600Y-69227395D01*
X107036883Y-69002590D01*
X106949169Y-68790829D01*
X106821827Y-68600248D01*
X106720579Y-68499000D01*
X108789132Y-68499000D01*
X109032511Y-68742379D01*
X109028000Y-68765056D01*
X109028000Y-68902944D01*
X109054901Y-69038182D01*
X109107668Y-69165574D01*
X109184274Y-69280224D01*
X109281776Y-69377726D01*
X109396426Y-69454332D01*
X109523818Y-69507099D01*
X109659056Y-69534000D01*
X109796944Y-69534000D01*
X109932182Y-69507099D01*
X110059574Y-69454332D01*
X110174224Y-69377726D01*
X110271726Y-69280224D01*
X110348332Y-69165574D01*
X110356416Y-69146056D01*
X135825006Y-69146056D01*
X135825006Y-69283944D01*
X135851907Y-69419182D01*
X135904674Y-69546574D01*
X135981280Y-69661224D01*
X136078782Y-69758726D01*
X136193432Y-69835332D01*
X136320824Y-69888099D01*
X136456062Y-69915000D01*
X136593950Y-69915000D01*
X136729188Y-69888099D01*
X136856580Y-69835332D01*
X136971230Y-69758726D01*
X137068732Y-69661224D01*
X137145338Y-69546574D01*
X137198105Y-69419182D01*
X137225006Y-69283944D01*
X137225006Y-69146056D01*
X137204509Y-69043012D01*
X138121028Y-68126494D01*
X138173666Y-68136964D01*
X138311554Y-68136964D01*
X138446792Y-68110063D01*
X138574184Y-68057296D01*
X138688834Y-67980690D01*
X138786336Y-67883188D01*
X138862942Y-67768538D01*
X138915709Y-67641146D01*
X138942610Y-67505908D01*
X138942610Y-67368020D01*
X138915709Y-67232782D01*
X138862942Y-67105390D01*
X138786336Y-66990740D01*
X138688834Y-66893238D01*
X138574184Y-66816632D01*
X138446792Y-66763865D01*
X138311554Y-66736964D01*
X138173666Y-66736964D01*
X138038428Y-66763865D01*
X137911036Y-66816632D01*
X137796386Y-66893238D01*
X137698884Y-66990740D01*
X137622278Y-67105390D01*
X137569511Y-67232782D01*
X137542610Y-67368020D01*
X137542610Y-67505908D01*
X137553080Y-67558546D01*
X136596183Y-68515444D01*
X136593950Y-68515000D01*
X136456062Y-68515000D01*
X136320824Y-68541901D01*
X136193432Y-68594668D01*
X136078782Y-68671274D01*
X135981280Y-68768776D01*
X135904674Y-68883426D01*
X135851907Y-69010818D01*
X135825006Y-69146056D01*
X110356416Y-69146056D01*
X110401099Y-69038182D01*
X110428000Y-68902944D01*
X110428000Y-68765056D01*
X110401099Y-68629818D01*
X110348332Y-68502426D01*
X110271726Y-68387776D01*
X110174224Y-68290274D01*
X110059574Y-68213668D01*
X109932182Y-68160901D01*
X109796944Y-68134000D01*
X109659056Y-68134000D01*
X109636379Y-68138511D01*
X109282767Y-67784899D01*
X109269395Y-67768605D01*
X109204376Y-67715245D01*
X109130196Y-67675595D01*
X109049707Y-67651178D01*
X108986978Y-67645000D01*
X108986967Y-67645000D01*
X108966000Y-67642935D01*
X108945033Y-67645000D01*
X106720579Y-67645000D01*
X106821827Y-67543752D01*
X106949169Y-67353171D01*
X107036883Y-67141410D01*
X107081600Y-66916605D01*
X107081600Y-66687395D01*
X107036883Y-66462590D01*
X106949169Y-66250829D01*
X106821827Y-66060248D01*
X106659752Y-65898173D01*
X106469171Y-65770831D01*
X106257410Y-65683117D01*
X106032605Y-65638400D01*
X105803395Y-65638400D01*
X105578590Y-65683117D01*
X105366829Y-65770831D01*
X105176248Y-65898173D01*
X105014173Y-66060248D01*
X104886831Y-66250829D01*
X104799117Y-66462590D01*
X104754400Y-66687395D01*
X104754400Y-66916605D01*
X104799117Y-67141410D01*
X104886831Y-67353171D01*
X105014173Y-67543752D01*
X105115421Y-67645000D01*
X104824869Y-67645000D01*
X104558370Y-67378502D01*
X104558366Y-67378497D01*
X104445450Y-67265581D01*
X104496883Y-67141410D01*
X104541600Y-66916605D01*
X104541600Y-66687395D01*
X104496883Y-66462590D01*
X104409169Y-66250829D01*
X104281827Y-66060248D01*
X104119752Y-65898173D01*
X103929171Y-65770831D01*
X103717410Y-65683117D01*
X103492605Y-65638400D01*
X103263395Y-65638400D01*
X103038590Y-65683117D01*
X102826829Y-65770831D01*
X102636248Y-65898173D01*
X102474173Y-66060248D01*
X102346831Y-66250829D01*
X102259117Y-66462590D01*
X102214400Y-66687395D01*
X100176000Y-66687395D01*
X100176000Y-64147395D01*
X102214400Y-64147395D01*
X102214400Y-64376605D01*
X102259117Y-64601410D01*
X102346831Y-64813171D01*
X102474173Y-65003752D01*
X102636248Y-65165827D01*
X102826829Y-65293169D01*
X103038590Y-65380883D01*
X103263395Y-65425600D01*
X103492605Y-65425600D01*
X103717410Y-65380883D01*
X103929171Y-65293169D01*
X104119752Y-65165827D01*
X104281827Y-65003752D01*
X104409169Y-64813171D01*
X104496883Y-64601410D01*
X104541600Y-64376605D01*
X104541600Y-64147395D01*
X104754400Y-64147395D01*
X104754400Y-64376605D01*
X104799117Y-64601410D01*
X104886831Y-64813171D01*
X105014173Y-65003752D01*
X105176248Y-65165827D01*
X105366829Y-65293169D01*
X105578590Y-65380883D01*
X105803395Y-65425600D01*
X106032605Y-65425600D01*
X106257410Y-65380883D01*
X106469171Y-65293169D01*
X106659752Y-65165827D01*
X106821827Y-65003752D01*
X106949169Y-64813171D01*
X107036883Y-64601410D01*
X107081600Y-64376605D01*
X107081600Y-64147395D01*
X107065421Y-64066056D01*
X138111000Y-64066056D01*
X138111000Y-64203944D01*
X138137901Y-64339182D01*
X138190668Y-64466574D01*
X138267274Y-64581224D01*
X138364776Y-64678726D01*
X138479426Y-64755332D01*
X138606818Y-64808099D01*
X138742056Y-64835000D01*
X138879944Y-64835000D01*
X138902621Y-64830489D01*
X139273000Y-65200869D01*
X139273001Y-70817428D01*
X139253776Y-70830274D01*
X139156274Y-70927776D01*
X139079668Y-71042426D01*
X139026901Y-71169818D01*
X139000000Y-71305056D01*
X139000000Y-71442944D01*
X139026901Y-71578182D01*
X139079668Y-71705574D01*
X139156274Y-71820224D01*
X139253776Y-71917726D01*
X139368426Y-71994332D01*
X139495818Y-72047099D01*
X139631056Y-72074000D01*
X139768944Y-72074000D01*
X139904182Y-72047099D01*
X140031574Y-71994332D01*
X140146224Y-71917726D01*
X140243726Y-71820224D01*
X140320332Y-71705574D01*
X140373099Y-71578182D01*
X140400000Y-71442944D01*
X140400000Y-71305056D01*
X140373099Y-71169818D01*
X140320332Y-71042426D01*
X140243726Y-70927776D01*
X140146224Y-70830274D01*
X140127000Y-70817429D01*
X140127000Y-65044967D01*
X140129065Y-65024000D01*
X140127000Y-65003033D01*
X140127000Y-65003022D01*
X140120822Y-64940293D01*
X140096405Y-64859804D01*
X140068768Y-64808099D01*
X140056755Y-64785623D01*
X140016768Y-64736899D01*
X140016764Y-64736895D01*
X140003395Y-64720605D01*
X139987106Y-64707237D01*
X139506489Y-64226621D01*
X139511000Y-64203944D01*
X139511000Y-64066056D01*
X139484099Y-63930818D01*
X139431332Y-63803426D01*
X139354726Y-63688776D01*
X139257224Y-63591274D01*
X139142574Y-63514668D01*
X139015182Y-63461901D01*
X138879944Y-63435000D01*
X138742056Y-63435000D01*
X138606818Y-63461901D01*
X138479426Y-63514668D01*
X138364776Y-63591274D01*
X138267274Y-63688776D01*
X138190668Y-63803426D01*
X138137901Y-63930818D01*
X138111000Y-64066056D01*
X107065421Y-64066056D01*
X107036883Y-63922590D01*
X106949169Y-63710829D01*
X106821827Y-63520248D01*
X106659752Y-63358173D01*
X106469171Y-63230831D01*
X106257410Y-63143117D01*
X106032605Y-63098400D01*
X105803395Y-63098400D01*
X105578590Y-63143117D01*
X105366829Y-63230831D01*
X105176248Y-63358173D01*
X105014173Y-63520248D01*
X104886831Y-63710829D01*
X104799117Y-63922590D01*
X104754400Y-64147395D01*
X104541600Y-64147395D01*
X104496883Y-63922590D01*
X104409169Y-63710829D01*
X104281827Y-63520248D01*
X104119752Y-63358173D01*
X103929171Y-63230831D01*
X103717410Y-63143117D01*
X103492605Y-63098400D01*
X103263395Y-63098400D01*
X103038590Y-63143117D01*
X102826829Y-63230831D01*
X102636248Y-63358173D01*
X102474173Y-63520248D01*
X102346831Y-63710829D01*
X102259117Y-63922590D01*
X102214400Y-64147395D01*
X100176000Y-64147395D01*
X100176000Y-61989735D01*
X147948000Y-61989735D01*
X147948000Y-62216265D01*
X147992194Y-62438443D01*
X148078884Y-62647729D01*
X148204737Y-62836082D01*
X148364918Y-62996263D01*
X148553271Y-63122116D01*
X148762557Y-63208806D01*
X148984735Y-63253000D01*
X149211265Y-63253000D01*
X149433443Y-63208806D01*
X149642729Y-63122116D01*
X149831082Y-62996263D01*
X149991263Y-62836082D01*
X150117116Y-62647729D01*
X150203806Y-62438443D01*
X150248000Y-62216265D01*
X150248000Y-61989735D01*
X150203806Y-61767557D01*
X150117116Y-61558271D01*
X149991263Y-61369918D01*
X149831082Y-61209737D01*
X149642729Y-61083884D01*
X149433443Y-60997194D01*
X149211265Y-60953000D01*
X148984735Y-60953000D01*
X148762557Y-60997194D01*
X148553271Y-61083884D01*
X148364918Y-61209737D01*
X148204737Y-61369918D01*
X148078884Y-61558271D01*
X147992194Y-61767557D01*
X147948000Y-61989735D01*
X100176000Y-61989735D01*
X100176000Y-58713000D01*
X133849549Y-58713000D01*
X133849549Y-60413000D01*
X133855341Y-60471810D01*
X133872496Y-60528360D01*
X133900353Y-60580477D01*
X133937842Y-60626158D01*
X133983523Y-60663647D01*
X134035640Y-60691504D01*
X134092190Y-60708659D01*
X134151000Y-60714451D01*
X135851000Y-60714451D01*
X135909810Y-60708659D01*
X135966360Y-60691504D01*
X136018477Y-60663647D01*
X136064158Y-60626158D01*
X136101647Y-60580477D01*
X136129504Y-60528360D01*
X136146659Y-60471810D01*
X136152451Y-60413000D01*
X136152451Y-59449735D01*
X136391000Y-59449735D01*
X136391000Y-59676265D01*
X136435194Y-59898443D01*
X136521884Y-60107729D01*
X136647737Y-60296082D01*
X136807918Y-60456263D01*
X136996271Y-60582116D01*
X137205557Y-60668806D01*
X137427735Y-60713000D01*
X137654265Y-60713000D01*
X137876443Y-60668806D01*
X138085729Y-60582116D01*
X138274082Y-60456263D01*
X138434263Y-60296082D01*
X138560116Y-60107729D01*
X138646806Y-59898443D01*
X138691000Y-59676265D01*
X138691000Y-59449735D01*
X138931000Y-59449735D01*
X138931000Y-59676265D01*
X138975194Y-59898443D01*
X139061884Y-60107729D01*
X139187737Y-60296082D01*
X139347918Y-60456263D01*
X139536271Y-60582116D01*
X139745557Y-60668806D01*
X139967735Y-60713000D01*
X140194265Y-60713000D01*
X140416443Y-60668806D01*
X140625729Y-60582116D01*
X140814082Y-60456263D01*
X140974263Y-60296082D01*
X141100116Y-60107729D01*
X141186806Y-59898443D01*
X141222897Y-59717002D01*
X141323149Y-59717002D01*
X141213091Y-59941911D01*
X141314065Y-60209300D01*
X141465264Y-60451852D01*
X141660878Y-60660246D01*
X141893389Y-60826473D01*
X142153861Y-60944146D01*
X142242090Y-60970903D01*
X142467000Y-60859889D01*
X142467000Y-59717000D01*
X142447000Y-59717000D01*
X142447000Y-59409000D01*
X142467000Y-59409000D01*
X142467000Y-58266111D01*
X142775000Y-58266111D01*
X142775000Y-59409000D01*
X142795000Y-59409000D01*
X142795000Y-59717000D01*
X142775000Y-59717000D01*
X142775000Y-60859889D01*
X142999910Y-60970903D01*
X143088139Y-60944146D01*
X143348611Y-60826473D01*
X143581122Y-60660246D01*
X143776736Y-60451852D01*
X143927935Y-60209300D01*
X144028909Y-59941911D01*
X143918851Y-59717002D01*
X144019103Y-59717002D01*
X144055194Y-59898443D01*
X144141884Y-60107729D01*
X144267737Y-60296082D01*
X144427918Y-60456263D01*
X144616271Y-60582116D01*
X144825557Y-60668806D01*
X145047735Y-60713000D01*
X145274265Y-60713000D01*
X145496443Y-60668806D01*
X145705729Y-60582116D01*
X145894082Y-60456263D01*
X146054263Y-60296082D01*
X146180116Y-60107729D01*
X146266806Y-59898443D01*
X146311000Y-59676265D01*
X146311000Y-59449735D01*
X146266806Y-59227557D01*
X146180116Y-59018271D01*
X146054263Y-58829918D01*
X145937345Y-58713000D01*
X147946549Y-58713000D01*
X147946549Y-60413000D01*
X147952341Y-60471810D01*
X147969496Y-60528360D01*
X147997353Y-60580477D01*
X148034842Y-60626158D01*
X148080523Y-60663647D01*
X148132640Y-60691504D01*
X148189190Y-60708659D01*
X148248000Y-60714451D01*
X149948000Y-60714451D01*
X150006810Y-60708659D01*
X150063360Y-60691504D01*
X150115477Y-60663647D01*
X150161158Y-60626158D01*
X150198647Y-60580477D01*
X150226504Y-60528360D01*
X150243659Y-60471810D01*
X150249451Y-60413000D01*
X150249451Y-58713000D01*
X150243659Y-58654190D01*
X150226504Y-58597640D01*
X150198647Y-58545523D01*
X150161158Y-58499842D01*
X150115477Y-58462353D01*
X150063360Y-58434496D01*
X150006810Y-58417341D01*
X149948000Y-58411549D01*
X148248000Y-58411549D01*
X148189190Y-58417341D01*
X148132640Y-58434496D01*
X148080523Y-58462353D01*
X148034842Y-58499842D01*
X147997353Y-58545523D01*
X147969496Y-58597640D01*
X147952341Y-58654190D01*
X147946549Y-58713000D01*
X145937345Y-58713000D01*
X145894082Y-58669737D01*
X145705729Y-58543884D01*
X145496443Y-58457194D01*
X145274265Y-58413000D01*
X145047735Y-58413000D01*
X144825557Y-58457194D01*
X144616271Y-58543884D01*
X144427918Y-58669737D01*
X144267737Y-58829918D01*
X144141884Y-59018271D01*
X144055194Y-59227557D01*
X144019103Y-59408998D01*
X143918851Y-59408998D01*
X144028909Y-59184089D01*
X143927935Y-58916700D01*
X143776736Y-58674148D01*
X143581122Y-58465754D01*
X143348611Y-58299527D01*
X143088139Y-58181854D01*
X142999910Y-58155097D01*
X142775000Y-58266111D01*
X142467000Y-58266111D01*
X142242090Y-58155097D01*
X142153861Y-58181854D01*
X141893389Y-58299527D01*
X141660878Y-58465754D01*
X141465264Y-58674148D01*
X141314065Y-58916700D01*
X141213091Y-59184089D01*
X141323149Y-59408998D01*
X141222897Y-59408998D01*
X141186806Y-59227557D01*
X141100116Y-59018271D01*
X140974263Y-58829918D01*
X140814082Y-58669737D01*
X140625729Y-58543884D01*
X140416443Y-58457194D01*
X140194265Y-58413000D01*
X139967735Y-58413000D01*
X139745557Y-58457194D01*
X139536271Y-58543884D01*
X139347918Y-58669737D01*
X139187737Y-58829918D01*
X139061884Y-59018271D01*
X138975194Y-59227557D01*
X138931000Y-59449735D01*
X138691000Y-59449735D01*
X138646806Y-59227557D01*
X138560116Y-59018271D01*
X138434263Y-58829918D01*
X138274082Y-58669737D01*
X138085729Y-58543884D01*
X137876443Y-58457194D01*
X137654265Y-58413000D01*
X137427735Y-58413000D01*
X137205557Y-58457194D01*
X136996271Y-58543884D01*
X136807918Y-58669737D01*
X136647737Y-58829918D01*
X136521884Y-59018271D01*
X136435194Y-59227557D01*
X136391000Y-59449735D01*
X136152451Y-59449735D01*
X136152451Y-58713000D01*
X136146659Y-58654190D01*
X136129504Y-58597640D01*
X136101647Y-58545523D01*
X136064158Y-58499842D01*
X136018477Y-58462353D01*
X135966360Y-58434496D01*
X135909810Y-58417341D01*
X135851000Y-58411549D01*
X134151000Y-58411549D01*
X134092190Y-58417341D01*
X134035640Y-58434496D01*
X133983523Y-58462353D01*
X133937842Y-58499842D01*
X133900353Y-58545523D01*
X133872496Y-58597640D01*
X133855341Y-58654190D01*
X133849549Y-58713000D01*
X100176000Y-58713000D01*
X100176000Y-57758000D01*
X151262525Y-57758000D01*
X150503505Y-58517022D01*
G36*
X152935000Y-59409000D02*
G01*
X152955000Y-59409000D01*
X152955000Y-59717000D01*
X152935000Y-59717000D01*
X152935000Y-59737000D01*
X152627000Y-59737000D01*
X152627000Y-59717000D01*
X152607000Y-59717000D01*
X152607000Y-59409000D01*
X152627000Y-59409000D01*
X152627000Y-59389000D01*
X152935000Y-59389000D01*
X152935000Y-59409000D01*
G37*
X152935000Y-59409000D02*
X152955000Y-59409000D01*
X152955000Y-59717000D01*
X152935000Y-59717000D01*
X152935000Y-59737000D01*
X152627000Y-59737000D01*
X152627000Y-59717000D01*
X152607000Y-59717000D01*
X152607000Y-59409000D01*
X152627000Y-59409000D01*
X152627000Y-59389000D01*
X152935000Y-59389000D01*
X152935000Y-59409000D01*
M02*
