G04 #@! TF.GenerationSoftware,KiCad,Pcbnew,5.1.5-52549c5~86~ubuntu19.10.1*
G04 #@! TF.CreationDate,2020-07-12T21:09:55+02:00*
G04 #@! TF.ProjectId,Remote_TempHumid,52656d6f-7465-45f5-9465-6d7048756d69,rev?*
G04 #@! TF.SameCoordinates,Original*
G04 #@! TF.FileFunction,Soldermask,Top*
G04 #@! TF.FilePolarity,Negative*
%FSLAX46Y46*%
G04 Gerber Fmt 4.6, Leading zero omitted, Abs format (unit mm)*
G04 Created by KiCad (PCBNEW 5.1.5-52549c5~86~ubuntu19.10.1) date 2020-07-12 21:09:55*
%MOMM*%
%LPD*%
G04 APERTURE LIST*
%ADD10C,0.100000*%
G04 APERTURE END LIST*
D10*
G36*
X102804893Y-102796714D02*
G01*
X103009605Y-102858813D01*
X103198268Y-102959655D01*
X103249647Y-103001821D01*
X103363634Y-103095366D01*
X103457179Y-103209353D01*
X103499345Y-103260732D01*
X103600187Y-103449395D01*
X103662286Y-103654107D01*
X103678000Y-103813655D01*
X103678000Y-105990345D01*
X103662286Y-106149893D01*
X103600187Y-106354605D01*
X103499345Y-106543268D01*
X103457179Y-106594647D01*
X103363634Y-106708634D01*
X103276667Y-106780004D01*
X103198268Y-106844345D01*
X103009604Y-106945187D01*
X102804892Y-107007286D01*
X102592000Y-107028254D01*
X102379107Y-107007286D01*
X102174395Y-106945187D01*
X101985732Y-106844345D01*
X101934353Y-106802179D01*
X101820366Y-106708634D01*
X101748996Y-106621667D01*
X101684655Y-106543268D01*
X101583813Y-106354604D01*
X101521714Y-106149892D01*
X101506000Y-105990344D01*
X101506001Y-103813655D01*
X101521715Y-103654107D01*
X101583814Y-103449395D01*
X101684656Y-103260732D01*
X101726822Y-103209353D01*
X101820367Y-103095366D01*
X101934354Y-103001821D01*
X101985733Y-102959655D01*
X102174396Y-102858813D01*
X102379108Y-102796714D01*
X102592000Y-102775746D01*
X102804893Y-102796714D01*
G37*
G36*
X175704893Y-102796714D02*
G01*
X175909605Y-102858813D01*
X176098268Y-102959655D01*
X176149647Y-103001821D01*
X176263634Y-103095366D01*
X176357179Y-103209353D01*
X176399345Y-103260732D01*
X176500187Y-103449395D01*
X176562286Y-103654107D01*
X176578000Y-103813655D01*
X176578000Y-105990345D01*
X176562286Y-106149893D01*
X176500187Y-106354605D01*
X176399345Y-106543268D01*
X176357179Y-106594647D01*
X176263634Y-106708634D01*
X176176667Y-106780004D01*
X176098268Y-106844345D01*
X175909604Y-106945187D01*
X175704892Y-107007286D01*
X175492000Y-107028254D01*
X175279107Y-107007286D01*
X175074395Y-106945187D01*
X174885732Y-106844345D01*
X174834353Y-106802179D01*
X174720366Y-106708634D01*
X174648996Y-106621667D01*
X174584655Y-106543268D01*
X174483813Y-106354604D01*
X174421714Y-106149892D01*
X174406000Y-105990344D01*
X174406001Y-103813655D01*
X174421715Y-103654107D01*
X174483814Y-103449395D01*
X174584656Y-103260732D01*
X174626822Y-103209353D01*
X174720367Y-103095366D01*
X174834354Y-103001821D01*
X174885733Y-102959655D01*
X175074396Y-102858813D01*
X175279108Y-102796714D01*
X175492000Y-102775746D01*
X175704893Y-102796714D01*
G37*
G36*
X111757256Y-103293298D02*
G01*
X111863579Y-103314447D01*
X112164042Y-103438903D01*
X112434451Y-103619585D01*
X112664415Y-103849549D01*
X112845097Y-104119958D01*
X112969553Y-104420421D01*
X113033000Y-104739391D01*
X113033000Y-105064609D01*
X112969553Y-105383579D01*
X112845097Y-105684042D01*
X112664415Y-105954451D01*
X112434451Y-106184415D01*
X112164042Y-106365097D01*
X111863579Y-106489553D01*
X111757256Y-106510702D01*
X111544611Y-106553000D01*
X111219389Y-106553000D01*
X111006744Y-106510702D01*
X110900421Y-106489553D01*
X110599958Y-106365097D01*
X110329549Y-106184415D01*
X110099585Y-105954451D01*
X109918903Y-105684042D01*
X109794447Y-105383579D01*
X109731000Y-105064609D01*
X109731000Y-104739391D01*
X109794447Y-104420421D01*
X109918903Y-104119958D01*
X110099585Y-103849549D01*
X110329549Y-103619585D01*
X110599958Y-103438903D01*
X110900421Y-103314447D01*
X111006744Y-103293298D01*
X111219389Y-103251000D01*
X111544611Y-103251000D01*
X111757256Y-103293298D01*
G37*
G36*
X167372256Y-103293298D02*
G01*
X167478579Y-103314447D01*
X167779042Y-103438903D01*
X168049451Y-103619585D01*
X168279415Y-103849549D01*
X168460097Y-104119958D01*
X168584553Y-104420421D01*
X168648000Y-104739391D01*
X168648000Y-105064609D01*
X168584553Y-105383579D01*
X168460097Y-105684042D01*
X168279415Y-105954451D01*
X168049451Y-106184415D01*
X167779042Y-106365097D01*
X167478579Y-106489553D01*
X167372256Y-106510702D01*
X167159611Y-106553000D01*
X166834389Y-106553000D01*
X166621744Y-106510702D01*
X166515421Y-106489553D01*
X166214958Y-106365097D01*
X165944549Y-106184415D01*
X165714585Y-105954451D01*
X165533903Y-105684042D01*
X165409447Y-105383579D01*
X165346000Y-105064609D01*
X165346000Y-104739391D01*
X165409447Y-104420421D01*
X165533903Y-104119958D01*
X165714585Y-103849549D01*
X165944549Y-103619585D01*
X166214958Y-103438903D01*
X166515421Y-103314447D01*
X166621744Y-103293298D01*
X166834389Y-103251000D01*
X167159611Y-103251000D01*
X167372256Y-103293298D01*
G37*
G36*
X117529000Y-93379000D02*
G01*
X115927000Y-93379000D01*
X115927000Y-91277000D01*
X117529000Y-91277000D01*
X117529000Y-93379000D01*
G37*
G36*
X115529000Y-93379000D02*
G01*
X113927000Y-93379000D01*
X113927000Y-91277000D01*
X115529000Y-91277000D01*
X115529000Y-93379000D01*
G37*
G36*
X113529000Y-93379000D02*
G01*
X111927000Y-93379000D01*
X111927000Y-91277000D01*
X113529000Y-91277000D01*
X113529000Y-93379000D01*
G37*
G36*
X111529000Y-93379000D02*
G01*
X109927000Y-93379000D01*
X109927000Y-91277000D01*
X111529000Y-91277000D01*
X111529000Y-93379000D01*
G37*
G36*
X109529000Y-93379000D02*
G01*
X107927000Y-93379000D01*
X107927000Y-91277000D01*
X109529000Y-91277000D01*
X109529000Y-93379000D01*
G37*
G36*
X105529000Y-93379000D02*
G01*
X103927000Y-93379000D01*
X103927000Y-91277000D01*
X105529000Y-91277000D01*
X105529000Y-93379000D01*
G37*
G36*
X103529000Y-93379000D02*
G01*
X101927000Y-93379000D01*
X101927000Y-91277000D01*
X103529000Y-91277000D01*
X103529000Y-93379000D01*
G37*
G36*
X107529000Y-93379000D02*
G01*
X105927000Y-93379000D01*
X105927000Y-91277000D01*
X107529000Y-91277000D01*
X107529000Y-93379000D01*
G37*
G36*
X146900091Y-90410085D02*
G01*
X146934069Y-90420393D01*
X146965390Y-90437134D01*
X146992839Y-90459661D01*
X147015366Y-90487110D01*
X147032107Y-90518431D01*
X147042415Y-90552409D01*
X147046500Y-90593890D01*
X147046500Y-91270110D01*
X147042415Y-91311591D01*
X147032107Y-91345569D01*
X147015366Y-91376890D01*
X146992839Y-91404339D01*
X146965390Y-91426866D01*
X146934069Y-91443607D01*
X146900091Y-91453915D01*
X146858610Y-91458000D01*
X146257390Y-91458000D01*
X146215909Y-91453915D01*
X146181931Y-91443607D01*
X146150610Y-91426866D01*
X146123161Y-91404339D01*
X146100634Y-91376890D01*
X146083893Y-91345569D01*
X146073585Y-91311591D01*
X146069500Y-91270110D01*
X146069500Y-90593890D01*
X146073585Y-90552409D01*
X146083893Y-90518431D01*
X146100634Y-90487110D01*
X146123161Y-90459661D01*
X146150610Y-90437134D01*
X146181931Y-90420393D01*
X146215909Y-90410085D01*
X146257390Y-90406000D01*
X146858610Y-90406000D01*
X146900091Y-90410085D01*
G37*
G36*
X145325091Y-90410085D02*
G01*
X145359069Y-90420393D01*
X145390390Y-90437134D01*
X145417839Y-90459661D01*
X145440366Y-90487110D01*
X145457107Y-90518431D01*
X145467415Y-90552409D01*
X145471500Y-90593890D01*
X145471500Y-91270110D01*
X145467415Y-91311591D01*
X145457107Y-91345569D01*
X145440366Y-91376890D01*
X145417839Y-91404339D01*
X145390390Y-91426866D01*
X145359069Y-91443607D01*
X145325091Y-91453915D01*
X145283610Y-91458000D01*
X144682390Y-91458000D01*
X144640909Y-91453915D01*
X144606931Y-91443607D01*
X144575610Y-91426866D01*
X144548161Y-91404339D01*
X144525634Y-91376890D01*
X144508893Y-91345569D01*
X144498585Y-91311591D01*
X144494500Y-91270110D01*
X144494500Y-90593890D01*
X144498585Y-90552409D01*
X144508893Y-90518431D01*
X144525634Y-90487110D01*
X144548161Y-90459661D01*
X144575610Y-90437134D01*
X144606931Y-90420393D01*
X144640909Y-90410085D01*
X144682390Y-90406000D01*
X145283610Y-90406000D01*
X145325091Y-90410085D01*
G37*
G36*
X175195000Y-90201000D02*
G01*
X173293000Y-90201000D01*
X173293000Y-87599000D01*
X175195000Y-87599000D01*
X175195000Y-90201000D01*
G37*
G36*
X158845000Y-90105000D02*
G01*
X156243000Y-90105000D01*
X156243000Y-88203000D01*
X158845000Y-88203000D01*
X158845000Y-90105000D01*
G37*
G36*
X162845000Y-90105000D02*
G01*
X160243000Y-90105000D01*
X160243000Y-88203000D01*
X162845000Y-88203000D01*
X162845000Y-90105000D01*
G37*
G36*
X152887642Y-88383781D02*
G01*
X153033414Y-88444162D01*
X153033416Y-88444163D01*
X153164608Y-88531822D01*
X153276178Y-88643392D01*
X153295460Y-88672250D01*
X153363838Y-88774586D01*
X153424219Y-88920358D01*
X153455000Y-89075107D01*
X153455000Y-89232893D01*
X153424219Y-89387642D01*
X153363838Y-89533414D01*
X153363837Y-89533416D01*
X153276178Y-89664608D01*
X153164608Y-89776178D01*
X153033416Y-89863837D01*
X153033415Y-89863838D01*
X153033414Y-89863838D01*
X152887642Y-89924219D01*
X152732893Y-89955000D01*
X152575107Y-89955000D01*
X152420358Y-89924219D01*
X152274586Y-89863838D01*
X152274585Y-89863838D01*
X152274584Y-89863837D01*
X152143392Y-89776178D01*
X152031822Y-89664608D01*
X151944163Y-89533416D01*
X151944162Y-89533414D01*
X151883781Y-89387642D01*
X151853000Y-89232893D01*
X151853000Y-89075107D01*
X151883781Y-88920358D01*
X151944162Y-88774586D01*
X152012540Y-88672250D01*
X152031822Y-88643392D01*
X152143392Y-88531822D01*
X152274584Y-88444163D01*
X152274586Y-88444162D01*
X152420358Y-88383781D01*
X152575107Y-88353000D01*
X152732893Y-88353000D01*
X152887642Y-88383781D01*
G37*
G36*
X171313968Y-88407565D02*
G01*
X171352638Y-88419296D01*
X171388277Y-88438346D01*
X171419517Y-88463983D01*
X171445154Y-88495223D01*
X171464204Y-88530862D01*
X171475935Y-88569532D01*
X171480500Y-88615888D01*
X171480500Y-89692112D01*
X171475935Y-89738468D01*
X171464204Y-89777138D01*
X171445154Y-89812777D01*
X171419517Y-89844017D01*
X171388277Y-89869654D01*
X171352638Y-89888704D01*
X171313968Y-89900435D01*
X171267612Y-89905000D01*
X170616388Y-89905000D01*
X170570032Y-89900435D01*
X170531362Y-89888704D01*
X170495723Y-89869654D01*
X170464483Y-89844017D01*
X170438846Y-89812777D01*
X170419796Y-89777138D01*
X170408065Y-89738468D01*
X170403500Y-89692112D01*
X170403500Y-88615888D01*
X170408065Y-88569532D01*
X170419796Y-88530862D01*
X170438846Y-88495223D01*
X170464483Y-88463983D01*
X170495723Y-88438346D01*
X170531362Y-88419296D01*
X170570032Y-88407565D01*
X170616388Y-88403000D01*
X171267612Y-88403000D01*
X171313968Y-88407565D01*
G37*
G36*
X169438968Y-88407565D02*
G01*
X169477638Y-88419296D01*
X169513277Y-88438346D01*
X169544517Y-88463983D01*
X169570154Y-88495223D01*
X169589204Y-88530862D01*
X169600935Y-88569532D01*
X169605500Y-88615888D01*
X169605500Y-89692112D01*
X169600935Y-89738468D01*
X169589204Y-89777138D01*
X169570154Y-89812777D01*
X169544517Y-89844017D01*
X169513277Y-89869654D01*
X169477638Y-89888704D01*
X169438968Y-89900435D01*
X169392612Y-89905000D01*
X168741388Y-89905000D01*
X168695032Y-89900435D01*
X168656362Y-89888704D01*
X168620723Y-89869654D01*
X168589483Y-89844017D01*
X168563846Y-89812777D01*
X168544796Y-89777138D01*
X168533065Y-89738468D01*
X168528500Y-89692112D01*
X168528500Y-88615888D01*
X168533065Y-88569532D01*
X168544796Y-88530862D01*
X168563846Y-88495223D01*
X168589483Y-88463983D01*
X168620723Y-88438346D01*
X168656362Y-88419296D01*
X168695032Y-88407565D01*
X168741388Y-88403000D01*
X169392612Y-88403000D01*
X169438968Y-88407565D01*
G37*
G36*
X167092968Y-88407565D02*
G01*
X167131638Y-88419296D01*
X167167277Y-88438346D01*
X167198517Y-88463983D01*
X167224154Y-88495223D01*
X167243204Y-88530862D01*
X167254935Y-88569532D01*
X167259500Y-88615888D01*
X167259500Y-89692112D01*
X167254935Y-89738468D01*
X167243204Y-89777138D01*
X167224154Y-89812777D01*
X167198517Y-89844017D01*
X167167277Y-89869654D01*
X167131638Y-89888704D01*
X167092968Y-89900435D01*
X167046612Y-89905000D01*
X166395388Y-89905000D01*
X166349032Y-89900435D01*
X166310362Y-89888704D01*
X166274723Y-89869654D01*
X166243483Y-89844017D01*
X166217846Y-89812777D01*
X166198796Y-89777138D01*
X166187065Y-89738468D01*
X166182500Y-89692112D01*
X166182500Y-88615888D01*
X166187065Y-88569532D01*
X166198796Y-88530862D01*
X166217846Y-88495223D01*
X166243483Y-88463983D01*
X166274723Y-88438346D01*
X166310362Y-88419296D01*
X166349032Y-88407565D01*
X166395388Y-88403000D01*
X167046612Y-88403000D01*
X167092968Y-88407565D01*
G37*
G36*
X165217968Y-88407565D02*
G01*
X165256638Y-88419296D01*
X165292277Y-88438346D01*
X165323517Y-88463983D01*
X165349154Y-88495223D01*
X165368204Y-88530862D01*
X165379935Y-88569532D01*
X165384500Y-88615888D01*
X165384500Y-89692112D01*
X165379935Y-89738468D01*
X165368204Y-89777138D01*
X165349154Y-89812777D01*
X165323517Y-89844017D01*
X165292277Y-89869654D01*
X165256638Y-89888704D01*
X165217968Y-89900435D01*
X165171612Y-89905000D01*
X164520388Y-89905000D01*
X164474032Y-89900435D01*
X164435362Y-89888704D01*
X164399723Y-89869654D01*
X164368483Y-89844017D01*
X164342846Y-89812777D01*
X164323796Y-89777138D01*
X164312065Y-89738468D01*
X164307500Y-89692112D01*
X164307500Y-88615888D01*
X164312065Y-88569532D01*
X164323796Y-88530862D01*
X164342846Y-88495223D01*
X164368483Y-88463983D01*
X164399723Y-88438346D01*
X164435362Y-88419296D01*
X164474032Y-88407565D01*
X164520388Y-88403000D01*
X165171612Y-88403000D01*
X165217968Y-88407565D01*
G37*
G36*
X125601591Y-88161585D02*
G01*
X125635569Y-88171893D01*
X125666890Y-88188634D01*
X125694339Y-88211161D01*
X125716866Y-88238610D01*
X125733607Y-88269931D01*
X125743915Y-88303909D01*
X125748000Y-88345390D01*
X125748000Y-88946610D01*
X125743915Y-88988091D01*
X125733607Y-89022069D01*
X125716866Y-89053390D01*
X125694339Y-89080839D01*
X125666890Y-89103366D01*
X125635569Y-89120107D01*
X125601591Y-89130415D01*
X125560110Y-89134500D01*
X124883890Y-89134500D01*
X124842409Y-89130415D01*
X124808431Y-89120107D01*
X124777110Y-89103366D01*
X124749661Y-89080839D01*
X124727134Y-89053390D01*
X124710393Y-89022069D01*
X124700085Y-88988091D01*
X124696000Y-88946610D01*
X124696000Y-88345390D01*
X124700085Y-88303909D01*
X124710393Y-88269931D01*
X124727134Y-88238610D01*
X124749661Y-88211161D01*
X124777110Y-88188634D01*
X124808431Y-88171893D01*
X124842409Y-88161585D01*
X124883890Y-88157500D01*
X125560110Y-88157500D01*
X125601591Y-88161585D01*
G37*
G36*
X123671000Y-89047000D02*
G01*
X122569000Y-89047000D01*
X122569000Y-88245000D01*
X123671000Y-88245000D01*
X123671000Y-89047000D01*
G37*
G36*
X121271000Y-88097000D02*
G01*
X120169000Y-88097000D01*
X120169000Y-87295000D01*
X121271000Y-87295000D01*
X121271000Y-88097000D01*
G37*
G36*
X125601591Y-86586585D02*
G01*
X125635569Y-86596893D01*
X125666890Y-86613634D01*
X125694339Y-86636161D01*
X125716866Y-86663610D01*
X125733607Y-86694931D01*
X125743915Y-86728909D01*
X125748000Y-86770390D01*
X125748000Y-87371610D01*
X125743915Y-87413091D01*
X125733607Y-87447069D01*
X125716866Y-87478390D01*
X125694339Y-87505839D01*
X125666890Y-87528366D01*
X125635569Y-87545107D01*
X125601591Y-87555415D01*
X125560110Y-87559500D01*
X124883890Y-87559500D01*
X124842409Y-87555415D01*
X124808431Y-87545107D01*
X124777110Y-87528366D01*
X124749661Y-87505839D01*
X124727134Y-87478390D01*
X124710393Y-87447069D01*
X124700085Y-87413091D01*
X124696000Y-87371610D01*
X124696000Y-86770390D01*
X124700085Y-86728909D01*
X124710393Y-86694931D01*
X124727134Y-86663610D01*
X124749661Y-86636161D01*
X124777110Y-86613634D01*
X124808431Y-86596893D01*
X124842409Y-86586585D01*
X124883890Y-86582500D01*
X125560110Y-86582500D01*
X125601591Y-86586585D01*
G37*
G36*
X148367000Y-87311000D02*
G01*
X145765000Y-87311000D01*
X145765000Y-85409000D01*
X148367000Y-85409000D01*
X148367000Y-87311000D01*
G37*
G36*
X144367000Y-87311000D02*
G01*
X141765000Y-87311000D01*
X141765000Y-85409000D01*
X144367000Y-85409000D01*
X144367000Y-87311000D01*
G37*
G36*
X169323000Y-87178000D02*
G01*
X168161000Y-87178000D01*
X168161000Y-84526000D01*
X169323000Y-84526000D01*
X169323000Y-87178000D01*
G37*
G36*
X171523000Y-87178000D02*
G01*
X170361000Y-87178000D01*
X170361000Y-86426000D01*
X171523000Y-86426000D01*
X171523000Y-87178000D01*
G37*
G36*
X123671000Y-87147000D02*
G01*
X122569000Y-87147000D01*
X122569000Y-86345000D01*
X123671000Y-86345000D01*
X123671000Y-87147000D01*
G37*
G36*
X151935000Y-82759678D02*
G01*
X151937402Y-82784064D01*
X151944515Y-82807513D01*
X151957596Y-82831360D01*
X152466022Y-83557683D01*
X152481974Y-83576284D01*
X152501248Y-83591415D01*
X152523104Y-83602495D01*
X152535000Y-83605824D01*
X152535000Y-83616822D01*
X152537402Y-83641208D01*
X152544515Y-83664657D01*
X152557596Y-83688504D01*
X152581953Y-83723300D01*
X152595026Y-83741975D01*
X152590553Y-83744366D01*
X152571611Y-83759911D01*
X152556066Y-83778853D01*
X152544515Y-83800464D01*
X152537402Y-83823913D01*
X152535000Y-83848299D01*
X152535000Y-85314501D01*
X152537402Y-85338887D01*
X152544515Y-85362336D01*
X152556066Y-85383947D01*
X152571611Y-85402889D01*
X152590553Y-85418434D01*
X152595450Y-85421051D01*
X152557879Y-85474276D01*
X152545778Y-85495584D01*
X152538067Y-85518843D01*
X152535000Y-85546361D01*
X152535000Y-85557735D01*
X152519243Y-85562515D01*
X152497632Y-85574066D01*
X152478690Y-85589611D01*
X152464958Y-85605914D01*
X151910426Y-86391500D01*
X150857574Y-86391500D01*
X150303042Y-85605914D01*
X150287017Y-85587377D01*
X150267683Y-85572322D01*
X150245784Y-85561328D01*
X150233000Y-85557805D01*
X150233000Y-85546361D01*
X150230598Y-85521975D01*
X150223485Y-85498526D01*
X150210121Y-85474276D01*
X150172550Y-85421051D01*
X150177447Y-85418434D01*
X150196389Y-85402889D01*
X150211934Y-85383947D01*
X150223485Y-85362336D01*
X150230598Y-85338887D01*
X150233000Y-85314501D01*
X150233000Y-83848299D01*
X150230598Y-83823913D01*
X150223485Y-83800464D01*
X150211934Y-83778853D01*
X150196389Y-83759911D01*
X150177447Y-83744366D01*
X150172974Y-83741975D01*
X150210404Y-83688504D01*
X150222421Y-83667149D01*
X150230041Y-83643860D01*
X150233000Y-83616822D01*
X150233000Y-83605856D01*
X150247410Y-83601485D01*
X150269021Y-83589934D01*
X150287963Y-83574389D01*
X150301978Y-83557683D01*
X150810404Y-82831360D01*
X150822421Y-82810005D01*
X150830041Y-82786716D01*
X150833000Y-82759678D01*
X150833000Y-80964000D01*
X151935000Y-80964000D01*
X151935000Y-82759678D01*
G37*
G36*
X163317000Y-86347000D02*
G01*
X160665000Y-86347000D01*
X160665000Y-85185000D01*
X163317000Y-85185000D01*
X163317000Y-86347000D01*
G37*
G36*
X175195000Y-86201000D02*
G01*
X173293000Y-86201000D01*
X173293000Y-83599000D01*
X175195000Y-83599000D01*
X175195000Y-86201000D01*
G37*
G36*
X166495591Y-84910585D02*
G01*
X166529569Y-84920893D01*
X166560890Y-84937634D01*
X166588339Y-84960161D01*
X166610866Y-84987610D01*
X166627607Y-85018931D01*
X166637915Y-85052909D01*
X166642000Y-85094390D01*
X166642000Y-85695610D01*
X166637915Y-85737091D01*
X166627607Y-85771069D01*
X166610866Y-85802390D01*
X166588339Y-85829839D01*
X166560890Y-85852366D01*
X166529569Y-85869107D01*
X166495591Y-85879415D01*
X166454110Y-85883500D01*
X165777890Y-85883500D01*
X165736409Y-85879415D01*
X165702431Y-85869107D01*
X165671110Y-85852366D01*
X165643661Y-85829839D01*
X165621134Y-85802390D01*
X165604393Y-85771069D01*
X165594085Y-85737091D01*
X165590000Y-85695610D01*
X165590000Y-85094390D01*
X165594085Y-85052909D01*
X165604393Y-85018931D01*
X165621134Y-84987610D01*
X165643661Y-84960161D01*
X165671110Y-84937634D01*
X165702431Y-84920893D01*
X165736409Y-84910585D01*
X165777890Y-84906500D01*
X166454110Y-84906500D01*
X166495591Y-84910585D01*
G37*
G36*
X171523000Y-85278000D02*
G01*
X170361000Y-85278000D01*
X170361000Y-84526000D01*
X171523000Y-84526000D01*
X171523000Y-85278000D01*
G37*
G36*
X157810468Y-84145065D02*
G01*
X157849138Y-84156796D01*
X157884777Y-84175846D01*
X157916017Y-84201483D01*
X157941654Y-84232723D01*
X157960704Y-84268362D01*
X157972435Y-84307032D01*
X157977000Y-84353388D01*
X157977000Y-85004612D01*
X157972435Y-85050968D01*
X157960704Y-85089638D01*
X157941654Y-85125277D01*
X157916017Y-85156517D01*
X157884777Y-85182154D01*
X157849138Y-85201204D01*
X157810468Y-85212935D01*
X157764112Y-85217500D01*
X156687888Y-85217500D01*
X156641532Y-85212935D01*
X156602862Y-85201204D01*
X156567223Y-85182154D01*
X156535983Y-85156517D01*
X156510346Y-85125277D01*
X156491296Y-85089638D01*
X156479565Y-85050968D01*
X156475000Y-85004612D01*
X156475000Y-84353388D01*
X156479565Y-84307032D01*
X156491296Y-84268362D01*
X156510346Y-84232723D01*
X156535983Y-84201483D01*
X156567223Y-84175846D01*
X156602862Y-84156796D01*
X156641532Y-84145065D01*
X156687888Y-84140500D01*
X157764112Y-84140500D01*
X157810468Y-84145065D01*
G37*
G36*
X138784591Y-83361585D02*
G01*
X138818569Y-83371893D01*
X138849890Y-83388634D01*
X138877339Y-83411161D01*
X138899866Y-83438610D01*
X138916607Y-83469931D01*
X138926915Y-83503909D01*
X138931000Y-83545390D01*
X138931000Y-84221610D01*
X138926915Y-84263091D01*
X138916607Y-84297069D01*
X138899866Y-84328390D01*
X138877339Y-84355839D01*
X138849890Y-84378366D01*
X138818569Y-84395107D01*
X138784591Y-84405415D01*
X138743110Y-84409500D01*
X138141890Y-84409500D01*
X138100409Y-84405415D01*
X138066431Y-84395107D01*
X138035110Y-84378366D01*
X138007661Y-84355839D01*
X137985134Y-84328390D01*
X137968393Y-84297069D01*
X137958085Y-84263091D01*
X137954000Y-84221610D01*
X137954000Y-83545390D01*
X137958085Y-83503909D01*
X137968393Y-83469931D01*
X137985134Y-83438610D01*
X138007661Y-83411161D01*
X138035110Y-83388634D01*
X138066431Y-83371893D01*
X138100409Y-83361585D01*
X138141890Y-83357500D01*
X138743110Y-83357500D01*
X138784591Y-83361585D01*
G37*
G36*
X140359591Y-83361585D02*
G01*
X140393569Y-83371893D01*
X140424890Y-83388634D01*
X140452339Y-83411161D01*
X140474866Y-83438610D01*
X140491607Y-83469931D01*
X140501915Y-83503909D01*
X140506000Y-83545390D01*
X140506000Y-84221610D01*
X140501915Y-84263091D01*
X140491607Y-84297069D01*
X140474866Y-84328390D01*
X140452339Y-84355839D01*
X140424890Y-84378366D01*
X140393569Y-84395107D01*
X140359591Y-84405415D01*
X140318110Y-84409500D01*
X139716890Y-84409500D01*
X139675409Y-84405415D01*
X139641431Y-84395107D01*
X139610110Y-84378366D01*
X139582661Y-84355839D01*
X139560134Y-84328390D01*
X139543393Y-84297069D01*
X139533085Y-84263091D01*
X139529000Y-84221610D01*
X139529000Y-83545390D01*
X139533085Y-83503909D01*
X139543393Y-83469931D01*
X139560134Y-83438610D01*
X139582661Y-83411161D01*
X139610110Y-83388634D01*
X139641431Y-83371893D01*
X139675409Y-83361585D01*
X139716890Y-83357500D01*
X140318110Y-83357500D01*
X140359591Y-83361585D01*
G37*
G36*
X166495591Y-83335585D02*
G01*
X166529569Y-83345893D01*
X166560890Y-83362634D01*
X166588339Y-83385161D01*
X166610866Y-83412610D01*
X166627607Y-83443931D01*
X166637915Y-83477909D01*
X166642000Y-83519390D01*
X166642000Y-84120610D01*
X166637915Y-84162091D01*
X166627607Y-84196069D01*
X166610866Y-84227390D01*
X166588339Y-84254839D01*
X166560890Y-84277366D01*
X166529569Y-84294107D01*
X166495591Y-84304415D01*
X166454110Y-84308500D01*
X165777890Y-84308500D01*
X165736409Y-84304415D01*
X165702431Y-84294107D01*
X165671110Y-84277366D01*
X165643661Y-84254839D01*
X165621134Y-84227390D01*
X165604393Y-84196069D01*
X165594085Y-84162091D01*
X165590000Y-84120610D01*
X165590000Y-83519390D01*
X165594085Y-83477909D01*
X165604393Y-83443931D01*
X165621134Y-83412610D01*
X165643661Y-83385161D01*
X165671110Y-83362634D01*
X165702431Y-83345893D01*
X165736409Y-83335585D01*
X165777890Y-83331500D01*
X166454110Y-83331500D01*
X166495591Y-83335585D01*
G37*
G36*
X147547000Y-84155000D02*
G01*
X146445000Y-84155000D01*
X146445000Y-83353000D01*
X147547000Y-83353000D01*
X147547000Y-84155000D01*
G37*
G36*
X163317000Y-84147000D02*
G01*
X160665000Y-84147000D01*
X160665000Y-82985000D01*
X163317000Y-82985000D01*
X163317000Y-84147000D01*
G37*
G36*
X157810468Y-82270065D02*
G01*
X157849138Y-82281796D01*
X157884777Y-82300846D01*
X157916017Y-82326483D01*
X157941654Y-82357723D01*
X157960704Y-82393362D01*
X157972435Y-82432032D01*
X157977000Y-82478388D01*
X157977000Y-83129612D01*
X157972435Y-83175968D01*
X157960704Y-83214638D01*
X157941654Y-83250277D01*
X157916017Y-83281517D01*
X157884777Y-83307154D01*
X157849138Y-83326204D01*
X157810468Y-83337935D01*
X157764112Y-83342500D01*
X156687888Y-83342500D01*
X156641532Y-83337935D01*
X156602862Y-83326204D01*
X156567223Y-83307154D01*
X156535983Y-83281517D01*
X156510346Y-83250277D01*
X156491296Y-83214638D01*
X156479565Y-83175968D01*
X156475000Y-83129612D01*
X156475000Y-82478388D01*
X156479565Y-82432032D01*
X156491296Y-82393362D01*
X156510346Y-82357723D01*
X156535983Y-82326483D01*
X156567223Y-82300846D01*
X156602862Y-82281796D01*
X156641532Y-82270065D01*
X156687888Y-82265500D01*
X157764112Y-82265500D01*
X157810468Y-82270065D01*
G37*
G36*
X145147000Y-83205000D02*
G01*
X144045000Y-83205000D01*
X144045000Y-82403000D01*
X145147000Y-82403000D01*
X145147000Y-83205000D01*
G37*
G36*
X138784591Y-81710585D02*
G01*
X138818569Y-81720893D01*
X138849890Y-81737634D01*
X138877339Y-81760161D01*
X138899866Y-81787610D01*
X138916607Y-81818931D01*
X138926915Y-81852909D01*
X138931000Y-81894390D01*
X138931000Y-82570610D01*
X138926915Y-82612091D01*
X138916607Y-82646069D01*
X138899866Y-82677390D01*
X138877339Y-82704839D01*
X138849890Y-82727366D01*
X138818569Y-82744107D01*
X138784591Y-82754415D01*
X138743110Y-82758500D01*
X138141890Y-82758500D01*
X138100409Y-82754415D01*
X138066431Y-82744107D01*
X138035110Y-82727366D01*
X138007661Y-82704839D01*
X137985134Y-82677390D01*
X137968393Y-82646069D01*
X137958085Y-82612091D01*
X137954000Y-82570610D01*
X137954000Y-81894390D01*
X137958085Y-81852909D01*
X137968393Y-81818931D01*
X137985134Y-81787610D01*
X138007661Y-81760161D01*
X138035110Y-81737634D01*
X138066431Y-81720893D01*
X138100409Y-81710585D01*
X138141890Y-81706500D01*
X138743110Y-81706500D01*
X138784591Y-81710585D01*
G37*
G36*
X140359591Y-81710585D02*
G01*
X140393569Y-81720893D01*
X140424890Y-81737634D01*
X140452339Y-81760161D01*
X140474866Y-81787610D01*
X140491607Y-81818931D01*
X140501915Y-81852909D01*
X140506000Y-81894390D01*
X140506000Y-82570610D01*
X140501915Y-82612091D01*
X140491607Y-82646069D01*
X140474866Y-82677390D01*
X140452339Y-82704839D01*
X140424890Y-82727366D01*
X140393569Y-82744107D01*
X140359591Y-82754415D01*
X140318110Y-82758500D01*
X139716890Y-82758500D01*
X139675409Y-82754415D01*
X139641431Y-82744107D01*
X139610110Y-82727366D01*
X139582661Y-82704839D01*
X139560134Y-82677390D01*
X139543393Y-82646069D01*
X139533085Y-82612091D01*
X139529000Y-82570610D01*
X139529000Y-81894390D01*
X139533085Y-81852909D01*
X139543393Y-81818931D01*
X139560134Y-81787610D01*
X139582661Y-81760161D01*
X139610110Y-81737634D01*
X139641431Y-81720893D01*
X139675409Y-81710585D01*
X139716890Y-81706500D01*
X140318110Y-81706500D01*
X140359591Y-81710585D01*
G37*
G36*
X150435000Y-82569500D02*
G01*
X149333000Y-82569500D01*
X149333000Y-80967500D01*
X150435000Y-80967500D01*
X150435000Y-82569500D01*
G37*
G36*
X153435000Y-82569500D02*
G01*
X152333000Y-82569500D01*
X152333000Y-80967500D01*
X153435000Y-80967500D01*
X153435000Y-82569500D01*
G37*
G36*
X163317000Y-82537000D02*
G01*
X160665000Y-82537000D01*
X160665000Y-81375000D01*
X163317000Y-81375000D01*
X163317000Y-82537000D01*
G37*
G36*
X169201091Y-81266085D02*
G01*
X169235069Y-81276393D01*
X169266390Y-81293134D01*
X169293839Y-81315661D01*
X169316366Y-81343110D01*
X169333107Y-81374431D01*
X169343415Y-81408409D01*
X169347500Y-81449890D01*
X169347500Y-82126110D01*
X169343415Y-82167591D01*
X169333107Y-82201569D01*
X169316366Y-82232890D01*
X169293839Y-82260339D01*
X169266390Y-82282866D01*
X169235069Y-82299607D01*
X169201091Y-82309915D01*
X169159610Y-82314000D01*
X168558390Y-82314000D01*
X168516909Y-82309915D01*
X168482931Y-82299607D01*
X168451610Y-82282866D01*
X168424161Y-82260339D01*
X168401634Y-82232890D01*
X168384893Y-82201569D01*
X168374585Y-82167591D01*
X168370500Y-82126110D01*
X168370500Y-81449890D01*
X168374585Y-81408409D01*
X168384893Y-81374431D01*
X168401634Y-81343110D01*
X168424161Y-81315661D01*
X168451610Y-81293134D01*
X168482931Y-81276393D01*
X168516909Y-81266085D01*
X168558390Y-81262000D01*
X169159610Y-81262000D01*
X169201091Y-81266085D01*
G37*
G36*
X173011091Y-81266085D02*
G01*
X173045069Y-81276393D01*
X173076390Y-81293134D01*
X173103839Y-81315661D01*
X173126366Y-81343110D01*
X173143107Y-81374431D01*
X173153415Y-81408409D01*
X173157500Y-81449890D01*
X173157500Y-82126110D01*
X173153415Y-82167591D01*
X173143107Y-82201569D01*
X173126366Y-82232890D01*
X173103839Y-82260339D01*
X173076390Y-82282866D01*
X173045069Y-82299607D01*
X173011091Y-82309915D01*
X172969610Y-82314000D01*
X172368390Y-82314000D01*
X172326909Y-82309915D01*
X172292931Y-82299607D01*
X172261610Y-82282866D01*
X172234161Y-82260339D01*
X172211634Y-82232890D01*
X172194893Y-82201569D01*
X172184585Y-82167591D01*
X172180500Y-82126110D01*
X172180500Y-81449890D01*
X172184585Y-81408409D01*
X172194893Y-81374431D01*
X172211634Y-81343110D01*
X172234161Y-81315661D01*
X172261610Y-81293134D01*
X172292931Y-81276393D01*
X172326909Y-81266085D01*
X172368390Y-81262000D01*
X172969610Y-81262000D01*
X173011091Y-81266085D01*
G37*
G36*
X174586091Y-81266085D02*
G01*
X174620069Y-81276393D01*
X174651390Y-81293134D01*
X174678839Y-81315661D01*
X174701366Y-81343110D01*
X174718107Y-81374431D01*
X174728415Y-81408409D01*
X174732500Y-81449890D01*
X174732500Y-82126110D01*
X174728415Y-82167591D01*
X174718107Y-82201569D01*
X174701366Y-82232890D01*
X174678839Y-82260339D01*
X174651390Y-82282866D01*
X174620069Y-82299607D01*
X174586091Y-82309915D01*
X174544610Y-82314000D01*
X173943390Y-82314000D01*
X173901909Y-82309915D01*
X173867931Y-82299607D01*
X173836610Y-82282866D01*
X173809161Y-82260339D01*
X173786634Y-82232890D01*
X173769893Y-82201569D01*
X173759585Y-82167591D01*
X173755500Y-82126110D01*
X173755500Y-81449890D01*
X173759585Y-81408409D01*
X173769893Y-81374431D01*
X173786634Y-81343110D01*
X173809161Y-81315661D01*
X173836610Y-81293134D01*
X173867931Y-81276393D01*
X173901909Y-81266085D01*
X173943390Y-81262000D01*
X174544610Y-81262000D01*
X174586091Y-81266085D01*
G37*
G36*
X170776091Y-81266085D02*
G01*
X170810069Y-81276393D01*
X170841390Y-81293134D01*
X170868839Y-81315661D01*
X170891366Y-81343110D01*
X170908107Y-81374431D01*
X170918415Y-81408409D01*
X170922500Y-81449890D01*
X170922500Y-82126110D01*
X170918415Y-82167591D01*
X170908107Y-82201569D01*
X170891366Y-82232890D01*
X170868839Y-82260339D01*
X170841390Y-82282866D01*
X170810069Y-82299607D01*
X170776091Y-82309915D01*
X170734610Y-82314000D01*
X170133390Y-82314000D01*
X170091909Y-82309915D01*
X170057931Y-82299607D01*
X170026610Y-82282866D01*
X169999161Y-82260339D01*
X169976634Y-82232890D01*
X169959893Y-82201569D01*
X169949585Y-82167591D01*
X169945500Y-82126110D01*
X169945500Y-81449890D01*
X169949585Y-81408409D01*
X169959893Y-81374431D01*
X169976634Y-81343110D01*
X169999161Y-81315661D01*
X170026610Y-81293134D01*
X170057931Y-81276393D01*
X170091909Y-81266085D01*
X170133390Y-81262000D01*
X170734610Y-81262000D01*
X170776091Y-81266085D01*
G37*
G36*
X147547000Y-82255000D02*
G01*
X146445000Y-82255000D01*
X146445000Y-81453000D01*
X147547000Y-81453000D01*
X147547000Y-82255000D01*
G37*
G36*
X166495591Y-81100585D02*
G01*
X166529569Y-81110893D01*
X166560890Y-81127634D01*
X166588339Y-81150161D01*
X166610866Y-81177610D01*
X166627607Y-81208931D01*
X166637915Y-81242909D01*
X166642000Y-81284390D01*
X166642000Y-81885610D01*
X166637915Y-81927091D01*
X166627607Y-81961069D01*
X166610866Y-81992390D01*
X166588339Y-82019839D01*
X166560890Y-82042366D01*
X166529569Y-82059107D01*
X166495591Y-82069415D01*
X166454110Y-82073500D01*
X165777890Y-82073500D01*
X165736409Y-82069415D01*
X165702431Y-82059107D01*
X165671110Y-82042366D01*
X165643661Y-82019839D01*
X165621134Y-81992390D01*
X165604393Y-81961069D01*
X165594085Y-81927091D01*
X165590000Y-81885610D01*
X165590000Y-81284390D01*
X165594085Y-81242909D01*
X165604393Y-81208931D01*
X165621134Y-81177610D01*
X165643661Y-81150161D01*
X165671110Y-81127634D01*
X165702431Y-81110893D01*
X165736409Y-81100585D01*
X165777890Y-81096500D01*
X166454110Y-81096500D01*
X166495591Y-81100585D01*
G37*
G36*
X157605591Y-80592585D02*
G01*
X157639569Y-80602893D01*
X157670890Y-80619634D01*
X157698339Y-80642161D01*
X157720866Y-80669610D01*
X157737607Y-80700931D01*
X157747915Y-80734909D01*
X157752000Y-80776390D01*
X157752000Y-81377610D01*
X157747915Y-81419091D01*
X157737607Y-81453069D01*
X157720866Y-81484390D01*
X157698339Y-81511839D01*
X157670890Y-81534366D01*
X157639569Y-81551107D01*
X157605591Y-81561415D01*
X157564110Y-81565500D01*
X156887890Y-81565500D01*
X156846409Y-81561415D01*
X156812431Y-81551107D01*
X156781110Y-81534366D01*
X156753661Y-81511839D01*
X156731134Y-81484390D01*
X156714393Y-81453069D01*
X156704085Y-81419091D01*
X156700000Y-81377610D01*
X156700000Y-80776390D01*
X156704085Y-80734909D01*
X156714393Y-80700931D01*
X156731134Y-80669610D01*
X156753661Y-80642161D01*
X156781110Y-80619634D01*
X156812431Y-80602893D01*
X156846409Y-80592585D01*
X156887890Y-80588500D01*
X157564110Y-80588500D01*
X157605591Y-80592585D01*
G37*
G36*
X133163295Y-79349823D02*
G01*
X133170309Y-79351951D01*
X133184077Y-79359310D01*
X133206716Y-79368687D01*
X133230749Y-79373467D01*
X133255253Y-79373467D01*
X133279286Y-79368686D01*
X133301923Y-79359310D01*
X133315691Y-79351951D01*
X133322705Y-79349823D01*
X133336140Y-79348500D01*
X133649860Y-79348500D01*
X133663295Y-79349823D01*
X133670309Y-79351951D01*
X133684077Y-79359310D01*
X133706716Y-79368687D01*
X133730749Y-79373467D01*
X133755253Y-79373467D01*
X133779286Y-79368686D01*
X133801923Y-79359310D01*
X133815691Y-79351951D01*
X133822705Y-79349823D01*
X133836140Y-79348500D01*
X134149860Y-79348500D01*
X134163295Y-79349823D01*
X134170309Y-79351951D01*
X134184077Y-79359310D01*
X134206716Y-79368687D01*
X134230749Y-79373467D01*
X134255253Y-79373467D01*
X134279286Y-79368686D01*
X134301923Y-79359310D01*
X134315691Y-79351951D01*
X134322705Y-79349823D01*
X134336140Y-79348500D01*
X134649860Y-79348500D01*
X134663295Y-79349823D01*
X134670309Y-79351951D01*
X134684077Y-79359310D01*
X134706716Y-79368687D01*
X134730749Y-79373467D01*
X134755253Y-79373467D01*
X134779286Y-79368686D01*
X134801923Y-79359310D01*
X134815691Y-79351951D01*
X134822705Y-79349823D01*
X134836140Y-79348500D01*
X135149860Y-79348500D01*
X135163295Y-79349823D01*
X135170309Y-79351951D01*
X135184077Y-79359310D01*
X135206716Y-79368687D01*
X135230749Y-79373467D01*
X135255253Y-79373467D01*
X135279286Y-79368686D01*
X135301923Y-79359310D01*
X135315691Y-79351951D01*
X135322705Y-79349823D01*
X135336140Y-79348500D01*
X135649860Y-79348500D01*
X135663295Y-79349823D01*
X135670309Y-79351951D01*
X135684077Y-79359310D01*
X135706716Y-79368687D01*
X135730749Y-79373467D01*
X135755253Y-79373467D01*
X135779286Y-79368686D01*
X135801923Y-79359310D01*
X135815691Y-79351951D01*
X135822705Y-79349823D01*
X135836140Y-79348500D01*
X136149860Y-79348500D01*
X136163295Y-79349823D01*
X136170309Y-79351951D01*
X136184077Y-79359310D01*
X136206716Y-79368687D01*
X136230749Y-79373467D01*
X136255253Y-79373467D01*
X136279286Y-79368686D01*
X136301923Y-79359310D01*
X136315691Y-79351951D01*
X136322705Y-79349823D01*
X136336140Y-79348500D01*
X136649860Y-79348500D01*
X136663295Y-79349823D01*
X136670309Y-79351951D01*
X136684077Y-79359310D01*
X136706716Y-79368687D01*
X136730749Y-79373467D01*
X136755253Y-79373467D01*
X136779286Y-79368686D01*
X136801923Y-79359310D01*
X136815691Y-79351951D01*
X136822705Y-79349823D01*
X136836140Y-79348500D01*
X137149860Y-79348500D01*
X137163295Y-79349823D01*
X137170309Y-79351951D01*
X137184077Y-79359310D01*
X137206716Y-79368687D01*
X137230749Y-79373467D01*
X137255253Y-79373467D01*
X137279286Y-79368686D01*
X137301923Y-79359310D01*
X137315691Y-79351951D01*
X137322705Y-79349823D01*
X137336140Y-79348500D01*
X137649860Y-79348500D01*
X137663295Y-79349823D01*
X137670309Y-79351951D01*
X137684077Y-79359310D01*
X137706716Y-79368687D01*
X137730749Y-79373467D01*
X137755253Y-79373467D01*
X137779286Y-79368686D01*
X137801923Y-79359310D01*
X137815691Y-79351951D01*
X137822705Y-79349823D01*
X137836140Y-79348500D01*
X138149860Y-79348500D01*
X138163295Y-79349823D01*
X138170309Y-79351951D01*
X138184077Y-79359310D01*
X138206716Y-79368687D01*
X138230749Y-79373467D01*
X138255253Y-79373467D01*
X138279286Y-79368686D01*
X138301923Y-79359310D01*
X138315691Y-79351951D01*
X138322705Y-79349823D01*
X138336140Y-79348500D01*
X138649860Y-79348500D01*
X138663295Y-79349823D01*
X138670310Y-79351951D01*
X138676776Y-79355408D01*
X138682442Y-79360058D01*
X138687092Y-79365724D01*
X138690549Y-79372190D01*
X138692677Y-79379205D01*
X138694000Y-79392640D01*
X138694000Y-80881360D01*
X138692677Y-80894795D01*
X138690549Y-80901810D01*
X138687092Y-80908276D01*
X138682442Y-80913942D01*
X138676776Y-80918592D01*
X138670310Y-80922049D01*
X138663295Y-80924177D01*
X138649860Y-80925500D01*
X138336140Y-80925500D01*
X138322705Y-80924177D01*
X138315691Y-80922049D01*
X138301923Y-80914690D01*
X138279284Y-80905313D01*
X138255251Y-80900533D01*
X138230747Y-80900533D01*
X138206714Y-80905314D01*
X138184077Y-80914690D01*
X138170309Y-80922049D01*
X138163295Y-80924177D01*
X138149860Y-80925500D01*
X137836140Y-80925500D01*
X137822705Y-80924177D01*
X137815691Y-80922049D01*
X137801923Y-80914690D01*
X137779284Y-80905313D01*
X137755251Y-80900533D01*
X137730747Y-80900533D01*
X137706714Y-80905314D01*
X137684077Y-80914690D01*
X137670309Y-80922049D01*
X137663295Y-80924177D01*
X137649860Y-80925500D01*
X137336140Y-80925500D01*
X137322705Y-80924177D01*
X137315691Y-80922049D01*
X137301923Y-80914690D01*
X137279284Y-80905313D01*
X137255251Y-80900533D01*
X137230747Y-80900533D01*
X137206714Y-80905314D01*
X137184077Y-80914690D01*
X137170309Y-80922049D01*
X137163295Y-80924177D01*
X137149860Y-80925500D01*
X136836140Y-80925500D01*
X136822705Y-80924177D01*
X136815691Y-80922049D01*
X136801923Y-80914690D01*
X136779284Y-80905313D01*
X136755251Y-80900533D01*
X136730747Y-80900533D01*
X136706714Y-80905314D01*
X136684077Y-80914690D01*
X136670309Y-80922049D01*
X136663295Y-80924177D01*
X136649860Y-80925500D01*
X136336140Y-80925500D01*
X136322705Y-80924177D01*
X136315691Y-80922049D01*
X136301923Y-80914690D01*
X136279284Y-80905313D01*
X136255251Y-80900533D01*
X136230747Y-80900533D01*
X136206714Y-80905314D01*
X136184077Y-80914690D01*
X136170309Y-80922049D01*
X136163295Y-80924177D01*
X136149860Y-80925500D01*
X135836140Y-80925500D01*
X135822705Y-80924177D01*
X135815691Y-80922049D01*
X135801923Y-80914690D01*
X135779284Y-80905313D01*
X135755251Y-80900533D01*
X135730747Y-80900533D01*
X135706714Y-80905314D01*
X135684077Y-80914690D01*
X135670309Y-80922049D01*
X135663295Y-80924177D01*
X135649860Y-80925500D01*
X135336140Y-80925500D01*
X135322705Y-80924177D01*
X135315691Y-80922049D01*
X135301923Y-80914690D01*
X135279284Y-80905313D01*
X135255251Y-80900533D01*
X135230747Y-80900533D01*
X135206714Y-80905314D01*
X135184077Y-80914690D01*
X135170309Y-80922049D01*
X135163295Y-80924177D01*
X135149860Y-80925500D01*
X134836140Y-80925500D01*
X134822705Y-80924177D01*
X134815691Y-80922049D01*
X134801923Y-80914690D01*
X134779284Y-80905313D01*
X134755251Y-80900533D01*
X134730747Y-80900533D01*
X134706714Y-80905314D01*
X134684077Y-80914690D01*
X134670309Y-80922049D01*
X134663295Y-80924177D01*
X134649860Y-80925500D01*
X134336140Y-80925500D01*
X134322705Y-80924177D01*
X134315691Y-80922049D01*
X134301923Y-80914690D01*
X134279284Y-80905313D01*
X134255251Y-80900533D01*
X134230747Y-80900533D01*
X134206714Y-80905314D01*
X134184077Y-80914690D01*
X134170309Y-80922049D01*
X134163295Y-80924177D01*
X134149860Y-80925500D01*
X133836140Y-80925500D01*
X133822705Y-80924177D01*
X133815691Y-80922049D01*
X133801923Y-80914690D01*
X133779284Y-80905313D01*
X133755251Y-80900533D01*
X133730747Y-80900533D01*
X133706714Y-80905314D01*
X133684077Y-80914690D01*
X133670309Y-80922049D01*
X133663295Y-80924177D01*
X133649860Y-80925500D01*
X133336140Y-80925500D01*
X133322705Y-80924177D01*
X133315691Y-80922049D01*
X133301923Y-80914690D01*
X133279284Y-80905313D01*
X133255251Y-80900533D01*
X133230747Y-80900533D01*
X133206714Y-80905314D01*
X133184077Y-80914690D01*
X133170309Y-80922049D01*
X133163295Y-80924177D01*
X133149860Y-80925500D01*
X132836140Y-80925500D01*
X132822705Y-80924177D01*
X132815690Y-80922049D01*
X132809224Y-80918592D01*
X132803558Y-80913942D01*
X132798908Y-80908276D01*
X132795451Y-80901810D01*
X132793323Y-80894795D01*
X132792000Y-80881360D01*
X132792000Y-79392640D01*
X132793323Y-79379205D01*
X132795451Y-79372190D01*
X132798908Y-79365724D01*
X132803558Y-79360058D01*
X132809224Y-79355408D01*
X132815690Y-79351951D01*
X132822705Y-79349823D01*
X132836140Y-79348500D01*
X133149860Y-79348500D01*
X133163295Y-79349823D01*
G37*
G36*
X166495591Y-79525585D02*
G01*
X166529569Y-79535893D01*
X166560890Y-79552634D01*
X166588339Y-79575161D01*
X166610866Y-79602610D01*
X166627607Y-79633931D01*
X166637915Y-79667909D01*
X166642000Y-79709390D01*
X166642000Y-80310610D01*
X166637915Y-80352091D01*
X166627607Y-80386069D01*
X166610866Y-80417390D01*
X166588339Y-80444839D01*
X166560890Y-80467366D01*
X166529569Y-80484107D01*
X166495591Y-80494415D01*
X166454110Y-80498500D01*
X165777890Y-80498500D01*
X165736409Y-80494415D01*
X165702431Y-80484107D01*
X165671110Y-80467366D01*
X165643661Y-80444839D01*
X165621134Y-80417390D01*
X165604393Y-80386069D01*
X165594085Y-80352091D01*
X165590000Y-80310610D01*
X165590000Y-79709390D01*
X165594085Y-79667909D01*
X165604393Y-79633931D01*
X165621134Y-79602610D01*
X165643661Y-79575161D01*
X165671110Y-79552634D01*
X165702431Y-79535893D01*
X165736409Y-79525585D01*
X165777890Y-79521500D01*
X166454110Y-79521500D01*
X166495591Y-79525585D01*
G37*
G36*
X163317000Y-80337000D02*
G01*
X160665000Y-80337000D01*
X160665000Y-79175000D01*
X163317000Y-79175000D01*
X163317000Y-80337000D01*
G37*
G36*
X170776091Y-79234085D02*
G01*
X170810069Y-79244393D01*
X170841390Y-79261134D01*
X170868839Y-79283661D01*
X170891366Y-79311110D01*
X170908107Y-79342431D01*
X170918415Y-79376409D01*
X170922500Y-79417890D01*
X170922500Y-80094110D01*
X170918415Y-80135591D01*
X170908107Y-80169569D01*
X170891366Y-80200890D01*
X170868839Y-80228339D01*
X170841390Y-80250866D01*
X170810069Y-80267607D01*
X170776091Y-80277915D01*
X170734610Y-80282000D01*
X170133390Y-80282000D01*
X170091909Y-80277915D01*
X170057931Y-80267607D01*
X170026610Y-80250866D01*
X169999161Y-80228339D01*
X169976634Y-80200890D01*
X169959893Y-80169569D01*
X169949585Y-80135591D01*
X169945500Y-80094110D01*
X169945500Y-79417890D01*
X169949585Y-79376409D01*
X169959893Y-79342431D01*
X169976634Y-79311110D01*
X169999161Y-79283661D01*
X170026610Y-79261134D01*
X170057931Y-79244393D01*
X170091909Y-79234085D01*
X170133390Y-79230000D01*
X170734610Y-79230000D01*
X170776091Y-79234085D01*
G37*
G36*
X169201091Y-79234085D02*
G01*
X169235069Y-79244393D01*
X169266390Y-79261134D01*
X169293839Y-79283661D01*
X169316366Y-79311110D01*
X169333107Y-79342431D01*
X169343415Y-79376409D01*
X169347500Y-79417890D01*
X169347500Y-80094110D01*
X169343415Y-80135591D01*
X169333107Y-80169569D01*
X169316366Y-80200890D01*
X169293839Y-80228339D01*
X169266390Y-80250866D01*
X169235069Y-80267607D01*
X169201091Y-80277915D01*
X169159610Y-80282000D01*
X168558390Y-80282000D01*
X168516909Y-80277915D01*
X168482931Y-80267607D01*
X168451610Y-80250866D01*
X168424161Y-80228339D01*
X168401634Y-80200890D01*
X168384893Y-80169569D01*
X168374585Y-80135591D01*
X168370500Y-80094110D01*
X168370500Y-79417890D01*
X168374585Y-79376409D01*
X168384893Y-79342431D01*
X168401634Y-79311110D01*
X168424161Y-79283661D01*
X168451610Y-79261134D01*
X168482931Y-79244393D01*
X168516909Y-79234085D01*
X168558390Y-79230000D01*
X169159610Y-79230000D01*
X169201091Y-79234085D01*
G37*
G36*
X150310468Y-78501565D02*
G01*
X150349138Y-78513296D01*
X150384777Y-78532346D01*
X150416017Y-78557983D01*
X150441654Y-78589223D01*
X150460704Y-78624862D01*
X150472435Y-78663532D01*
X150477000Y-78709888D01*
X150477000Y-79786112D01*
X150472435Y-79832468D01*
X150460704Y-79871138D01*
X150441654Y-79906777D01*
X150416017Y-79938017D01*
X150384777Y-79963654D01*
X150349138Y-79982704D01*
X150310468Y-79994435D01*
X150264112Y-79999000D01*
X149612888Y-79999000D01*
X149566532Y-79994435D01*
X149527862Y-79982704D01*
X149492223Y-79963654D01*
X149460983Y-79938017D01*
X149435346Y-79906777D01*
X149416296Y-79871138D01*
X149404565Y-79832468D01*
X149400000Y-79786112D01*
X149400000Y-78709888D01*
X149404565Y-78663532D01*
X149416296Y-78624862D01*
X149435346Y-78589223D01*
X149460983Y-78557983D01*
X149492223Y-78532346D01*
X149527862Y-78513296D01*
X149566532Y-78501565D01*
X149612888Y-78497000D01*
X150264112Y-78497000D01*
X150310468Y-78501565D01*
G37*
G36*
X152185468Y-78501565D02*
G01*
X152224138Y-78513296D01*
X152259777Y-78532346D01*
X152291017Y-78557983D01*
X152316654Y-78589223D01*
X152335704Y-78624862D01*
X152347435Y-78663532D01*
X152352000Y-78709888D01*
X152352000Y-79786112D01*
X152347435Y-79832468D01*
X152335704Y-79871138D01*
X152316654Y-79906777D01*
X152291017Y-79938017D01*
X152259777Y-79963654D01*
X152224138Y-79982704D01*
X152185468Y-79994435D01*
X152139112Y-79999000D01*
X151487888Y-79999000D01*
X151441532Y-79994435D01*
X151402862Y-79982704D01*
X151367223Y-79963654D01*
X151335983Y-79938017D01*
X151310346Y-79906777D01*
X151291296Y-79871138D01*
X151279565Y-79832468D01*
X151275000Y-79786112D01*
X151275000Y-78709888D01*
X151279565Y-78663532D01*
X151291296Y-78624862D01*
X151310346Y-78589223D01*
X151335983Y-78557983D01*
X151367223Y-78532346D01*
X151402862Y-78513296D01*
X151441532Y-78501565D01*
X151487888Y-78497000D01*
X152139112Y-78497000D01*
X152185468Y-78501565D01*
G37*
G36*
X157605591Y-79017585D02*
G01*
X157639569Y-79027893D01*
X157670890Y-79044634D01*
X157698339Y-79067161D01*
X157720866Y-79094610D01*
X157737607Y-79125931D01*
X157747915Y-79159909D01*
X157752000Y-79201390D01*
X157752000Y-79802610D01*
X157747915Y-79844091D01*
X157737607Y-79878069D01*
X157720866Y-79909390D01*
X157698339Y-79936839D01*
X157670890Y-79959366D01*
X157639569Y-79976107D01*
X157605591Y-79986415D01*
X157564110Y-79990500D01*
X156887890Y-79990500D01*
X156846409Y-79986415D01*
X156812431Y-79976107D01*
X156781110Y-79959366D01*
X156753661Y-79936839D01*
X156731134Y-79909390D01*
X156714393Y-79878069D01*
X156704085Y-79844091D01*
X156700000Y-79802610D01*
X156700000Y-79201390D01*
X156704085Y-79159909D01*
X156714393Y-79125931D01*
X156731134Y-79094610D01*
X156753661Y-79067161D01*
X156781110Y-79044634D01*
X156812431Y-79027893D01*
X156846409Y-79017585D01*
X156887890Y-79013500D01*
X157564110Y-79013500D01*
X157605591Y-79017585D01*
G37*
G36*
X176902724Y-76360497D02*
G01*
X177129906Y-76405686D01*
X177379412Y-76509035D01*
X177603962Y-76659075D01*
X177794925Y-76850038D01*
X177944965Y-77074588D01*
X178048314Y-77324094D01*
X178101000Y-77588968D01*
X178101000Y-77859032D01*
X178048314Y-78123906D01*
X177944965Y-78373412D01*
X177794925Y-78597962D01*
X177603962Y-78788925D01*
X177379412Y-78938965D01*
X177129906Y-79042314D01*
X176915110Y-79085039D01*
X176865033Y-79095000D01*
X176594967Y-79095000D01*
X176544890Y-79085039D01*
X176330094Y-79042314D01*
X176080588Y-78938965D01*
X175856038Y-78788925D01*
X175665075Y-78597962D01*
X175515035Y-78373412D01*
X175411686Y-78123906D01*
X175359000Y-77859032D01*
X175359000Y-77588968D01*
X175411686Y-77324094D01*
X175515035Y-77074588D01*
X175665075Y-76850038D01*
X175856038Y-76659075D01*
X176080588Y-76509035D01*
X176330094Y-76405686D01*
X176557276Y-76360497D01*
X176594967Y-76353000D01*
X176865033Y-76353000D01*
X176902724Y-76360497D01*
G37*
G36*
X132338295Y-73024823D02*
G01*
X132345310Y-73026951D01*
X132351776Y-73030408D01*
X132357442Y-73035058D01*
X132362092Y-73040724D01*
X132365549Y-73047190D01*
X132367677Y-73054205D01*
X132369000Y-73067640D01*
X132369000Y-73381360D01*
X132367677Y-73394795D01*
X132365549Y-73401809D01*
X132358190Y-73415577D01*
X132348813Y-73438216D01*
X132344033Y-73462249D01*
X132344033Y-73486753D01*
X132348814Y-73510786D01*
X132358190Y-73533423D01*
X132365549Y-73547191D01*
X132367677Y-73554205D01*
X132369000Y-73567640D01*
X132369000Y-73881360D01*
X132367677Y-73894795D01*
X132365549Y-73901809D01*
X132358190Y-73915577D01*
X132348813Y-73938216D01*
X132344033Y-73962249D01*
X132344033Y-73986753D01*
X132348814Y-74010786D01*
X132358190Y-74033423D01*
X132365549Y-74047191D01*
X132367677Y-74054205D01*
X132369000Y-74067640D01*
X132369000Y-74381360D01*
X132367677Y-74394795D01*
X132365549Y-74401809D01*
X132358190Y-74415577D01*
X132348813Y-74438216D01*
X132344033Y-74462249D01*
X132344033Y-74486753D01*
X132348814Y-74510786D01*
X132358190Y-74533423D01*
X132365549Y-74547191D01*
X132367677Y-74554205D01*
X132369000Y-74567640D01*
X132369000Y-74881360D01*
X132367677Y-74894795D01*
X132365549Y-74901809D01*
X132358190Y-74915577D01*
X132348813Y-74938216D01*
X132344033Y-74962249D01*
X132344033Y-74986753D01*
X132348814Y-75010786D01*
X132358190Y-75033423D01*
X132365549Y-75047191D01*
X132367677Y-75054205D01*
X132369000Y-75067640D01*
X132369000Y-75381360D01*
X132367677Y-75394795D01*
X132365549Y-75401809D01*
X132358190Y-75415577D01*
X132348813Y-75438216D01*
X132344033Y-75462249D01*
X132344033Y-75486753D01*
X132348814Y-75510786D01*
X132358190Y-75533423D01*
X132365549Y-75547191D01*
X132367677Y-75554205D01*
X132369000Y-75567640D01*
X132369000Y-75881360D01*
X132367677Y-75894795D01*
X132365549Y-75901809D01*
X132358190Y-75915577D01*
X132348813Y-75938216D01*
X132344033Y-75962249D01*
X132344033Y-75986753D01*
X132348814Y-76010786D01*
X132358190Y-76033423D01*
X132365549Y-76047191D01*
X132367677Y-76054205D01*
X132369000Y-76067640D01*
X132369000Y-76381360D01*
X132367677Y-76394795D01*
X132365549Y-76401809D01*
X132358190Y-76415577D01*
X132348813Y-76438216D01*
X132344033Y-76462249D01*
X132344033Y-76486753D01*
X132348814Y-76510786D01*
X132358190Y-76533423D01*
X132365549Y-76547191D01*
X132367677Y-76554205D01*
X132369000Y-76567640D01*
X132369000Y-76881360D01*
X132367677Y-76894795D01*
X132365549Y-76901809D01*
X132358190Y-76915577D01*
X132348813Y-76938216D01*
X132344033Y-76962249D01*
X132344033Y-76986753D01*
X132348814Y-77010786D01*
X132358190Y-77033423D01*
X132365549Y-77047191D01*
X132367677Y-77054205D01*
X132369000Y-77067640D01*
X132369000Y-77381360D01*
X132367677Y-77394795D01*
X132365549Y-77401809D01*
X132358190Y-77415577D01*
X132348813Y-77438216D01*
X132344033Y-77462249D01*
X132344033Y-77486753D01*
X132348814Y-77510786D01*
X132358190Y-77533423D01*
X132365549Y-77547191D01*
X132367677Y-77554205D01*
X132369000Y-77567640D01*
X132369000Y-77881360D01*
X132367677Y-77894795D01*
X132365549Y-77901809D01*
X132358190Y-77915577D01*
X132348813Y-77938216D01*
X132344033Y-77962249D01*
X132344033Y-77986753D01*
X132348814Y-78010786D01*
X132358190Y-78033423D01*
X132365549Y-78047191D01*
X132367677Y-78054205D01*
X132369000Y-78067640D01*
X132369000Y-78381360D01*
X132367677Y-78394795D01*
X132365549Y-78401809D01*
X132358190Y-78415577D01*
X132348813Y-78438216D01*
X132344033Y-78462249D01*
X132344033Y-78486753D01*
X132348814Y-78510786D01*
X132358190Y-78533423D01*
X132365549Y-78547191D01*
X132367677Y-78554205D01*
X132369000Y-78567640D01*
X132369000Y-78881360D01*
X132367677Y-78894795D01*
X132365549Y-78901810D01*
X132362092Y-78908276D01*
X132357442Y-78913942D01*
X132351776Y-78918592D01*
X132345310Y-78922049D01*
X132338295Y-78924177D01*
X132324860Y-78925500D01*
X130836140Y-78925500D01*
X130822705Y-78924177D01*
X130815690Y-78922049D01*
X130809224Y-78918592D01*
X130803558Y-78913942D01*
X130798908Y-78908276D01*
X130795451Y-78901810D01*
X130793323Y-78894795D01*
X130792000Y-78881360D01*
X130792000Y-78567640D01*
X130793323Y-78554205D01*
X130795451Y-78547191D01*
X130802810Y-78533423D01*
X130812187Y-78510784D01*
X130816967Y-78486751D01*
X130816967Y-78462247D01*
X130812186Y-78438214D01*
X130802810Y-78415577D01*
X130795451Y-78401809D01*
X130793323Y-78394795D01*
X130792000Y-78381360D01*
X130792000Y-78067640D01*
X130793323Y-78054205D01*
X130795451Y-78047191D01*
X130802810Y-78033423D01*
X130812187Y-78010784D01*
X130816967Y-77986751D01*
X130816967Y-77962247D01*
X130812186Y-77938214D01*
X130802810Y-77915577D01*
X130795451Y-77901809D01*
X130793323Y-77894795D01*
X130792000Y-77881360D01*
X130792000Y-77567640D01*
X130793323Y-77554205D01*
X130795451Y-77547191D01*
X130802810Y-77533423D01*
X130812187Y-77510784D01*
X130816967Y-77486751D01*
X130816967Y-77462247D01*
X130812186Y-77438214D01*
X130802810Y-77415577D01*
X130795451Y-77401809D01*
X130793323Y-77394795D01*
X130792000Y-77381360D01*
X130792000Y-77067640D01*
X130793323Y-77054205D01*
X130795451Y-77047191D01*
X130802810Y-77033423D01*
X130812187Y-77010784D01*
X130816967Y-76986751D01*
X130816967Y-76962247D01*
X130812186Y-76938214D01*
X130802810Y-76915577D01*
X130795451Y-76901809D01*
X130793323Y-76894795D01*
X130792000Y-76881360D01*
X130792000Y-76567640D01*
X130793323Y-76554205D01*
X130795451Y-76547191D01*
X130802810Y-76533423D01*
X130812187Y-76510784D01*
X130816967Y-76486751D01*
X130816967Y-76462247D01*
X130812186Y-76438214D01*
X130802810Y-76415577D01*
X130795451Y-76401809D01*
X130793323Y-76394795D01*
X130792000Y-76381360D01*
X130792000Y-76067640D01*
X130793323Y-76054205D01*
X130795451Y-76047191D01*
X130802810Y-76033423D01*
X130812187Y-76010784D01*
X130816967Y-75986751D01*
X130816967Y-75962247D01*
X130812186Y-75938214D01*
X130802810Y-75915577D01*
X130795451Y-75901809D01*
X130793323Y-75894795D01*
X130792000Y-75881360D01*
X130792000Y-75567640D01*
X130793323Y-75554205D01*
X130795451Y-75547191D01*
X130802810Y-75533423D01*
X130812187Y-75510784D01*
X130816967Y-75486751D01*
X130816967Y-75462247D01*
X130812186Y-75438214D01*
X130802810Y-75415577D01*
X130795451Y-75401809D01*
X130793323Y-75394795D01*
X130792000Y-75381360D01*
X130792000Y-75067640D01*
X130793323Y-75054205D01*
X130795451Y-75047191D01*
X130802810Y-75033423D01*
X130812187Y-75010784D01*
X130816967Y-74986751D01*
X130816967Y-74962247D01*
X130812186Y-74938214D01*
X130802810Y-74915577D01*
X130795451Y-74901809D01*
X130793323Y-74894795D01*
X130792000Y-74881360D01*
X130792000Y-74567640D01*
X130793323Y-74554205D01*
X130795451Y-74547191D01*
X130802810Y-74533423D01*
X130812187Y-74510784D01*
X130816967Y-74486751D01*
X130816967Y-74462247D01*
X130812186Y-74438214D01*
X130802810Y-74415577D01*
X130795451Y-74401809D01*
X130793323Y-74394795D01*
X130792000Y-74381360D01*
X130792000Y-74067640D01*
X130793323Y-74054205D01*
X130795451Y-74047191D01*
X130802810Y-74033423D01*
X130812187Y-74010784D01*
X130816967Y-73986751D01*
X130816967Y-73962247D01*
X130812186Y-73938214D01*
X130802810Y-73915577D01*
X130795451Y-73901809D01*
X130793323Y-73894795D01*
X130792000Y-73881360D01*
X130792000Y-73567640D01*
X130793323Y-73554205D01*
X130795451Y-73547191D01*
X130802810Y-73533423D01*
X130812187Y-73510784D01*
X130816967Y-73486751D01*
X130816967Y-73462247D01*
X130812186Y-73438214D01*
X130802810Y-73415577D01*
X130795451Y-73401809D01*
X130793323Y-73394795D01*
X130792000Y-73381360D01*
X130792000Y-73067640D01*
X130793323Y-73054205D01*
X130795451Y-73047190D01*
X130798908Y-73040724D01*
X130803558Y-73035058D01*
X130809224Y-73030408D01*
X130815690Y-73026951D01*
X130822705Y-73024823D01*
X130836140Y-73023500D01*
X132324860Y-73023500D01*
X132338295Y-73024823D01*
G37*
G36*
X140663295Y-73024823D02*
G01*
X140670310Y-73026951D01*
X140676776Y-73030408D01*
X140682442Y-73035058D01*
X140687092Y-73040724D01*
X140690549Y-73047190D01*
X140692677Y-73054205D01*
X140694000Y-73067640D01*
X140694000Y-73381360D01*
X140692677Y-73394795D01*
X140690549Y-73401809D01*
X140683190Y-73415577D01*
X140673813Y-73438216D01*
X140669033Y-73462249D01*
X140669033Y-73486753D01*
X140673814Y-73510786D01*
X140683190Y-73533423D01*
X140690549Y-73547191D01*
X140692677Y-73554205D01*
X140694000Y-73567640D01*
X140694000Y-73881360D01*
X140692677Y-73894795D01*
X140690549Y-73901809D01*
X140683190Y-73915577D01*
X140673813Y-73938216D01*
X140669033Y-73962249D01*
X140669033Y-73986753D01*
X140673814Y-74010786D01*
X140683190Y-74033423D01*
X140690549Y-74047191D01*
X140692677Y-74054205D01*
X140694000Y-74067640D01*
X140694000Y-74381360D01*
X140692677Y-74394795D01*
X140690549Y-74401809D01*
X140683190Y-74415577D01*
X140673813Y-74438216D01*
X140669033Y-74462249D01*
X140669033Y-74486753D01*
X140673814Y-74510786D01*
X140683190Y-74533423D01*
X140690549Y-74547191D01*
X140692677Y-74554205D01*
X140694000Y-74567640D01*
X140694000Y-74881360D01*
X140692677Y-74894795D01*
X140690549Y-74901809D01*
X140683190Y-74915577D01*
X140673813Y-74938216D01*
X140669033Y-74962249D01*
X140669033Y-74986753D01*
X140673814Y-75010786D01*
X140683190Y-75033423D01*
X140690549Y-75047191D01*
X140692677Y-75054205D01*
X140694000Y-75067640D01*
X140694000Y-75381360D01*
X140692677Y-75394795D01*
X140690549Y-75401809D01*
X140683190Y-75415577D01*
X140673813Y-75438216D01*
X140669033Y-75462249D01*
X140669033Y-75486753D01*
X140673814Y-75510786D01*
X140683190Y-75533423D01*
X140690549Y-75547191D01*
X140692677Y-75554205D01*
X140694000Y-75567640D01*
X140694000Y-75881360D01*
X140692677Y-75894795D01*
X140690549Y-75901809D01*
X140683190Y-75915577D01*
X140673813Y-75938216D01*
X140669033Y-75962249D01*
X140669033Y-75986753D01*
X140673814Y-76010786D01*
X140683190Y-76033423D01*
X140690549Y-76047191D01*
X140692677Y-76054205D01*
X140694000Y-76067640D01*
X140694000Y-76381360D01*
X140692677Y-76394795D01*
X140690549Y-76401809D01*
X140683190Y-76415577D01*
X140673813Y-76438216D01*
X140669033Y-76462249D01*
X140669033Y-76486753D01*
X140673814Y-76510786D01*
X140683190Y-76533423D01*
X140690549Y-76547191D01*
X140692677Y-76554205D01*
X140694000Y-76567640D01*
X140694000Y-76881360D01*
X140692677Y-76894795D01*
X140690549Y-76901809D01*
X140683190Y-76915577D01*
X140673813Y-76938216D01*
X140669033Y-76962249D01*
X140669033Y-76986753D01*
X140673814Y-77010786D01*
X140683190Y-77033423D01*
X140690549Y-77047191D01*
X140692677Y-77054205D01*
X140694000Y-77067640D01*
X140694000Y-77381360D01*
X140692677Y-77394795D01*
X140690549Y-77401809D01*
X140683190Y-77415577D01*
X140673813Y-77438216D01*
X140669033Y-77462249D01*
X140669033Y-77486753D01*
X140673814Y-77510786D01*
X140683190Y-77533423D01*
X140690549Y-77547191D01*
X140692677Y-77554205D01*
X140694000Y-77567640D01*
X140694000Y-77881360D01*
X140692677Y-77894795D01*
X140690549Y-77901809D01*
X140683190Y-77915577D01*
X140673813Y-77938216D01*
X140669033Y-77962249D01*
X140669033Y-77986753D01*
X140673814Y-78010786D01*
X140683190Y-78033423D01*
X140690549Y-78047191D01*
X140692677Y-78054205D01*
X140694000Y-78067640D01*
X140694000Y-78381360D01*
X140692677Y-78394795D01*
X140690549Y-78401809D01*
X140683190Y-78415577D01*
X140673813Y-78438216D01*
X140669033Y-78462249D01*
X140669033Y-78486753D01*
X140673814Y-78510786D01*
X140683190Y-78533423D01*
X140690549Y-78547191D01*
X140692677Y-78554205D01*
X140694000Y-78567640D01*
X140694000Y-78881360D01*
X140692677Y-78894795D01*
X140690549Y-78901810D01*
X140687092Y-78908276D01*
X140682442Y-78913942D01*
X140676776Y-78918592D01*
X140670310Y-78922049D01*
X140663295Y-78924177D01*
X140649860Y-78925500D01*
X139161140Y-78925500D01*
X139147705Y-78924177D01*
X139140690Y-78922049D01*
X139134224Y-78918592D01*
X139128558Y-78913942D01*
X139123908Y-78908276D01*
X139120451Y-78901810D01*
X139118323Y-78894795D01*
X139117000Y-78881360D01*
X139117000Y-78567640D01*
X139118323Y-78554205D01*
X139120451Y-78547191D01*
X139127810Y-78533423D01*
X139137187Y-78510784D01*
X139141967Y-78486751D01*
X139141967Y-78462247D01*
X139137186Y-78438214D01*
X139127810Y-78415577D01*
X139120451Y-78401809D01*
X139118323Y-78394795D01*
X139117000Y-78381360D01*
X139117000Y-78067640D01*
X139118323Y-78054205D01*
X139120451Y-78047191D01*
X139127810Y-78033423D01*
X139137187Y-78010784D01*
X139141967Y-77986751D01*
X139141967Y-77962247D01*
X139137186Y-77938214D01*
X139127810Y-77915577D01*
X139120451Y-77901809D01*
X139118323Y-77894795D01*
X139117000Y-77881360D01*
X139117000Y-77567640D01*
X139118323Y-77554205D01*
X139120451Y-77547191D01*
X139127810Y-77533423D01*
X139137187Y-77510784D01*
X139141967Y-77486751D01*
X139141967Y-77462247D01*
X139137186Y-77438214D01*
X139127810Y-77415577D01*
X139120451Y-77401809D01*
X139118323Y-77394795D01*
X139117000Y-77381360D01*
X139117000Y-77067640D01*
X139118323Y-77054205D01*
X139120451Y-77047191D01*
X139127810Y-77033423D01*
X139137187Y-77010784D01*
X139141967Y-76986751D01*
X139141967Y-76962247D01*
X139137186Y-76938214D01*
X139127810Y-76915577D01*
X139120451Y-76901809D01*
X139118323Y-76894795D01*
X139117000Y-76881360D01*
X139117000Y-76567640D01*
X139118323Y-76554205D01*
X139120451Y-76547191D01*
X139127810Y-76533423D01*
X139137187Y-76510784D01*
X139141967Y-76486751D01*
X139141967Y-76462247D01*
X139137186Y-76438214D01*
X139127810Y-76415577D01*
X139120451Y-76401809D01*
X139118323Y-76394795D01*
X139117000Y-76381360D01*
X139117000Y-76067640D01*
X139118323Y-76054205D01*
X139120451Y-76047191D01*
X139127810Y-76033423D01*
X139137187Y-76010784D01*
X139141967Y-75986751D01*
X139141967Y-75962247D01*
X139137186Y-75938214D01*
X139127810Y-75915577D01*
X139120451Y-75901809D01*
X139118323Y-75894795D01*
X139117000Y-75881360D01*
X139117000Y-75567640D01*
X139118323Y-75554205D01*
X139120451Y-75547191D01*
X139127810Y-75533423D01*
X139137187Y-75510784D01*
X139141967Y-75486751D01*
X139141967Y-75462247D01*
X139137186Y-75438214D01*
X139127810Y-75415577D01*
X139120451Y-75401809D01*
X139118323Y-75394795D01*
X139117000Y-75381360D01*
X139117000Y-75067640D01*
X139118323Y-75054205D01*
X139120451Y-75047191D01*
X139127810Y-75033423D01*
X139137187Y-75010784D01*
X139141967Y-74986751D01*
X139141967Y-74962247D01*
X139137186Y-74938214D01*
X139127810Y-74915577D01*
X139120451Y-74901809D01*
X139118323Y-74894795D01*
X139117000Y-74881360D01*
X139117000Y-74567640D01*
X139118323Y-74554205D01*
X139120451Y-74547191D01*
X139127810Y-74533423D01*
X139137187Y-74510784D01*
X139141967Y-74486751D01*
X139141967Y-74462247D01*
X139137186Y-74438214D01*
X139127810Y-74415577D01*
X139120451Y-74401809D01*
X139118323Y-74394795D01*
X139117000Y-74381360D01*
X139117000Y-74067640D01*
X139118323Y-74054205D01*
X139120451Y-74047191D01*
X139127810Y-74033423D01*
X139137187Y-74010784D01*
X139141967Y-73986751D01*
X139141967Y-73962247D01*
X139137186Y-73938214D01*
X139127810Y-73915577D01*
X139120451Y-73901809D01*
X139118323Y-73894795D01*
X139117000Y-73881360D01*
X139117000Y-73567640D01*
X139118323Y-73554205D01*
X139120451Y-73547191D01*
X139127810Y-73533423D01*
X139137187Y-73510784D01*
X139141967Y-73486751D01*
X139141967Y-73462247D01*
X139137186Y-73438214D01*
X139127810Y-73415577D01*
X139120451Y-73401809D01*
X139118323Y-73394795D01*
X139117000Y-73381360D01*
X139117000Y-73067640D01*
X139118323Y-73054205D01*
X139120451Y-73047190D01*
X139123908Y-73040724D01*
X139128558Y-73035058D01*
X139134224Y-73030408D01*
X139140690Y-73026951D01*
X139147705Y-73024823D01*
X139161140Y-73023500D01*
X140649860Y-73023500D01*
X140663295Y-73024823D01*
G37*
G36*
X129665591Y-77735085D02*
G01*
X129699569Y-77745393D01*
X129730890Y-77762134D01*
X129758339Y-77784661D01*
X129780866Y-77812110D01*
X129797607Y-77843431D01*
X129807915Y-77877409D01*
X129812000Y-77918890D01*
X129812000Y-78520110D01*
X129807915Y-78561591D01*
X129797607Y-78595569D01*
X129780866Y-78626890D01*
X129758339Y-78654339D01*
X129730890Y-78676866D01*
X129699569Y-78693607D01*
X129665591Y-78703915D01*
X129624110Y-78708000D01*
X128947890Y-78708000D01*
X128906409Y-78703915D01*
X128872431Y-78693607D01*
X128841110Y-78676866D01*
X128813661Y-78654339D01*
X128791134Y-78626890D01*
X128774393Y-78595569D01*
X128764085Y-78561591D01*
X128760000Y-78520110D01*
X128760000Y-77918890D01*
X128764085Y-77877409D01*
X128774393Y-77843431D01*
X128791134Y-77812110D01*
X128813661Y-77784661D01*
X128841110Y-77762134D01*
X128872431Y-77745393D01*
X128906409Y-77735085D01*
X128947890Y-77731000D01*
X129624110Y-77731000D01*
X129665591Y-77735085D01*
G37*
G36*
X125640091Y-76567085D02*
G01*
X125674069Y-76577393D01*
X125705390Y-76594134D01*
X125732839Y-76616661D01*
X125755366Y-76644110D01*
X125772107Y-76675431D01*
X125782415Y-76709409D01*
X125786500Y-76750890D01*
X125786500Y-77427110D01*
X125782415Y-77468591D01*
X125772107Y-77502569D01*
X125755366Y-77533890D01*
X125732839Y-77561339D01*
X125705390Y-77583866D01*
X125674069Y-77600607D01*
X125640091Y-77610915D01*
X125598610Y-77615000D01*
X124997390Y-77615000D01*
X124955909Y-77610915D01*
X124921931Y-77600607D01*
X124890610Y-77583866D01*
X124863161Y-77561339D01*
X124840634Y-77533890D01*
X124823893Y-77502569D01*
X124813585Y-77468591D01*
X124809500Y-77427110D01*
X124809500Y-76750890D01*
X124813585Y-76709409D01*
X124823893Y-76675431D01*
X124840634Y-76644110D01*
X124863161Y-76616661D01*
X124890610Y-76594134D01*
X124921931Y-76577393D01*
X124955909Y-76567085D01*
X124997390Y-76563000D01*
X125598610Y-76563000D01*
X125640091Y-76567085D01*
G37*
G36*
X127215091Y-76567085D02*
G01*
X127249069Y-76577393D01*
X127280390Y-76594134D01*
X127307839Y-76616661D01*
X127330366Y-76644110D01*
X127347107Y-76675431D01*
X127357415Y-76709409D01*
X127361500Y-76750890D01*
X127361500Y-77427110D01*
X127357415Y-77468591D01*
X127347107Y-77502569D01*
X127330366Y-77533890D01*
X127307839Y-77561339D01*
X127280390Y-77583866D01*
X127249069Y-77600607D01*
X127215091Y-77610915D01*
X127173610Y-77615000D01*
X126572390Y-77615000D01*
X126530909Y-77610915D01*
X126496931Y-77600607D01*
X126465610Y-77583866D01*
X126438161Y-77561339D01*
X126415634Y-77533890D01*
X126398893Y-77502569D01*
X126388585Y-77468591D01*
X126384500Y-77427110D01*
X126384500Y-76750890D01*
X126388585Y-76709409D01*
X126398893Y-76675431D01*
X126415634Y-76644110D01*
X126438161Y-76616661D01*
X126465610Y-76594134D01*
X126496931Y-76577393D01*
X126530909Y-76567085D01*
X126572390Y-76563000D01*
X127173610Y-76563000D01*
X127215091Y-76567085D01*
G37*
G36*
X117529000Y-77379000D02*
G01*
X115927000Y-77379000D01*
X115927000Y-75277000D01*
X117529000Y-75277000D01*
X117529000Y-77379000D01*
G37*
G36*
X115529000Y-77379000D02*
G01*
X113927000Y-77379000D01*
X113927000Y-75277000D01*
X115529000Y-75277000D01*
X115529000Y-77379000D01*
G37*
G36*
X113529000Y-77379000D02*
G01*
X111927000Y-77379000D01*
X111927000Y-75277000D01*
X113529000Y-75277000D01*
X113529000Y-77379000D01*
G37*
G36*
X111529000Y-77379000D02*
G01*
X109927000Y-77379000D01*
X109927000Y-75277000D01*
X111529000Y-75277000D01*
X111529000Y-77379000D01*
G37*
G36*
X105529000Y-77379000D02*
G01*
X103927000Y-77379000D01*
X103927000Y-75277000D01*
X105529000Y-75277000D01*
X105529000Y-77379000D01*
G37*
G36*
X107529000Y-77379000D02*
G01*
X105927000Y-77379000D01*
X105927000Y-75277000D01*
X107529000Y-75277000D01*
X107529000Y-77379000D01*
G37*
G36*
X109529000Y-77379000D02*
G01*
X107927000Y-77379000D01*
X107927000Y-75277000D01*
X109529000Y-75277000D01*
X109529000Y-77379000D01*
G37*
G36*
X103529000Y-77379000D02*
G01*
X101927000Y-77379000D01*
X101927000Y-75277000D01*
X103529000Y-75277000D01*
X103529000Y-77379000D01*
G37*
G36*
X123569591Y-76274585D02*
G01*
X123603569Y-76284893D01*
X123634890Y-76301634D01*
X123662339Y-76324161D01*
X123684866Y-76351610D01*
X123701607Y-76382931D01*
X123711915Y-76416909D01*
X123716000Y-76458390D01*
X123716000Y-77059610D01*
X123711915Y-77101091D01*
X123701607Y-77135069D01*
X123684866Y-77166390D01*
X123662339Y-77193839D01*
X123634890Y-77216366D01*
X123603569Y-77233107D01*
X123569591Y-77243415D01*
X123528110Y-77247500D01*
X122851890Y-77247500D01*
X122810409Y-77243415D01*
X122776431Y-77233107D01*
X122745110Y-77216366D01*
X122717661Y-77193839D01*
X122695134Y-77166390D01*
X122678393Y-77135069D01*
X122668085Y-77101091D01*
X122664000Y-77059610D01*
X122664000Y-76458390D01*
X122668085Y-76416909D01*
X122678393Y-76382931D01*
X122695134Y-76351610D01*
X122717661Y-76324161D01*
X122745110Y-76301634D01*
X122776431Y-76284893D01*
X122810409Y-76274585D01*
X122851890Y-76270500D01*
X123528110Y-76270500D01*
X123569591Y-76274585D01*
G37*
G36*
X174201782Y-71040437D02*
G01*
X174239890Y-71048017D01*
X174358364Y-71097091D01*
X174464988Y-71168335D01*
X174555665Y-71259012D01*
X174615100Y-71347962D01*
X174626910Y-71365638D01*
X174675983Y-71484110D01*
X174699997Y-71604836D01*
X174701000Y-71609882D01*
X174701000Y-71738118D01*
X174675983Y-71863890D01*
X174626909Y-71982364D01*
X174555665Y-72088988D01*
X174464988Y-72179665D01*
X174358364Y-72250909D01*
X174239890Y-72299983D01*
X174237773Y-72300404D01*
X174214324Y-72307517D01*
X174192713Y-72319068D01*
X174173771Y-72334614D01*
X174158226Y-72353556D01*
X174146675Y-72375166D01*
X174139562Y-72398615D01*
X174137160Y-72423001D01*
X174139562Y-72447387D01*
X174146675Y-72470836D01*
X174158226Y-72492447D01*
X174173772Y-72511389D01*
X174192714Y-72526934D01*
X174214324Y-72538485D01*
X174237773Y-72545598D01*
X174262159Y-72548000D01*
X174381000Y-72548000D01*
X174381000Y-75650000D01*
X174262159Y-75650000D01*
X174237773Y-75652402D01*
X174214324Y-75659515D01*
X174192713Y-75671066D01*
X174173771Y-75686611D01*
X174158226Y-75705553D01*
X174146675Y-75727164D01*
X174139562Y-75750613D01*
X174137160Y-75774999D01*
X174139562Y-75799385D01*
X174146675Y-75822834D01*
X174158226Y-75844445D01*
X174173771Y-75863387D01*
X174192713Y-75878932D01*
X174214324Y-75890483D01*
X174237772Y-75897596D01*
X174239890Y-75898017D01*
X174358364Y-75947091D01*
X174464988Y-76018335D01*
X174555665Y-76109012D01*
X174622917Y-76209661D01*
X174626910Y-76215638D01*
X174675983Y-76334110D01*
X174701000Y-76459881D01*
X174701000Y-76588119D01*
X174697763Y-76604393D01*
X174675983Y-76713890D01*
X174626909Y-76832364D01*
X174555665Y-76938988D01*
X174464988Y-77029665D01*
X174358364Y-77100909D01*
X174358363Y-77100910D01*
X174358362Y-77100910D01*
X174239890Y-77149983D01*
X174114119Y-77175000D01*
X173985881Y-77175000D01*
X173860110Y-77149983D01*
X173741638Y-77100910D01*
X173741637Y-77100910D01*
X173741636Y-77100909D01*
X173635012Y-77029665D01*
X173544335Y-76938988D01*
X173473091Y-76832364D01*
X173424017Y-76713890D01*
X173402237Y-76604393D01*
X173399000Y-76588119D01*
X173399000Y-76459881D01*
X173424017Y-76334110D01*
X173473090Y-76215638D01*
X173477084Y-76209661D01*
X173544335Y-76109012D01*
X173635012Y-76018335D01*
X173741636Y-75947091D01*
X173860110Y-75898017D01*
X173862228Y-75897596D01*
X173885676Y-75890483D01*
X173907287Y-75878932D01*
X173926229Y-75863386D01*
X173941774Y-75844444D01*
X173953325Y-75822834D01*
X173960438Y-75799385D01*
X173962840Y-75774999D01*
X173960438Y-75750613D01*
X173953325Y-75727164D01*
X173941774Y-75705553D01*
X173926228Y-75686611D01*
X173907286Y-75671066D01*
X173885676Y-75659515D01*
X173862227Y-75652402D01*
X173837841Y-75650000D01*
X172679000Y-75650000D01*
X172679000Y-72548000D01*
X173837841Y-72548000D01*
X173862227Y-72545598D01*
X173885676Y-72538485D01*
X173907287Y-72526934D01*
X173926229Y-72511389D01*
X173941774Y-72492447D01*
X173953325Y-72470836D01*
X173960438Y-72447387D01*
X173962840Y-72423001D01*
X173960438Y-72398615D01*
X173953325Y-72375166D01*
X173941774Y-72353555D01*
X173926229Y-72334613D01*
X173907287Y-72319068D01*
X173885676Y-72307517D01*
X173862227Y-72300404D01*
X173860110Y-72299983D01*
X173741636Y-72250909D01*
X173635012Y-72179665D01*
X173544335Y-72088988D01*
X173473091Y-71982364D01*
X173424017Y-71863890D01*
X173399000Y-71738118D01*
X173399000Y-71609882D01*
X173400004Y-71604836D01*
X173424017Y-71484110D01*
X173473090Y-71365638D01*
X173484901Y-71347962D01*
X173544335Y-71259012D01*
X173635012Y-71168335D01*
X173741636Y-71097091D01*
X173860110Y-71048017D01*
X173898218Y-71040437D01*
X173985881Y-71023000D01*
X174114119Y-71023000D01*
X174201782Y-71040437D01*
G37*
G36*
X129665591Y-76160085D02*
G01*
X129699569Y-76170393D01*
X129730890Y-76187134D01*
X129758339Y-76209661D01*
X129780866Y-76237110D01*
X129797607Y-76268431D01*
X129807915Y-76302409D01*
X129812000Y-76343890D01*
X129812000Y-76945110D01*
X129807915Y-76986591D01*
X129797607Y-77020569D01*
X129780866Y-77051890D01*
X129758339Y-77079339D01*
X129730890Y-77101866D01*
X129699569Y-77118607D01*
X129665591Y-77128915D01*
X129624110Y-77133000D01*
X128947890Y-77133000D01*
X128906409Y-77128915D01*
X128872431Y-77118607D01*
X128841110Y-77101866D01*
X128813661Y-77079339D01*
X128791134Y-77051890D01*
X128774393Y-77020569D01*
X128764085Y-76986591D01*
X128760000Y-76945110D01*
X128760000Y-76343890D01*
X128764085Y-76302409D01*
X128774393Y-76268431D01*
X128791134Y-76237110D01*
X128813661Y-76209661D01*
X128841110Y-76187134D01*
X128872431Y-76170393D01*
X128906409Y-76160085D01*
X128947890Y-76156000D01*
X129624110Y-76156000D01*
X129665591Y-76160085D01*
G37*
G36*
X127446000Y-75976000D02*
G01*
X126144000Y-75976000D01*
X126144000Y-74474000D01*
X127446000Y-74474000D01*
X127446000Y-75976000D01*
G37*
G36*
X125746000Y-75976000D02*
G01*
X124444000Y-75976000D01*
X124444000Y-74474000D01*
X125746000Y-74474000D01*
X125746000Y-75976000D01*
G37*
G36*
X167423091Y-74789085D02*
G01*
X167457069Y-74799393D01*
X167488390Y-74816134D01*
X167515839Y-74838661D01*
X167538366Y-74866110D01*
X167555107Y-74897431D01*
X167565415Y-74931409D01*
X167569500Y-74972890D01*
X167569500Y-75649110D01*
X167565415Y-75690591D01*
X167555107Y-75724569D01*
X167538366Y-75755890D01*
X167515839Y-75783339D01*
X167488390Y-75805866D01*
X167457069Y-75822607D01*
X167423091Y-75832915D01*
X167381610Y-75837000D01*
X166780390Y-75837000D01*
X166738909Y-75832915D01*
X166704931Y-75822607D01*
X166673610Y-75805866D01*
X166646161Y-75783339D01*
X166623634Y-75755890D01*
X166606893Y-75724569D01*
X166596585Y-75690591D01*
X166592500Y-75649110D01*
X166592500Y-74972890D01*
X166596585Y-74931409D01*
X166606893Y-74897431D01*
X166623634Y-74866110D01*
X166646161Y-74838661D01*
X166673610Y-74816134D01*
X166704931Y-74799393D01*
X166738909Y-74789085D01*
X166780390Y-74785000D01*
X167381610Y-74785000D01*
X167423091Y-74789085D01*
G37*
G36*
X168998091Y-74789085D02*
G01*
X169032069Y-74799393D01*
X169063390Y-74816134D01*
X169090839Y-74838661D01*
X169113366Y-74866110D01*
X169130107Y-74897431D01*
X169140415Y-74931409D01*
X169144500Y-74972890D01*
X169144500Y-75649110D01*
X169140415Y-75690591D01*
X169130107Y-75724569D01*
X169113366Y-75755890D01*
X169090839Y-75783339D01*
X169063390Y-75805866D01*
X169032069Y-75822607D01*
X168998091Y-75832915D01*
X168956610Y-75837000D01*
X168355390Y-75837000D01*
X168313909Y-75832915D01*
X168279931Y-75822607D01*
X168248610Y-75805866D01*
X168221161Y-75783339D01*
X168198634Y-75755890D01*
X168181893Y-75724569D01*
X168171585Y-75690591D01*
X168167500Y-75649110D01*
X168167500Y-74972890D01*
X168171585Y-74931409D01*
X168181893Y-74897431D01*
X168198634Y-74866110D01*
X168221161Y-74838661D01*
X168248610Y-74816134D01*
X168279931Y-74799393D01*
X168313909Y-74789085D01*
X168355390Y-74785000D01*
X168956610Y-74785000D01*
X168998091Y-74789085D01*
G37*
G36*
X123569591Y-74699585D02*
G01*
X123603569Y-74709893D01*
X123634890Y-74726634D01*
X123662339Y-74749161D01*
X123684866Y-74776610D01*
X123701607Y-74807931D01*
X123711915Y-74841909D01*
X123716000Y-74883390D01*
X123716000Y-75484610D01*
X123711915Y-75526091D01*
X123701607Y-75560069D01*
X123684866Y-75591390D01*
X123662339Y-75618839D01*
X123634890Y-75641366D01*
X123603569Y-75658107D01*
X123569591Y-75668415D01*
X123528110Y-75672500D01*
X122851890Y-75672500D01*
X122810409Y-75668415D01*
X122776431Y-75658107D01*
X122745110Y-75641366D01*
X122717661Y-75618839D01*
X122695134Y-75591390D01*
X122678393Y-75560069D01*
X122668085Y-75526091D01*
X122664000Y-75484610D01*
X122664000Y-74883390D01*
X122668085Y-74841909D01*
X122678393Y-74807931D01*
X122695134Y-74776610D01*
X122717661Y-74749161D01*
X122745110Y-74726634D01*
X122776431Y-74709893D01*
X122810409Y-74699585D01*
X122851890Y-74695500D01*
X123528110Y-74695500D01*
X123569591Y-74699585D01*
G37*
G36*
X111035091Y-73455585D02*
G01*
X111069069Y-73465893D01*
X111100390Y-73482634D01*
X111127839Y-73505161D01*
X111150366Y-73532610D01*
X111167107Y-73563931D01*
X111177415Y-73597909D01*
X111181500Y-73639390D01*
X111181500Y-74315610D01*
X111177415Y-74357091D01*
X111167107Y-74391069D01*
X111150366Y-74422390D01*
X111127839Y-74449839D01*
X111100390Y-74472366D01*
X111069069Y-74489107D01*
X111035091Y-74499415D01*
X110993610Y-74503500D01*
X110392390Y-74503500D01*
X110350909Y-74499415D01*
X110316931Y-74489107D01*
X110285610Y-74472366D01*
X110258161Y-74449839D01*
X110235634Y-74422390D01*
X110218893Y-74391069D01*
X110208585Y-74357091D01*
X110204500Y-74315610D01*
X110204500Y-73639390D01*
X110208585Y-73597909D01*
X110218893Y-73563931D01*
X110235634Y-73532610D01*
X110258161Y-73505161D01*
X110285610Y-73482634D01*
X110316931Y-73465893D01*
X110350909Y-73455585D01*
X110392390Y-73451500D01*
X110993610Y-73451500D01*
X111035091Y-73455585D01*
G37*
G36*
X112610091Y-73455585D02*
G01*
X112644069Y-73465893D01*
X112675390Y-73482634D01*
X112702839Y-73505161D01*
X112725366Y-73532610D01*
X112742107Y-73563931D01*
X112752415Y-73597909D01*
X112756500Y-73639390D01*
X112756500Y-74315610D01*
X112752415Y-74357091D01*
X112742107Y-74391069D01*
X112725366Y-74422390D01*
X112702839Y-74449839D01*
X112675390Y-74472366D01*
X112644069Y-74489107D01*
X112610091Y-74499415D01*
X112568610Y-74503500D01*
X111967390Y-74503500D01*
X111925909Y-74499415D01*
X111891931Y-74489107D01*
X111860610Y-74472366D01*
X111833161Y-74449839D01*
X111810634Y-74422390D01*
X111793893Y-74391069D01*
X111783585Y-74357091D01*
X111779500Y-74315610D01*
X111779500Y-73639390D01*
X111783585Y-73597909D01*
X111793893Y-73563931D01*
X111810634Y-73532610D01*
X111833161Y-73505161D01*
X111860610Y-73482634D01*
X111891931Y-73465893D01*
X111925909Y-73455585D01*
X111967390Y-73451500D01*
X112568610Y-73451500D01*
X112610091Y-73455585D01*
G37*
G36*
X167423091Y-73265085D02*
G01*
X167457069Y-73275393D01*
X167488390Y-73292134D01*
X167515839Y-73314661D01*
X167538366Y-73342110D01*
X167555107Y-73373431D01*
X167565415Y-73407409D01*
X167569500Y-73448890D01*
X167569500Y-74125110D01*
X167565415Y-74166591D01*
X167555107Y-74200569D01*
X167538366Y-74231890D01*
X167515839Y-74259339D01*
X167488390Y-74281866D01*
X167457069Y-74298607D01*
X167423091Y-74308915D01*
X167381610Y-74313000D01*
X166780390Y-74313000D01*
X166738909Y-74308915D01*
X166704931Y-74298607D01*
X166673610Y-74281866D01*
X166646161Y-74259339D01*
X166623634Y-74231890D01*
X166606893Y-74200569D01*
X166596585Y-74166591D01*
X166592500Y-74125110D01*
X166592500Y-73448890D01*
X166596585Y-73407409D01*
X166606893Y-73373431D01*
X166623634Y-73342110D01*
X166646161Y-73314661D01*
X166673610Y-73292134D01*
X166704931Y-73275393D01*
X166738909Y-73265085D01*
X166780390Y-73261000D01*
X167381610Y-73261000D01*
X167423091Y-73265085D01*
G37*
G36*
X168998091Y-73265085D02*
G01*
X169032069Y-73275393D01*
X169063390Y-73292134D01*
X169090839Y-73314661D01*
X169113366Y-73342110D01*
X169130107Y-73373431D01*
X169140415Y-73407409D01*
X169144500Y-73448890D01*
X169144500Y-74125110D01*
X169140415Y-74166591D01*
X169130107Y-74200569D01*
X169113366Y-74231890D01*
X169090839Y-74259339D01*
X169063390Y-74281866D01*
X169032069Y-74298607D01*
X168998091Y-74308915D01*
X168956610Y-74313000D01*
X168355390Y-74313000D01*
X168313909Y-74308915D01*
X168279931Y-74298607D01*
X168248610Y-74281866D01*
X168221161Y-74259339D01*
X168198634Y-74231890D01*
X168181893Y-74200569D01*
X168171585Y-74166591D01*
X168167500Y-74125110D01*
X168167500Y-73448890D01*
X168171585Y-73407409D01*
X168181893Y-73373431D01*
X168198634Y-73342110D01*
X168221161Y-73314661D01*
X168248610Y-73292134D01*
X168279931Y-73275393D01*
X168313909Y-73265085D01*
X168355390Y-73261000D01*
X168956610Y-73261000D01*
X168998091Y-73265085D01*
G37*
G36*
X127446000Y-73776000D02*
G01*
X126144000Y-73776000D01*
X126144000Y-72274000D01*
X127446000Y-72274000D01*
X127446000Y-73776000D01*
G37*
G36*
X125746000Y-73776000D02*
G01*
X124444000Y-73776000D01*
X124444000Y-72274000D01*
X125746000Y-72274000D01*
X125746000Y-73776000D01*
G37*
G36*
X112610091Y-71868085D02*
G01*
X112644069Y-71878393D01*
X112675390Y-71895134D01*
X112702839Y-71917661D01*
X112725366Y-71945110D01*
X112742107Y-71976431D01*
X112752415Y-72010409D01*
X112756500Y-72051890D01*
X112756500Y-72728110D01*
X112752415Y-72769591D01*
X112742107Y-72803569D01*
X112725366Y-72834890D01*
X112702839Y-72862339D01*
X112675390Y-72884866D01*
X112644069Y-72901607D01*
X112610091Y-72911915D01*
X112568610Y-72916000D01*
X111967390Y-72916000D01*
X111925909Y-72911915D01*
X111891931Y-72901607D01*
X111860610Y-72884866D01*
X111833161Y-72862339D01*
X111810634Y-72834890D01*
X111793893Y-72803569D01*
X111783585Y-72769591D01*
X111779500Y-72728110D01*
X111779500Y-72051890D01*
X111783585Y-72010409D01*
X111793893Y-71976431D01*
X111810634Y-71945110D01*
X111833161Y-71917661D01*
X111860610Y-71895134D01*
X111891931Y-71878393D01*
X111925909Y-71868085D01*
X111967390Y-71864000D01*
X112568610Y-71864000D01*
X112610091Y-71868085D01*
G37*
G36*
X111035091Y-71868085D02*
G01*
X111069069Y-71878393D01*
X111100390Y-71895134D01*
X111127839Y-71917661D01*
X111150366Y-71945110D01*
X111167107Y-71976431D01*
X111177415Y-72010409D01*
X111181500Y-72051890D01*
X111181500Y-72728110D01*
X111177415Y-72769591D01*
X111167107Y-72803569D01*
X111150366Y-72834890D01*
X111127839Y-72862339D01*
X111100390Y-72884866D01*
X111069069Y-72901607D01*
X111035091Y-72911915D01*
X110993610Y-72916000D01*
X110392390Y-72916000D01*
X110350909Y-72911915D01*
X110316931Y-72901607D01*
X110285610Y-72884866D01*
X110258161Y-72862339D01*
X110235634Y-72834890D01*
X110218893Y-72803569D01*
X110208585Y-72769591D01*
X110204500Y-72728110D01*
X110204500Y-72051890D01*
X110208585Y-72010409D01*
X110218893Y-71976431D01*
X110235634Y-71945110D01*
X110258161Y-71917661D01*
X110285610Y-71895134D01*
X110316931Y-71878393D01*
X110350909Y-71868085D01*
X110392390Y-71864000D01*
X110993610Y-71864000D01*
X111035091Y-71868085D01*
G37*
G36*
X106832600Y-72796600D02*
G01*
X105003400Y-72796600D01*
X105003400Y-70967400D01*
X106832600Y-70967400D01*
X106832600Y-72796600D01*
G37*
G36*
X103644778Y-71002547D02*
G01*
X103811224Y-71071491D01*
X103961022Y-71171583D01*
X104088417Y-71298978D01*
X104188509Y-71448776D01*
X104257453Y-71615222D01*
X104292600Y-71791918D01*
X104292600Y-71972082D01*
X104257453Y-72148778D01*
X104188509Y-72315224D01*
X104088417Y-72465022D01*
X103961022Y-72592417D01*
X103811224Y-72692509D01*
X103644778Y-72761453D01*
X103468082Y-72796600D01*
X103287918Y-72796600D01*
X103111222Y-72761453D01*
X102944776Y-72692509D01*
X102794978Y-72592417D01*
X102667583Y-72465022D01*
X102567491Y-72315224D01*
X102498547Y-72148778D01*
X102463400Y-71972082D01*
X102463400Y-71791918D01*
X102498547Y-71615222D01*
X102567491Y-71448776D01*
X102667583Y-71298978D01*
X102794978Y-71171583D01*
X102944776Y-71071491D01*
X103111222Y-71002547D01*
X103287918Y-70967400D01*
X103468082Y-70967400D01*
X103644778Y-71002547D01*
G37*
G36*
X167384591Y-71651585D02*
G01*
X167418569Y-71661893D01*
X167449890Y-71678634D01*
X167477339Y-71701161D01*
X167499866Y-71728610D01*
X167516607Y-71759931D01*
X167526915Y-71793909D01*
X167531000Y-71835390D01*
X167531000Y-72436610D01*
X167526915Y-72478091D01*
X167516607Y-72512069D01*
X167499866Y-72543390D01*
X167477339Y-72570839D01*
X167449890Y-72593366D01*
X167418569Y-72610107D01*
X167384591Y-72620415D01*
X167343110Y-72624500D01*
X166666890Y-72624500D01*
X166625409Y-72620415D01*
X166591431Y-72610107D01*
X166560110Y-72593366D01*
X166532661Y-72570839D01*
X166510134Y-72543390D01*
X166493393Y-72512069D01*
X166483085Y-72478091D01*
X166479000Y-72436610D01*
X166479000Y-71835390D01*
X166483085Y-71793909D01*
X166493393Y-71759931D01*
X166510134Y-71728610D01*
X166532661Y-71701161D01*
X166560110Y-71678634D01*
X166591431Y-71661893D01*
X166625409Y-71651585D01*
X166666890Y-71647500D01*
X167343110Y-71647500D01*
X167384591Y-71651585D01*
G37*
G36*
X133163295Y-71024823D02*
G01*
X133170309Y-71026951D01*
X133184077Y-71034310D01*
X133206716Y-71043687D01*
X133230749Y-71048467D01*
X133255253Y-71048467D01*
X133279286Y-71043686D01*
X133301923Y-71034310D01*
X133315691Y-71026951D01*
X133322705Y-71024823D01*
X133336140Y-71023500D01*
X133649860Y-71023500D01*
X133663295Y-71024823D01*
X133670309Y-71026951D01*
X133684077Y-71034310D01*
X133706716Y-71043687D01*
X133730749Y-71048467D01*
X133755253Y-71048467D01*
X133779286Y-71043686D01*
X133801923Y-71034310D01*
X133815691Y-71026951D01*
X133822705Y-71024823D01*
X133836140Y-71023500D01*
X134149860Y-71023500D01*
X134163295Y-71024823D01*
X134170309Y-71026951D01*
X134184077Y-71034310D01*
X134206716Y-71043687D01*
X134230749Y-71048467D01*
X134255253Y-71048467D01*
X134279286Y-71043686D01*
X134301923Y-71034310D01*
X134315691Y-71026951D01*
X134322705Y-71024823D01*
X134336140Y-71023500D01*
X134649860Y-71023500D01*
X134663295Y-71024823D01*
X134670309Y-71026951D01*
X134684077Y-71034310D01*
X134706716Y-71043687D01*
X134730749Y-71048467D01*
X134755253Y-71048467D01*
X134779286Y-71043686D01*
X134801923Y-71034310D01*
X134815691Y-71026951D01*
X134822705Y-71024823D01*
X134836140Y-71023500D01*
X135149860Y-71023500D01*
X135163295Y-71024823D01*
X135170309Y-71026951D01*
X135184077Y-71034310D01*
X135206716Y-71043687D01*
X135230749Y-71048467D01*
X135255253Y-71048467D01*
X135279286Y-71043686D01*
X135301923Y-71034310D01*
X135315691Y-71026951D01*
X135322705Y-71024823D01*
X135336140Y-71023500D01*
X135649860Y-71023500D01*
X135663295Y-71024823D01*
X135670309Y-71026951D01*
X135684077Y-71034310D01*
X135706716Y-71043687D01*
X135730749Y-71048467D01*
X135755253Y-71048467D01*
X135779286Y-71043686D01*
X135801923Y-71034310D01*
X135815691Y-71026951D01*
X135822705Y-71024823D01*
X135836140Y-71023500D01*
X136149860Y-71023500D01*
X136163295Y-71024823D01*
X136170309Y-71026951D01*
X136184077Y-71034310D01*
X136206716Y-71043687D01*
X136230749Y-71048467D01*
X136255253Y-71048467D01*
X136279286Y-71043686D01*
X136301923Y-71034310D01*
X136315691Y-71026951D01*
X136322705Y-71024823D01*
X136336140Y-71023500D01*
X136649860Y-71023500D01*
X136663295Y-71024823D01*
X136670309Y-71026951D01*
X136684077Y-71034310D01*
X136706716Y-71043687D01*
X136730749Y-71048467D01*
X136755253Y-71048467D01*
X136779286Y-71043686D01*
X136801923Y-71034310D01*
X136815691Y-71026951D01*
X136822705Y-71024823D01*
X136836140Y-71023500D01*
X137149860Y-71023500D01*
X137163295Y-71024823D01*
X137170309Y-71026951D01*
X137184077Y-71034310D01*
X137206716Y-71043687D01*
X137230749Y-71048467D01*
X137255253Y-71048467D01*
X137279286Y-71043686D01*
X137301923Y-71034310D01*
X137315691Y-71026951D01*
X137322705Y-71024823D01*
X137336140Y-71023500D01*
X137649860Y-71023500D01*
X137663295Y-71024823D01*
X137670309Y-71026951D01*
X137684077Y-71034310D01*
X137706716Y-71043687D01*
X137730749Y-71048467D01*
X137755253Y-71048467D01*
X137779286Y-71043686D01*
X137801923Y-71034310D01*
X137815691Y-71026951D01*
X137822705Y-71024823D01*
X137836140Y-71023500D01*
X138149860Y-71023500D01*
X138163295Y-71024823D01*
X138170309Y-71026951D01*
X138184077Y-71034310D01*
X138206716Y-71043687D01*
X138230749Y-71048467D01*
X138255253Y-71048467D01*
X138279286Y-71043686D01*
X138301923Y-71034310D01*
X138315691Y-71026951D01*
X138322705Y-71024823D01*
X138336140Y-71023500D01*
X138649860Y-71023500D01*
X138663295Y-71024823D01*
X138670310Y-71026951D01*
X138676776Y-71030408D01*
X138682442Y-71035058D01*
X138687092Y-71040724D01*
X138690549Y-71047190D01*
X138692677Y-71054205D01*
X138694000Y-71067640D01*
X138694000Y-72556360D01*
X138692677Y-72569795D01*
X138690549Y-72576810D01*
X138687092Y-72583276D01*
X138682442Y-72588942D01*
X138676776Y-72593592D01*
X138670310Y-72597049D01*
X138663295Y-72599177D01*
X138649860Y-72600500D01*
X138336140Y-72600500D01*
X138322705Y-72599177D01*
X138315691Y-72597049D01*
X138301923Y-72589690D01*
X138279284Y-72580313D01*
X138255251Y-72575533D01*
X138230747Y-72575533D01*
X138206714Y-72580314D01*
X138184077Y-72589690D01*
X138170309Y-72597049D01*
X138163295Y-72599177D01*
X138149860Y-72600500D01*
X137836140Y-72600500D01*
X137822705Y-72599177D01*
X137815691Y-72597049D01*
X137801923Y-72589690D01*
X137779284Y-72580313D01*
X137755251Y-72575533D01*
X137730747Y-72575533D01*
X137706714Y-72580314D01*
X137684077Y-72589690D01*
X137670309Y-72597049D01*
X137663295Y-72599177D01*
X137649860Y-72600500D01*
X137336140Y-72600500D01*
X137322705Y-72599177D01*
X137315691Y-72597049D01*
X137301923Y-72589690D01*
X137279284Y-72580313D01*
X137255251Y-72575533D01*
X137230747Y-72575533D01*
X137206714Y-72580314D01*
X137184077Y-72589690D01*
X137170309Y-72597049D01*
X137163295Y-72599177D01*
X137149860Y-72600500D01*
X136836140Y-72600500D01*
X136822705Y-72599177D01*
X136815691Y-72597049D01*
X136801923Y-72589690D01*
X136779284Y-72580313D01*
X136755251Y-72575533D01*
X136730747Y-72575533D01*
X136706714Y-72580314D01*
X136684077Y-72589690D01*
X136670309Y-72597049D01*
X136663295Y-72599177D01*
X136649860Y-72600500D01*
X136336140Y-72600500D01*
X136322705Y-72599177D01*
X136315691Y-72597049D01*
X136301923Y-72589690D01*
X136279284Y-72580313D01*
X136255251Y-72575533D01*
X136230747Y-72575533D01*
X136206714Y-72580314D01*
X136184077Y-72589690D01*
X136170309Y-72597049D01*
X136163295Y-72599177D01*
X136149860Y-72600500D01*
X135836140Y-72600500D01*
X135822705Y-72599177D01*
X135815691Y-72597049D01*
X135801923Y-72589690D01*
X135779284Y-72580313D01*
X135755251Y-72575533D01*
X135730747Y-72575533D01*
X135706714Y-72580314D01*
X135684077Y-72589690D01*
X135670309Y-72597049D01*
X135663295Y-72599177D01*
X135649860Y-72600500D01*
X135336140Y-72600500D01*
X135322705Y-72599177D01*
X135315691Y-72597049D01*
X135301923Y-72589690D01*
X135279284Y-72580313D01*
X135255251Y-72575533D01*
X135230747Y-72575533D01*
X135206714Y-72580314D01*
X135184077Y-72589690D01*
X135170309Y-72597049D01*
X135163295Y-72599177D01*
X135149860Y-72600500D01*
X134836140Y-72600500D01*
X134822705Y-72599177D01*
X134815691Y-72597049D01*
X134801923Y-72589690D01*
X134779284Y-72580313D01*
X134755251Y-72575533D01*
X134730747Y-72575533D01*
X134706714Y-72580314D01*
X134684077Y-72589690D01*
X134670309Y-72597049D01*
X134663295Y-72599177D01*
X134649860Y-72600500D01*
X134336140Y-72600500D01*
X134322705Y-72599177D01*
X134315691Y-72597049D01*
X134301923Y-72589690D01*
X134279284Y-72580313D01*
X134255251Y-72575533D01*
X134230747Y-72575533D01*
X134206714Y-72580314D01*
X134184077Y-72589690D01*
X134170309Y-72597049D01*
X134163295Y-72599177D01*
X134149860Y-72600500D01*
X133836140Y-72600500D01*
X133822705Y-72599177D01*
X133815691Y-72597049D01*
X133801923Y-72589690D01*
X133779284Y-72580313D01*
X133755251Y-72575533D01*
X133730747Y-72575533D01*
X133706714Y-72580314D01*
X133684077Y-72589690D01*
X133670309Y-72597049D01*
X133663295Y-72599177D01*
X133649860Y-72600500D01*
X133336140Y-72600500D01*
X133322705Y-72599177D01*
X133315691Y-72597049D01*
X133301923Y-72589690D01*
X133279284Y-72580313D01*
X133255251Y-72575533D01*
X133230747Y-72575533D01*
X133206714Y-72580314D01*
X133184077Y-72589690D01*
X133170309Y-72597049D01*
X133163295Y-72599177D01*
X133149860Y-72600500D01*
X132836140Y-72600500D01*
X132822705Y-72599177D01*
X132815690Y-72597049D01*
X132809224Y-72593592D01*
X132803558Y-72588942D01*
X132798908Y-72583276D01*
X132795451Y-72576810D01*
X132793323Y-72569795D01*
X132792000Y-72556360D01*
X132792000Y-71067640D01*
X132793323Y-71054205D01*
X132795451Y-71047190D01*
X132798908Y-71040724D01*
X132803558Y-71035058D01*
X132809224Y-71030408D01*
X132815690Y-71026951D01*
X132822705Y-71024823D01*
X132836140Y-71023500D01*
X133149860Y-71023500D01*
X133163295Y-71024823D01*
G37*
G36*
X176902724Y-69110497D02*
G01*
X177129906Y-69155686D01*
X177379412Y-69259035D01*
X177603962Y-69409075D01*
X177794925Y-69600038D01*
X177944965Y-69824588D01*
X178048314Y-70074094D01*
X178101000Y-70338968D01*
X178101000Y-70609032D01*
X178048314Y-70873906D01*
X177944965Y-71123412D01*
X177794925Y-71347962D01*
X177603962Y-71538925D01*
X177379412Y-71688965D01*
X177129906Y-71792314D01*
X176913345Y-71835390D01*
X176865033Y-71845000D01*
X176594967Y-71845000D01*
X176546655Y-71835390D01*
X176330094Y-71792314D01*
X176080588Y-71688965D01*
X175856038Y-71538925D01*
X175665075Y-71347962D01*
X175515035Y-71123412D01*
X175411686Y-70873906D01*
X175359000Y-70609032D01*
X175359000Y-70338968D01*
X175411686Y-70074094D01*
X175515035Y-69824588D01*
X175665075Y-69600038D01*
X175856038Y-69409075D01*
X176080588Y-69259035D01*
X176330094Y-69155686D01*
X176557276Y-69110497D01*
X176594967Y-69103000D01*
X176865033Y-69103000D01*
X176902724Y-69110497D01*
G37*
G36*
X127012091Y-70598085D02*
G01*
X127046069Y-70608393D01*
X127077390Y-70625134D01*
X127104839Y-70647661D01*
X127127366Y-70675110D01*
X127144107Y-70706431D01*
X127154415Y-70740409D01*
X127158500Y-70781890D01*
X127158500Y-71458110D01*
X127154415Y-71499591D01*
X127144107Y-71533569D01*
X127127366Y-71564890D01*
X127104839Y-71592339D01*
X127077390Y-71614866D01*
X127046069Y-71631607D01*
X127012091Y-71641915D01*
X126970610Y-71646000D01*
X126369390Y-71646000D01*
X126327909Y-71641915D01*
X126293931Y-71631607D01*
X126262610Y-71614866D01*
X126235161Y-71592339D01*
X126212634Y-71564890D01*
X126195893Y-71533569D01*
X126185585Y-71499591D01*
X126181500Y-71458110D01*
X126181500Y-70781890D01*
X126185585Y-70740409D01*
X126195893Y-70706431D01*
X126212634Y-70675110D01*
X126235161Y-70647661D01*
X126262610Y-70625134D01*
X126293931Y-70608393D01*
X126327909Y-70598085D01*
X126369390Y-70594000D01*
X126970610Y-70594000D01*
X127012091Y-70598085D01*
G37*
G36*
X125437091Y-70598085D02*
G01*
X125471069Y-70608393D01*
X125502390Y-70625134D01*
X125529839Y-70647661D01*
X125552366Y-70675110D01*
X125569107Y-70706431D01*
X125579415Y-70740409D01*
X125583500Y-70781890D01*
X125583500Y-71458110D01*
X125579415Y-71499591D01*
X125569107Y-71533569D01*
X125552366Y-71564890D01*
X125529839Y-71592339D01*
X125502390Y-71614866D01*
X125471069Y-71631607D01*
X125437091Y-71641915D01*
X125395610Y-71646000D01*
X124794390Y-71646000D01*
X124752909Y-71641915D01*
X124718931Y-71631607D01*
X124687610Y-71614866D01*
X124660161Y-71592339D01*
X124637634Y-71564890D01*
X124620893Y-71533569D01*
X124610585Y-71499591D01*
X124606500Y-71458110D01*
X124606500Y-70781890D01*
X124610585Y-70740409D01*
X124620893Y-70706431D01*
X124637634Y-70675110D01*
X124660161Y-70647661D01*
X124687610Y-70625134D01*
X124718931Y-70608393D01*
X124752909Y-70598085D01*
X124794390Y-70594000D01*
X125395610Y-70594000D01*
X125437091Y-70598085D01*
G37*
G36*
X167384591Y-70076585D02*
G01*
X167418569Y-70086893D01*
X167449890Y-70103634D01*
X167477339Y-70126161D01*
X167499866Y-70153610D01*
X167516607Y-70184931D01*
X167526915Y-70218909D01*
X167531000Y-70260390D01*
X167531000Y-70861610D01*
X167526915Y-70903091D01*
X167516607Y-70937069D01*
X167499866Y-70968390D01*
X167477339Y-70995839D01*
X167449890Y-71018366D01*
X167418569Y-71035107D01*
X167384591Y-71045415D01*
X167343110Y-71049500D01*
X166666890Y-71049500D01*
X166625409Y-71045415D01*
X166591431Y-71035107D01*
X166560110Y-71018366D01*
X166532661Y-70995839D01*
X166510134Y-70968390D01*
X166493393Y-70937069D01*
X166483085Y-70903091D01*
X166479000Y-70861610D01*
X166479000Y-70260390D01*
X166483085Y-70218909D01*
X166493393Y-70184931D01*
X166510134Y-70153610D01*
X166532661Y-70126161D01*
X166560110Y-70103634D01*
X166591431Y-70086893D01*
X166625409Y-70076585D01*
X166666890Y-70072500D01*
X167343110Y-70072500D01*
X167384591Y-70076585D01*
G37*
G36*
X106184778Y-68462547D02*
G01*
X106351224Y-68531491D01*
X106501022Y-68631583D01*
X106628417Y-68758978D01*
X106728509Y-68908776D01*
X106797453Y-69075222D01*
X106832600Y-69251918D01*
X106832600Y-69432082D01*
X106797453Y-69608778D01*
X106728509Y-69775224D01*
X106628417Y-69925022D01*
X106501022Y-70052417D01*
X106351224Y-70152509D01*
X106184778Y-70221453D01*
X106008082Y-70256600D01*
X105827918Y-70256600D01*
X105651222Y-70221453D01*
X105484776Y-70152509D01*
X105334978Y-70052417D01*
X105207583Y-69925022D01*
X105107491Y-69775224D01*
X105038547Y-69608778D01*
X105003400Y-69432082D01*
X105003400Y-69251918D01*
X105038547Y-69075222D01*
X105107491Y-68908776D01*
X105207583Y-68758978D01*
X105334978Y-68631583D01*
X105484776Y-68531491D01*
X105651222Y-68462547D01*
X105827918Y-68427400D01*
X106008082Y-68427400D01*
X106184778Y-68462547D01*
G37*
G36*
X103644778Y-68462547D02*
G01*
X103811224Y-68531491D01*
X103961022Y-68631583D01*
X104088417Y-68758978D01*
X104188509Y-68908776D01*
X104257453Y-69075222D01*
X104292600Y-69251918D01*
X104292600Y-69432082D01*
X104257453Y-69608778D01*
X104188509Y-69775224D01*
X104088417Y-69925022D01*
X103961022Y-70052417D01*
X103811224Y-70152509D01*
X103644778Y-70221453D01*
X103468082Y-70256600D01*
X103287918Y-70256600D01*
X103111222Y-70221453D01*
X102944776Y-70152509D01*
X102794978Y-70052417D01*
X102667583Y-69925022D01*
X102567491Y-69775224D01*
X102498547Y-69608778D01*
X102463400Y-69432082D01*
X102463400Y-69251918D01*
X102498547Y-69075222D01*
X102567491Y-68908776D01*
X102667583Y-68758978D01*
X102794978Y-68631583D01*
X102944776Y-68531491D01*
X103111222Y-68462547D01*
X103287918Y-68427400D01*
X103468082Y-68427400D01*
X103644778Y-68462547D01*
G37*
G36*
X123442591Y-69035585D02*
G01*
X123476569Y-69045893D01*
X123507890Y-69062634D01*
X123535339Y-69085161D01*
X123557866Y-69112610D01*
X123574607Y-69143931D01*
X123584915Y-69177909D01*
X123589000Y-69219390D01*
X123589000Y-69820610D01*
X123584915Y-69862091D01*
X123574607Y-69896069D01*
X123557866Y-69927390D01*
X123535339Y-69954839D01*
X123507890Y-69977366D01*
X123476569Y-69994107D01*
X123442591Y-70004415D01*
X123401110Y-70008500D01*
X122724890Y-70008500D01*
X122683409Y-70004415D01*
X122649431Y-69994107D01*
X122618110Y-69977366D01*
X122590661Y-69954839D01*
X122568134Y-69927390D01*
X122551393Y-69896069D01*
X122541085Y-69862091D01*
X122537000Y-69820610D01*
X122537000Y-69219390D01*
X122541085Y-69177909D01*
X122551393Y-69143931D01*
X122568134Y-69112610D01*
X122590661Y-69085161D01*
X122618110Y-69062634D01*
X122649431Y-69045893D01*
X122683409Y-69035585D01*
X122724890Y-69031500D01*
X123401110Y-69031500D01*
X123442591Y-69035585D01*
G37*
G36*
X141693091Y-68693085D02*
G01*
X141727069Y-68703393D01*
X141758390Y-68720134D01*
X141785839Y-68742661D01*
X141808366Y-68770110D01*
X141825107Y-68801431D01*
X141835415Y-68835409D01*
X141839500Y-68876890D01*
X141839500Y-69553110D01*
X141835415Y-69594591D01*
X141825107Y-69628569D01*
X141808366Y-69659890D01*
X141785839Y-69687339D01*
X141758390Y-69709866D01*
X141727069Y-69726607D01*
X141693091Y-69736915D01*
X141651610Y-69741000D01*
X141050390Y-69741000D01*
X141008909Y-69736915D01*
X140974931Y-69726607D01*
X140943610Y-69709866D01*
X140916161Y-69687339D01*
X140893634Y-69659890D01*
X140876893Y-69628569D01*
X140866585Y-69594591D01*
X140862500Y-69553110D01*
X140862500Y-68876890D01*
X140866585Y-68835409D01*
X140876893Y-68801431D01*
X140893634Y-68770110D01*
X140916161Y-68742661D01*
X140943610Y-68720134D01*
X140974931Y-68703393D01*
X141008909Y-68693085D01*
X141050390Y-68689000D01*
X141651610Y-68689000D01*
X141693091Y-68693085D01*
G37*
G36*
X143725091Y-68693085D02*
G01*
X143759069Y-68703393D01*
X143790390Y-68720134D01*
X143817839Y-68742661D01*
X143840366Y-68770110D01*
X143857107Y-68801431D01*
X143867415Y-68835409D01*
X143871500Y-68876890D01*
X143871500Y-69553110D01*
X143867415Y-69594591D01*
X143857107Y-69628569D01*
X143840366Y-69659890D01*
X143817839Y-69687339D01*
X143790390Y-69709866D01*
X143759069Y-69726607D01*
X143725091Y-69736915D01*
X143683610Y-69741000D01*
X143082390Y-69741000D01*
X143040909Y-69736915D01*
X143006931Y-69726607D01*
X142975610Y-69709866D01*
X142948161Y-69687339D01*
X142925634Y-69659890D01*
X142908893Y-69628569D01*
X142898585Y-69594591D01*
X142894500Y-69553110D01*
X142894500Y-68876890D01*
X142898585Y-68835409D01*
X142908893Y-68801431D01*
X142925634Y-68770110D01*
X142948161Y-68742661D01*
X142975610Y-68720134D01*
X143006931Y-68703393D01*
X143040909Y-68693085D01*
X143082390Y-68689000D01*
X143683610Y-68689000D01*
X143725091Y-68693085D01*
G37*
G36*
X145300091Y-68693085D02*
G01*
X145334069Y-68703393D01*
X145365390Y-68720134D01*
X145392839Y-68742661D01*
X145415366Y-68770110D01*
X145432107Y-68801431D01*
X145442415Y-68835409D01*
X145446500Y-68876890D01*
X145446500Y-69553110D01*
X145442415Y-69594591D01*
X145432107Y-69628569D01*
X145415366Y-69659890D01*
X145392839Y-69687339D01*
X145365390Y-69709866D01*
X145334069Y-69726607D01*
X145300091Y-69736915D01*
X145258610Y-69741000D01*
X144657390Y-69741000D01*
X144615909Y-69736915D01*
X144581931Y-69726607D01*
X144550610Y-69709866D01*
X144523161Y-69687339D01*
X144500634Y-69659890D01*
X144483893Y-69628569D01*
X144473585Y-69594591D01*
X144469500Y-69553110D01*
X144469500Y-68876890D01*
X144473585Y-68835409D01*
X144483893Y-68801431D01*
X144500634Y-68770110D01*
X144523161Y-68742661D01*
X144550610Y-68720134D01*
X144581931Y-68703393D01*
X144615909Y-68693085D01*
X144657390Y-68689000D01*
X145258610Y-68689000D01*
X145300091Y-68693085D01*
G37*
G36*
X140118091Y-68693085D02*
G01*
X140152069Y-68703393D01*
X140183390Y-68720134D01*
X140210839Y-68742661D01*
X140233366Y-68770110D01*
X140250107Y-68801431D01*
X140260415Y-68835409D01*
X140264500Y-68876890D01*
X140264500Y-69553110D01*
X140260415Y-69594591D01*
X140250107Y-69628569D01*
X140233366Y-69659890D01*
X140210839Y-69687339D01*
X140183390Y-69709866D01*
X140152069Y-69726607D01*
X140118091Y-69736915D01*
X140076610Y-69741000D01*
X139475390Y-69741000D01*
X139433909Y-69736915D01*
X139399931Y-69726607D01*
X139368610Y-69709866D01*
X139341161Y-69687339D01*
X139318634Y-69659890D01*
X139301893Y-69628569D01*
X139291585Y-69594591D01*
X139287500Y-69553110D01*
X139287500Y-68876890D01*
X139291585Y-68835409D01*
X139301893Y-68801431D01*
X139318634Y-68770110D01*
X139341161Y-68742661D01*
X139368610Y-68720134D01*
X139399931Y-68703393D01*
X139433909Y-68693085D01*
X139475390Y-68689000D01*
X140076610Y-68689000D01*
X140118091Y-68693085D01*
G37*
G36*
X126046000Y-68456000D02*
G01*
X124144000Y-68456000D01*
X124144000Y-67354000D01*
X126046000Y-67354000D01*
X126046000Y-68456000D01*
G37*
G36*
X123442591Y-67460585D02*
G01*
X123476569Y-67470893D01*
X123507890Y-67487634D01*
X123535339Y-67510161D01*
X123557866Y-67537610D01*
X123574607Y-67568931D01*
X123584915Y-67602909D01*
X123589000Y-67644390D01*
X123589000Y-68245610D01*
X123584915Y-68287091D01*
X123574607Y-68321069D01*
X123557866Y-68352390D01*
X123535339Y-68379839D01*
X123507890Y-68402366D01*
X123476569Y-68419107D01*
X123442591Y-68429415D01*
X123401110Y-68433500D01*
X122724890Y-68433500D01*
X122683409Y-68429415D01*
X122649431Y-68419107D01*
X122618110Y-68402366D01*
X122590661Y-68379839D01*
X122568134Y-68352390D01*
X122551393Y-68321069D01*
X122541085Y-68287091D01*
X122537000Y-68245610D01*
X122537000Y-67644390D01*
X122541085Y-67602909D01*
X122551393Y-67568931D01*
X122568134Y-67537610D01*
X122590661Y-67510161D01*
X122618110Y-67487634D01*
X122649431Y-67470893D01*
X122683409Y-67460585D01*
X122724890Y-67456500D01*
X123401110Y-67456500D01*
X123442591Y-67460585D01*
G37*
G36*
X135597091Y-66915085D02*
G01*
X135631069Y-66925393D01*
X135662390Y-66942134D01*
X135689839Y-66964661D01*
X135712366Y-66992110D01*
X135729107Y-67023431D01*
X135739415Y-67057409D01*
X135743500Y-67098890D01*
X135743500Y-67775110D01*
X135739415Y-67816591D01*
X135729107Y-67850569D01*
X135712366Y-67881890D01*
X135689839Y-67909339D01*
X135662390Y-67931866D01*
X135631069Y-67948607D01*
X135597091Y-67958915D01*
X135555610Y-67963000D01*
X134954390Y-67963000D01*
X134912909Y-67958915D01*
X134878931Y-67948607D01*
X134847610Y-67931866D01*
X134820161Y-67909339D01*
X134797634Y-67881890D01*
X134780893Y-67850569D01*
X134770585Y-67816591D01*
X134766500Y-67775110D01*
X134766500Y-67098890D01*
X134770585Y-67057409D01*
X134780893Y-67023431D01*
X134797634Y-66992110D01*
X134820161Y-66964661D01*
X134847610Y-66942134D01*
X134878931Y-66925393D01*
X134912909Y-66915085D01*
X134954390Y-66911000D01*
X135555610Y-66911000D01*
X135597091Y-66915085D01*
G37*
G36*
X140118091Y-66915085D02*
G01*
X140152069Y-66925393D01*
X140183390Y-66942134D01*
X140210839Y-66964661D01*
X140233366Y-66992110D01*
X140250107Y-67023431D01*
X140260415Y-67057409D01*
X140264500Y-67098890D01*
X140264500Y-67775110D01*
X140260415Y-67816591D01*
X140250107Y-67850569D01*
X140233366Y-67881890D01*
X140210839Y-67909339D01*
X140183390Y-67931866D01*
X140152069Y-67948607D01*
X140118091Y-67958915D01*
X140076610Y-67963000D01*
X139475390Y-67963000D01*
X139433909Y-67958915D01*
X139399931Y-67948607D01*
X139368610Y-67931866D01*
X139341161Y-67909339D01*
X139318634Y-67881890D01*
X139301893Y-67850569D01*
X139291585Y-67816591D01*
X139287500Y-67775110D01*
X139287500Y-67098890D01*
X139291585Y-67057409D01*
X139301893Y-67023431D01*
X139318634Y-66992110D01*
X139341161Y-66964661D01*
X139368610Y-66942134D01*
X139399931Y-66925393D01*
X139433909Y-66915085D01*
X139475390Y-66911000D01*
X140076610Y-66911000D01*
X140118091Y-66915085D01*
G37*
G36*
X141693091Y-66915085D02*
G01*
X141727069Y-66925393D01*
X141758390Y-66942134D01*
X141785839Y-66964661D01*
X141808366Y-66992110D01*
X141825107Y-67023431D01*
X141835415Y-67057409D01*
X141839500Y-67098890D01*
X141839500Y-67775110D01*
X141835415Y-67816591D01*
X141825107Y-67850569D01*
X141808366Y-67881890D01*
X141785839Y-67909339D01*
X141758390Y-67931866D01*
X141727069Y-67948607D01*
X141693091Y-67958915D01*
X141651610Y-67963000D01*
X141050390Y-67963000D01*
X141008909Y-67958915D01*
X140974931Y-67948607D01*
X140943610Y-67931866D01*
X140916161Y-67909339D01*
X140893634Y-67881890D01*
X140876893Y-67850569D01*
X140866585Y-67816591D01*
X140862500Y-67775110D01*
X140862500Y-67098890D01*
X140866585Y-67057409D01*
X140876893Y-67023431D01*
X140893634Y-66992110D01*
X140916161Y-66964661D01*
X140943610Y-66942134D01*
X140974931Y-66925393D01*
X141008909Y-66915085D01*
X141050390Y-66911000D01*
X141651610Y-66911000D01*
X141693091Y-66915085D01*
G37*
G36*
X143725091Y-66915085D02*
G01*
X143759069Y-66925393D01*
X143790390Y-66942134D01*
X143817839Y-66964661D01*
X143840366Y-66992110D01*
X143857107Y-67023431D01*
X143867415Y-67057409D01*
X143871500Y-67098890D01*
X143871500Y-67775110D01*
X143867415Y-67816591D01*
X143857107Y-67850569D01*
X143840366Y-67881890D01*
X143817839Y-67909339D01*
X143790390Y-67931866D01*
X143759069Y-67948607D01*
X143725091Y-67958915D01*
X143683610Y-67963000D01*
X143082390Y-67963000D01*
X143040909Y-67958915D01*
X143006931Y-67948607D01*
X142975610Y-67931866D01*
X142948161Y-67909339D01*
X142925634Y-67881890D01*
X142908893Y-67850569D01*
X142898585Y-67816591D01*
X142894500Y-67775110D01*
X142894500Y-67098890D01*
X142898585Y-67057409D01*
X142908893Y-67023431D01*
X142925634Y-66992110D01*
X142948161Y-66964661D01*
X142975610Y-66942134D01*
X143006931Y-66925393D01*
X143040909Y-66915085D01*
X143082390Y-66911000D01*
X143683610Y-66911000D01*
X143725091Y-66915085D01*
G37*
G36*
X145300091Y-66915085D02*
G01*
X145334069Y-66925393D01*
X145365390Y-66942134D01*
X145392839Y-66964661D01*
X145415366Y-66992110D01*
X145432107Y-67023431D01*
X145442415Y-67057409D01*
X145446500Y-67098890D01*
X145446500Y-67775110D01*
X145442415Y-67816591D01*
X145432107Y-67850569D01*
X145415366Y-67881890D01*
X145392839Y-67909339D01*
X145365390Y-67931866D01*
X145334069Y-67948607D01*
X145300091Y-67958915D01*
X145258610Y-67963000D01*
X144657390Y-67963000D01*
X144615909Y-67958915D01*
X144581931Y-67948607D01*
X144550610Y-67931866D01*
X144523161Y-67909339D01*
X144500634Y-67881890D01*
X144483893Y-67850569D01*
X144473585Y-67816591D01*
X144469500Y-67775110D01*
X144469500Y-67098890D01*
X144473585Y-67057409D01*
X144483893Y-67023431D01*
X144500634Y-66992110D01*
X144523161Y-66964661D01*
X144550610Y-66942134D01*
X144581931Y-66925393D01*
X144615909Y-66915085D01*
X144657390Y-66911000D01*
X145258610Y-66911000D01*
X145300091Y-66915085D01*
G37*
G36*
X134022091Y-66915085D02*
G01*
X134056069Y-66925393D01*
X134087390Y-66942134D01*
X134114839Y-66964661D01*
X134137366Y-66992110D01*
X134154107Y-67023431D01*
X134164415Y-67057409D01*
X134168500Y-67098890D01*
X134168500Y-67775110D01*
X134164415Y-67816591D01*
X134154107Y-67850569D01*
X134137366Y-67881890D01*
X134114839Y-67909339D01*
X134087390Y-67931866D01*
X134056069Y-67948607D01*
X134022091Y-67958915D01*
X133980610Y-67963000D01*
X133379390Y-67963000D01*
X133337909Y-67958915D01*
X133303931Y-67948607D01*
X133272610Y-67931866D01*
X133245161Y-67909339D01*
X133222634Y-67881890D01*
X133205893Y-67850569D01*
X133195585Y-67816591D01*
X133191500Y-67775110D01*
X133191500Y-67098890D01*
X133195585Y-67057409D01*
X133205893Y-67023431D01*
X133222634Y-66992110D01*
X133245161Y-66964661D01*
X133272610Y-66942134D01*
X133303931Y-66925393D01*
X133337909Y-66915085D01*
X133379390Y-66911000D01*
X133980610Y-66911000D01*
X134022091Y-66915085D01*
G37*
G36*
X132295091Y-66915085D02*
G01*
X132329069Y-66925393D01*
X132360390Y-66942134D01*
X132387839Y-66964661D01*
X132410366Y-66992110D01*
X132427107Y-67023431D01*
X132437415Y-67057409D01*
X132441500Y-67098890D01*
X132441500Y-67775110D01*
X132437415Y-67816591D01*
X132427107Y-67850569D01*
X132410366Y-67881890D01*
X132387839Y-67909339D01*
X132360390Y-67931866D01*
X132329069Y-67948607D01*
X132295091Y-67958915D01*
X132253610Y-67963000D01*
X131652390Y-67963000D01*
X131610909Y-67958915D01*
X131576931Y-67948607D01*
X131545610Y-67931866D01*
X131518161Y-67909339D01*
X131495634Y-67881890D01*
X131478893Y-67850569D01*
X131468585Y-67816591D01*
X131464500Y-67775110D01*
X131464500Y-67098890D01*
X131468585Y-67057409D01*
X131478893Y-67023431D01*
X131495634Y-66992110D01*
X131518161Y-66964661D01*
X131545610Y-66942134D01*
X131576931Y-66925393D01*
X131610909Y-66915085D01*
X131652390Y-66911000D01*
X132253610Y-66911000D01*
X132295091Y-66915085D01*
G37*
G36*
X130720091Y-66915085D02*
G01*
X130754069Y-66925393D01*
X130785390Y-66942134D01*
X130812839Y-66964661D01*
X130835366Y-66992110D01*
X130852107Y-67023431D01*
X130862415Y-67057409D01*
X130866500Y-67098890D01*
X130866500Y-67775110D01*
X130862415Y-67816591D01*
X130852107Y-67850569D01*
X130835366Y-67881890D01*
X130812839Y-67909339D01*
X130785390Y-67931866D01*
X130754069Y-67948607D01*
X130720091Y-67958915D01*
X130678610Y-67963000D01*
X130077390Y-67963000D01*
X130035909Y-67958915D01*
X130001931Y-67948607D01*
X129970610Y-67931866D01*
X129943161Y-67909339D01*
X129920634Y-67881890D01*
X129903893Y-67850569D01*
X129893585Y-67816591D01*
X129889500Y-67775110D01*
X129889500Y-67098890D01*
X129893585Y-67057409D01*
X129903893Y-67023431D01*
X129920634Y-66992110D01*
X129943161Y-66964661D01*
X129970610Y-66942134D01*
X130001931Y-66925393D01*
X130035909Y-66915085D01*
X130077390Y-66911000D01*
X130678610Y-66911000D01*
X130720091Y-66915085D01*
G37*
G36*
X106184778Y-65922547D02*
G01*
X106351224Y-65991491D01*
X106501022Y-66091583D01*
X106628417Y-66218978D01*
X106728509Y-66368776D01*
X106797453Y-66535222D01*
X106832600Y-66711918D01*
X106832600Y-66892082D01*
X106797453Y-67068778D01*
X106728509Y-67235224D01*
X106628417Y-67385022D01*
X106501022Y-67512417D01*
X106351224Y-67612509D01*
X106184778Y-67681453D01*
X106008082Y-67716600D01*
X105827918Y-67716600D01*
X105651222Y-67681453D01*
X105484776Y-67612509D01*
X105334978Y-67512417D01*
X105207583Y-67385022D01*
X105107491Y-67235224D01*
X105038547Y-67068778D01*
X105003400Y-66892082D01*
X105003400Y-66711918D01*
X105038547Y-66535222D01*
X105107491Y-66368776D01*
X105207583Y-66218978D01*
X105334978Y-66091583D01*
X105484776Y-65991491D01*
X105651222Y-65922547D01*
X105827918Y-65887400D01*
X106008082Y-65887400D01*
X106184778Y-65922547D01*
G37*
G36*
X103644778Y-65922547D02*
G01*
X103811224Y-65991491D01*
X103961022Y-66091583D01*
X104088417Y-66218978D01*
X104188509Y-66368776D01*
X104257453Y-66535222D01*
X104292600Y-66711918D01*
X104292600Y-66892082D01*
X104257453Y-67068778D01*
X104188509Y-67235224D01*
X104088417Y-67385022D01*
X103961022Y-67512417D01*
X103811224Y-67612509D01*
X103644778Y-67681453D01*
X103468082Y-67716600D01*
X103287918Y-67716600D01*
X103111222Y-67681453D01*
X102944776Y-67612509D01*
X102794978Y-67512417D01*
X102667583Y-67385022D01*
X102567491Y-67235224D01*
X102498547Y-67068778D01*
X102463400Y-66892082D01*
X102463400Y-66711918D01*
X102498547Y-66535222D01*
X102567491Y-66368776D01*
X102667583Y-66218978D01*
X102794978Y-66091583D01*
X102944776Y-65991491D01*
X103111222Y-65922547D01*
X103287918Y-65887400D01*
X103468082Y-65887400D01*
X103644778Y-65922547D01*
G37*
G36*
X110869591Y-66635085D02*
G01*
X110903569Y-66645393D01*
X110934890Y-66662134D01*
X110962339Y-66684661D01*
X110984866Y-66712110D01*
X111001607Y-66743431D01*
X111011915Y-66777409D01*
X111016000Y-66818890D01*
X111016000Y-67420110D01*
X111011915Y-67461591D01*
X111001607Y-67495569D01*
X110984866Y-67526890D01*
X110962339Y-67554339D01*
X110934890Y-67576866D01*
X110903569Y-67593607D01*
X110869591Y-67603915D01*
X110828110Y-67608000D01*
X110151890Y-67608000D01*
X110110409Y-67603915D01*
X110076431Y-67593607D01*
X110045110Y-67576866D01*
X110017661Y-67554339D01*
X109995134Y-67526890D01*
X109978393Y-67495569D01*
X109968085Y-67461591D01*
X109964000Y-67420110D01*
X109964000Y-66818890D01*
X109968085Y-66777409D01*
X109978393Y-66743431D01*
X109995134Y-66712110D01*
X110017661Y-66684661D01*
X110045110Y-66662134D01*
X110076431Y-66645393D01*
X110110409Y-66635085D01*
X110151890Y-66631000D01*
X110828110Y-66631000D01*
X110869591Y-66635085D01*
G37*
G36*
X112647591Y-66635085D02*
G01*
X112681569Y-66645393D01*
X112712890Y-66662134D01*
X112740339Y-66684661D01*
X112762866Y-66712110D01*
X112779607Y-66743431D01*
X112789915Y-66777409D01*
X112794000Y-66818890D01*
X112794000Y-67420110D01*
X112789915Y-67461591D01*
X112779607Y-67495569D01*
X112762866Y-67526890D01*
X112740339Y-67554339D01*
X112712890Y-67576866D01*
X112681569Y-67593607D01*
X112647591Y-67603915D01*
X112606110Y-67608000D01*
X111929890Y-67608000D01*
X111888409Y-67603915D01*
X111854431Y-67593607D01*
X111823110Y-67576866D01*
X111795661Y-67554339D01*
X111773134Y-67526890D01*
X111756393Y-67495569D01*
X111746085Y-67461591D01*
X111742000Y-67420110D01*
X111742000Y-66818890D01*
X111746085Y-66777409D01*
X111756393Y-66743431D01*
X111773134Y-66712110D01*
X111795661Y-66684661D01*
X111823110Y-66662134D01*
X111854431Y-66645393D01*
X111888409Y-66635085D01*
X111929890Y-66631000D01*
X112606110Y-66631000D01*
X112647591Y-66635085D01*
G37*
G36*
X136752000Y-64148000D02*
G01*
X135926999Y-64148000D01*
X135902613Y-64150402D01*
X135879164Y-64157515D01*
X135857553Y-64169066D01*
X135838611Y-64184611D01*
X135823066Y-64203553D01*
X135811515Y-64225164D01*
X135804402Y-64248613D01*
X135802000Y-64272999D01*
X135802000Y-64521001D01*
X135804402Y-64545387D01*
X135811515Y-64568836D01*
X135823066Y-64590447D01*
X135838611Y-64609389D01*
X135857553Y-64624934D01*
X135879164Y-64636485D01*
X135902613Y-64643598D01*
X135926999Y-64646000D01*
X136752000Y-64646000D01*
X136752000Y-65148000D01*
X135926999Y-65148000D01*
X135902613Y-65150402D01*
X135879164Y-65157515D01*
X135857553Y-65169066D01*
X135838611Y-65184611D01*
X135823066Y-65203553D01*
X135811515Y-65225164D01*
X135804402Y-65248613D01*
X135802000Y-65272999D01*
X135802000Y-65521001D01*
X135804402Y-65545387D01*
X135811515Y-65568836D01*
X135823066Y-65590447D01*
X135838611Y-65609389D01*
X135857553Y-65624934D01*
X135879164Y-65636485D01*
X135902613Y-65643598D01*
X135926999Y-65646000D01*
X136752000Y-65646000D01*
X136752000Y-66148000D01*
X133250000Y-66148000D01*
X133250000Y-65646000D01*
X134075001Y-65646000D01*
X134099387Y-65643598D01*
X134122836Y-65636485D01*
X134144447Y-65624934D01*
X134163389Y-65609389D01*
X134178934Y-65590447D01*
X134190485Y-65568836D01*
X134197598Y-65545387D01*
X134200000Y-65521001D01*
X134200000Y-65272999D01*
X134197598Y-65248613D01*
X134190485Y-65225164D01*
X134178934Y-65203553D01*
X134163389Y-65184611D01*
X134144447Y-65169066D01*
X134122836Y-65157515D01*
X134099387Y-65150402D01*
X134075001Y-65148000D01*
X133250000Y-65148000D01*
X133250000Y-64646000D01*
X134075001Y-64646000D01*
X134099387Y-64643598D01*
X134122836Y-64636485D01*
X134144447Y-64624934D01*
X134163389Y-64609389D01*
X134178934Y-64590447D01*
X134190485Y-64568836D01*
X134197598Y-64545387D01*
X134200000Y-64521001D01*
X134200000Y-64272999D01*
X134197598Y-64248613D01*
X134190485Y-64225164D01*
X134178934Y-64203553D01*
X134163389Y-64184611D01*
X134144447Y-64169066D01*
X134122836Y-64157515D01*
X134099387Y-64150402D01*
X134075001Y-64148000D01*
X133250000Y-64148000D01*
X133250000Y-63646000D01*
X136752000Y-63646000D01*
X136752000Y-64148000D01*
G37*
G36*
X140568642Y-64507781D02*
G01*
X140714414Y-64568162D01*
X140714416Y-64568163D01*
X140845608Y-64655822D01*
X140957178Y-64767392D01*
X141015047Y-64854000D01*
X141044838Y-64898586D01*
X141105219Y-65044358D01*
X141136000Y-65199107D01*
X141136000Y-65356893D01*
X141105219Y-65511642D01*
X141044838Y-65657414D01*
X141044837Y-65657416D01*
X140957178Y-65788608D01*
X140845608Y-65900178D01*
X140714416Y-65987837D01*
X140714415Y-65987838D01*
X140714414Y-65987838D01*
X140568642Y-66048219D01*
X140413893Y-66079000D01*
X140256107Y-66079000D01*
X140101358Y-66048219D01*
X139955586Y-65987838D01*
X139955585Y-65987838D01*
X139955584Y-65987837D01*
X139824392Y-65900178D01*
X139712822Y-65788608D01*
X139625163Y-65657416D01*
X139625162Y-65657414D01*
X139564781Y-65511642D01*
X139534000Y-65356893D01*
X139534000Y-65199107D01*
X139564781Y-65044358D01*
X139625162Y-64898586D01*
X139654953Y-64854000D01*
X139712822Y-64767392D01*
X139824392Y-64655822D01*
X139955584Y-64568163D01*
X139955586Y-64568162D01*
X140101358Y-64507781D01*
X140256107Y-64477000D01*
X140413893Y-64477000D01*
X140568642Y-64507781D01*
G37*
G36*
X110869591Y-65060085D02*
G01*
X110903569Y-65070393D01*
X110934890Y-65087134D01*
X110962339Y-65109661D01*
X110984866Y-65137110D01*
X111001607Y-65168431D01*
X111011915Y-65202409D01*
X111016000Y-65243890D01*
X111016000Y-65845110D01*
X111011915Y-65886591D01*
X111001607Y-65920569D01*
X110984866Y-65951890D01*
X110962339Y-65979339D01*
X110934890Y-66001866D01*
X110903569Y-66018607D01*
X110869591Y-66028915D01*
X110828110Y-66033000D01*
X110151890Y-66033000D01*
X110110409Y-66028915D01*
X110076431Y-66018607D01*
X110045110Y-66001866D01*
X110017661Y-65979339D01*
X109995134Y-65951890D01*
X109978393Y-65920569D01*
X109968085Y-65886591D01*
X109964000Y-65845110D01*
X109964000Y-65243890D01*
X109968085Y-65202409D01*
X109978393Y-65168431D01*
X109995134Y-65137110D01*
X110017661Y-65109661D01*
X110045110Y-65087134D01*
X110076431Y-65070393D01*
X110110409Y-65060085D01*
X110151890Y-65056000D01*
X110828110Y-65056000D01*
X110869591Y-65060085D01*
G37*
G36*
X112647591Y-65060085D02*
G01*
X112681569Y-65070393D01*
X112712890Y-65087134D01*
X112740339Y-65109661D01*
X112762866Y-65137110D01*
X112779607Y-65168431D01*
X112789915Y-65202409D01*
X112794000Y-65243890D01*
X112794000Y-65845110D01*
X112789915Y-65886591D01*
X112779607Y-65920569D01*
X112762866Y-65951890D01*
X112740339Y-65979339D01*
X112712890Y-66001866D01*
X112681569Y-66018607D01*
X112647591Y-66028915D01*
X112606110Y-66033000D01*
X111929890Y-66033000D01*
X111888409Y-66028915D01*
X111854431Y-66018607D01*
X111823110Y-66001866D01*
X111795661Y-65979339D01*
X111773134Y-65951890D01*
X111756393Y-65920569D01*
X111746085Y-65886591D01*
X111742000Y-65845110D01*
X111742000Y-65243890D01*
X111746085Y-65202409D01*
X111756393Y-65168431D01*
X111773134Y-65137110D01*
X111795661Y-65109661D01*
X111823110Y-65087134D01*
X111854431Y-65070393D01*
X111888409Y-65060085D01*
X111929890Y-65056000D01*
X112606110Y-65056000D01*
X112647591Y-65060085D01*
G37*
G36*
X126046000Y-65956000D02*
G01*
X124144000Y-65956000D01*
X124144000Y-64854000D01*
X126046000Y-64854000D01*
X126046000Y-65956000D01*
G37*
G36*
X123442591Y-64920585D02*
G01*
X123476569Y-64930893D01*
X123507890Y-64947634D01*
X123535339Y-64970161D01*
X123557866Y-64997610D01*
X123574607Y-65028931D01*
X123584915Y-65062909D01*
X123589000Y-65104390D01*
X123589000Y-65705610D01*
X123584915Y-65747091D01*
X123574607Y-65781069D01*
X123557866Y-65812390D01*
X123535339Y-65839839D01*
X123507890Y-65862366D01*
X123476569Y-65879107D01*
X123442591Y-65889415D01*
X123401110Y-65893500D01*
X122724890Y-65893500D01*
X122683409Y-65889415D01*
X122649431Y-65879107D01*
X122618110Y-65862366D01*
X122590661Y-65839839D01*
X122568134Y-65812390D01*
X122551393Y-65781069D01*
X122541085Y-65747091D01*
X122537000Y-65705610D01*
X122537000Y-65104390D01*
X122541085Y-65062909D01*
X122551393Y-65028931D01*
X122568134Y-64997610D01*
X122590661Y-64970161D01*
X122618110Y-64947634D01*
X122649431Y-64930893D01*
X122683409Y-64920585D01*
X122724890Y-64916500D01*
X123401110Y-64916500D01*
X123442591Y-64920585D01*
G37*
G36*
X106184778Y-63382547D02*
G01*
X106351224Y-63451491D01*
X106501022Y-63551583D01*
X106628417Y-63678978D01*
X106728509Y-63828776D01*
X106797453Y-63995222D01*
X106832600Y-64171918D01*
X106832600Y-64352082D01*
X106797453Y-64528778D01*
X106728509Y-64695224D01*
X106628417Y-64845022D01*
X106501022Y-64972417D01*
X106351224Y-65072509D01*
X106184778Y-65141453D01*
X106008082Y-65176600D01*
X105827918Y-65176600D01*
X105651222Y-65141453D01*
X105484776Y-65072509D01*
X105334978Y-64972417D01*
X105207583Y-64845022D01*
X105107491Y-64695224D01*
X105038547Y-64528778D01*
X105003400Y-64352082D01*
X105003400Y-64171918D01*
X105038547Y-63995222D01*
X105107491Y-63828776D01*
X105207583Y-63678978D01*
X105334978Y-63551583D01*
X105484776Y-63451491D01*
X105651222Y-63382547D01*
X105827918Y-63347400D01*
X106008082Y-63347400D01*
X106184778Y-63382547D01*
G37*
G36*
X103644778Y-63382547D02*
G01*
X103811224Y-63451491D01*
X103961022Y-63551583D01*
X104088417Y-63678978D01*
X104188509Y-63828776D01*
X104257453Y-63995222D01*
X104292600Y-64171918D01*
X104292600Y-64352082D01*
X104257453Y-64528778D01*
X104188509Y-64695224D01*
X104088417Y-64845022D01*
X103961022Y-64972417D01*
X103811224Y-65072509D01*
X103644778Y-65141453D01*
X103468082Y-65176600D01*
X103287918Y-65176600D01*
X103111222Y-65141453D01*
X102944776Y-65072509D01*
X102794978Y-64972417D01*
X102667583Y-64845022D01*
X102567491Y-64695224D01*
X102498547Y-64528778D01*
X102463400Y-64352082D01*
X102463400Y-64171918D01*
X102498547Y-63995222D01*
X102567491Y-63828776D01*
X102667583Y-63678978D01*
X102794978Y-63551583D01*
X102944776Y-63451491D01*
X103111222Y-63382547D01*
X103287918Y-63347400D01*
X103468082Y-63347400D01*
X103644778Y-63382547D01*
G37*
G36*
X131551642Y-63491781D02*
G01*
X131697414Y-63552162D01*
X131697416Y-63552163D01*
X131828608Y-63639822D01*
X131940178Y-63751392D01*
X132020264Y-63871250D01*
X132027838Y-63882586D01*
X132088219Y-64028358D01*
X132119000Y-64183107D01*
X132119000Y-64340893D01*
X132088219Y-64495642D01*
X132027838Y-64641414D01*
X132027837Y-64641416D01*
X131940178Y-64772608D01*
X131828608Y-64884178D01*
X131697416Y-64971837D01*
X131697415Y-64971838D01*
X131697414Y-64971838D01*
X131551642Y-65032219D01*
X131396893Y-65063000D01*
X131239107Y-65063000D01*
X131084358Y-65032219D01*
X130938586Y-64971838D01*
X130938585Y-64971838D01*
X130938584Y-64971837D01*
X130807392Y-64884178D01*
X130695822Y-64772608D01*
X130608163Y-64641416D01*
X130608162Y-64641414D01*
X130547781Y-64495642D01*
X130517000Y-64340893D01*
X130517000Y-64183107D01*
X130547781Y-64028358D01*
X130608162Y-63882586D01*
X130615736Y-63871250D01*
X130695822Y-63751392D01*
X130807392Y-63639822D01*
X130938584Y-63552163D01*
X130938586Y-63552162D01*
X131084358Y-63491781D01*
X131239107Y-63461000D01*
X131396893Y-63461000D01*
X131551642Y-63491781D01*
G37*
G36*
X123442591Y-63345585D02*
G01*
X123476569Y-63355893D01*
X123507890Y-63372634D01*
X123535339Y-63395161D01*
X123557866Y-63422610D01*
X123574607Y-63453931D01*
X123584915Y-63487909D01*
X123589000Y-63529390D01*
X123589000Y-64130610D01*
X123584915Y-64172091D01*
X123574607Y-64206069D01*
X123557866Y-64237390D01*
X123535339Y-64264839D01*
X123507890Y-64287366D01*
X123476569Y-64304107D01*
X123442591Y-64314415D01*
X123401110Y-64318500D01*
X122724890Y-64318500D01*
X122683409Y-64314415D01*
X122649431Y-64304107D01*
X122618110Y-64287366D01*
X122590661Y-64264839D01*
X122568134Y-64237390D01*
X122551393Y-64206069D01*
X122541085Y-64172091D01*
X122537000Y-64130610D01*
X122537000Y-63529390D01*
X122541085Y-63487909D01*
X122551393Y-63453931D01*
X122568134Y-63422610D01*
X122590661Y-63395161D01*
X122618110Y-63372634D01*
X122649431Y-63355893D01*
X122683409Y-63345585D01*
X122724890Y-63341500D01*
X123401110Y-63341500D01*
X123442591Y-63345585D01*
G37*
G36*
X115378091Y-63142585D02*
G01*
X115412069Y-63152893D01*
X115443390Y-63169634D01*
X115470839Y-63192161D01*
X115493366Y-63219610D01*
X115510107Y-63250931D01*
X115520415Y-63284909D01*
X115524500Y-63326390D01*
X115524500Y-63927610D01*
X115520415Y-63969091D01*
X115510107Y-64003069D01*
X115493366Y-64034390D01*
X115470839Y-64061839D01*
X115443390Y-64084366D01*
X115412069Y-64101107D01*
X115378091Y-64111415D01*
X115336610Y-64115500D01*
X114660390Y-64115500D01*
X114618909Y-64111415D01*
X114584931Y-64101107D01*
X114553610Y-64084366D01*
X114526161Y-64061839D01*
X114503634Y-64034390D01*
X114486893Y-64003069D01*
X114476585Y-63969091D01*
X114472500Y-63927610D01*
X114472500Y-63326390D01*
X114476585Y-63284909D01*
X114486893Y-63250931D01*
X114503634Y-63219610D01*
X114526161Y-63192161D01*
X114553610Y-63169634D01*
X114584931Y-63152893D01*
X114618909Y-63142585D01*
X114660390Y-63138500D01*
X115336610Y-63138500D01*
X115378091Y-63142585D01*
G37*
G36*
X113447500Y-64028000D02*
G01*
X112345500Y-64028000D01*
X112345500Y-63226000D01*
X113447500Y-63226000D01*
X113447500Y-64028000D01*
G37*
G36*
X111047500Y-63078000D02*
G01*
X109945500Y-63078000D01*
X109945500Y-62276000D01*
X111047500Y-62276000D01*
X111047500Y-63078000D01*
G37*
G36*
X155434512Y-61206927D02*
G01*
X155583812Y-61236624D01*
X155747784Y-61304544D01*
X155895354Y-61403147D01*
X156020853Y-61528646D01*
X156119456Y-61676216D01*
X156187376Y-61840188D01*
X156222000Y-62014259D01*
X156222000Y-62191741D01*
X156187376Y-62365812D01*
X156119456Y-62529784D01*
X156020853Y-62677354D01*
X155895354Y-62802853D01*
X155747784Y-62901456D01*
X155583812Y-62969376D01*
X155434512Y-62999073D01*
X155409742Y-63004000D01*
X155232258Y-63004000D01*
X155207488Y-62999073D01*
X155058188Y-62969376D01*
X154894216Y-62901456D01*
X154746646Y-62802853D01*
X154621147Y-62677354D01*
X154522544Y-62529784D01*
X154454624Y-62365812D01*
X154420000Y-62191741D01*
X154420000Y-62014259D01*
X154454624Y-61840188D01*
X154522544Y-61676216D01*
X154621147Y-61528646D01*
X154746646Y-61403147D01*
X154894216Y-61304544D01*
X155058188Y-61236624D01*
X155207488Y-61206927D01*
X155232258Y-61202000D01*
X155409742Y-61202000D01*
X155434512Y-61206927D01*
G37*
G36*
X152894512Y-61206927D02*
G01*
X153043812Y-61236624D01*
X153207784Y-61304544D01*
X153355354Y-61403147D01*
X153480853Y-61528646D01*
X153579456Y-61676216D01*
X153647376Y-61840188D01*
X153682000Y-62014259D01*
X153682000Y-62191741D01*
X153647376Y-62365812D01*
X153579456Y-62529784D01*
X153480853Y-62677354D01*
X153355354Y-62802853D01*
X153207784Y-62901456D01*
X153043812Y-62969376D01*
X152894512Y-62999073D01*
X152869742Y-63004000D01*
X152692258Y-63004000D01*
X152667488Y-62999073D01*
X152518188Y-62969376D01*
X152354216Y-62901456D01*
X152206646Y-62802853D01*
X152081147Y-62677354D01*
X151982544Y-62529784D01*
X151914624Y-62365812D01*
X151880000Y-62191741D01*
X151880000Y-62014259D01*
X151914624Y-61840188D01*
X151982544Y-61676216D01*
X152081147Y-61528646D01*
X152206646Y-61403147D01*
X152354216Y-61304544D01*
X152518188Y-61236624D01*
X152667488Y-61206927D01*
X152692258Y-61202000D01*
X152869742Y-61202000D01*
X152894512Y-61206927D01*
G37*
G36*
X157974512Y-61206927D02*
G01*
X158123812Y-61236624D01*
X158287784Y-61304544D01*
X158435354Y-61403147D01*
X158560853Y-61528646D01*
X158659456Y-61676216D01*
X158727376Y-61840188D01*
X158762000Y-62014259D01*
X158762000Y-62191741D01*
X158727376Y-62365812D01*
X158659456Y-62529784D01*
X158560853Y-62677354D01*
X158435354Y-62802853D01*
X158287784Y-62901456D01*
X158123812Y-62969376D01*
X157974512Y-62999073D01*
X157949742Y-63004000D01*
X157772258Y-63004000D01*
X157747488Y-62999073D01*
X157598188Y-62969376D01*
X157434216Y-62901456D01*
X157286646Y-62802853D01*
X157161147Y-62677354D01*
X157062544Y-62529784D01*
X156994624Y-62365812D01*
X156960000Y-62191741D01*
X156960000Y-62014259D01*
X156994624Y-61840188D01*
X157062544Y-61676216D01*
X157161147Y-61528646D01*
X157286646Y-61403147D01*
X157434216Y-61304544D01*
X157598188Y-61236624D01*
X157747488Y-61206927D01*
X157772258Y-61202000D01*
X157949742Y-61202000D01*
X157974512Y-61206927D01*
G37*
G36*
X160514512Y-61206927D02*
G01*
X160663812Y-61236624D01*
X160827784Y-61304544D01*
X160975354Y-61403147D01*
X161100853Y-61528646D01*
X161199456Y-61676216D01*
X161267376Y-61840188D01*
X161302000Y-62014259D01*
X161302000Y-62191741D01*
X161267376Y-62365812D01*
X161199456Y-62529784D01*
X161100853Y-62677354D01*
X160975354Y-62802853D01*
X160827784Y-62901456D01*
X160663812Y-62969376D01*
X160514512Y-62999073D01*
X160489742Y-63004000D01*
X160312258Y-63004000D01*
X160287488Y-62999073D01*
X160138188Y-62969376D01*
X159974216Y-62901456D01*
X159826646Y-62802853D01*
X159701147Y-62677354D01*
X159602544Y-62529784D01*
X159534624Y-62365812D01*
X159500000Y-62191741D01*
X159500000Y-62014259D01*
X159534624Y-61840188D01*
X159602544Y-61676216D01*
X159701147Y-61528646D01*
X159826646Y-61403147D01*
X159974216Y-61304544D01*
X160138188Y-61236624D01*
X160287488Y-61206927D01*
X160312258Y-61202000D01*
X160489742Y-61202000D01*
X160514512Y-61206927D01*
G37*
G36*
X149211512Y-61206927D02*
G01*
X149360812Y-61236624D01*
X149524784Y-61304544D01*
X149672354Y-61403147D01*
X149797853Y-61528646D01*
X149896456Y-61676216D01*
X149964376Y-61840188D01*
X149999000Y-62014259D01*
X149999000Y-62191741D01*
X149964376Y-62365812D01*
X149896456Y-62529784D01*
X149797853Y-62677354D01*
X149672354Y-62802853D01*
X149524784Y-62901456D01*
X149360812Y-62969376D01*
X149211512Y-62999073D01*
X149186742Y-63004000D01*
X149009258Y-63004000D01*
X148984488Y-62999073D01*
X148835188Y-62969376D01*
X148671216Y-62901456D01*
X148523646Y-62802853D01*
X148398147Y-62677354D01*
X148299544Y-62529784D01*
X148231624Y-62365812D01*
X148197000Y-62191741D01*
X148197000Y-62014259D01*
X148231624Y-61840188D01*
X148299544Y-61676216D01*
X148398147Y-61528646D01*
X148523646Y-61403147D01*
X148671216Y-61304544D01*
X148835188Y-61236624D01*
X148984488Y-61206927D01*
X149009258Y-61202000D01*
X149186742Y-61202000D01*
X149211512Y-61206927D01*
G37*
G36*
X115378091Y-61567585D02*
G01*
X115412069Y-61577893D01*
X115443390Y-61594634D01*
X115470839Y-61617161D01*
X115493366Y-61644610D01*
X115510107Y-61675931D01*
X115520415Y-61709909D01*
X115524500Y-61751390D01*
X115524500Y-62352610D01*
X115520415Y-62394091D01*
X115510107Y-62428069D01*
X115493366Y-62459390D01*
X115470839Y-62486839D01*
X115443390Y-62509366D01*
X115412069Y-62526107D01*
X115378091Y-62536415D01*
X115336610Y-62540500D01*
X114660390Y-62540500D01*
X114618909Y-62536415D01*
X114584931Y-62526107D01*
X114553610Y-62509366D01*
X114526161Y-62486839D01*
X114503634Y-62459390D01*
X114486893Y-62428069D01*
X114476585Y-62394091D01*
X114472500Y-62352610D01*
X114472500Y-61751390D01*
X114476585Y-61709909D01*
X114486893Y-61675931D01*
X114503634Y-61644610D01*
X114526161Y-61617161D01*
X114553610Y-61594634D01*
X114584931Y-61577893D01*
X114618909Y-61567585D01*
X114660390Y-61563500D01*
X115336610Y-61563500D01*
X115378091Y-61567585D01*
G37*
G36*
X113447500Y-62128000D02*
G01*
X112345500Y-62128000D01*
X112345500Y-61326000D01*
X113447500Y-61326000D01*
X113447500Y-62128000D01*
G37*
G36*
X137654512Y-58666927D02*
G01*
X137803812Y-58696624D01*
X137967784Y-58764544D01*
X138115354Y-58863147D01*
X138240853Y-58988646D01*
X138339456Y-59136216D01*
X138407376Y-59300188D01*
X138442000Y-59474259D01*
X138442000Y-59651741D01*
X138407376Y-59825812D01*
X138339456Y-59989784D01*
X138240853Y-60137354D01*
X138115354Y-60262853D01*
X137967784Y-60361456D01*
X137803812Y-60429376D01*
X137654512Y-60459073D01*
X137629742Y-60464000D01*
X137452258Y-60464000D01*
X137427488Y-60459073D01*
X137278188Y-60429376D01*
X137114216Y-60361456D01*
X136966646Y-60262853D01*
X136841147Y-60137354D01*
X136742544Y-59989784D01*
X136674624Y-59825812D01*
X136640000Y-59651741D01*
X136640000Y-59474259D01*
X136674624Y-59300188D01*
X136742544Y-59136216D01*
X136841147Y-58988646D01*
X136966646Y-58863147D01*
X137114216Y-58764544D01*
X137278188Y-58696624D01*
X137427488Y-58666927D01*
X137452258Y-58662000D01*
X137629742Y-58662000D01*
X137654512Y-58666927D01*
G37*
G36*
X152894512Y-58666927D02*
G01*
X153043812Y-58696624D01*
X153207784Y-58764544D01*
X153355354Y-58863147D01*
X153480853Y-58988646D01*
X153579456Y-59136216D01*
X153647376Y-59300188D01*
X153682000Y-59474259D01*
X153682000Y-59651741D01*
X153647376Y-59825812D01*
X153579456Y-59989784D01*
X153480853Y-60137354D01*
X153355354Y-60262853D01*
X153207784Y-60361456D01*
X153043812Y-60429376D01*
X152894512Y-60459073D01*
X152869742Y-60464000D01*
X152692258Y-60464000D01*
X152667488Y-60459073D01*
X152518188Y-60429376D01*
X152354216Y-60361456D01*
X152206646Y-60262853D01*
X152081147Y-60137354D01*
X151982544Y-59989784D01*
X151914624Y-59825812D01*
X151880000Y-59651741D01*
X151880000Y-59474259D01*
X151914624Y-59300188D01*
X151982544Y-59136216D01*
X152081147Y-58988646D01*
X152206646Y-58863147D01*
X152354216Y-58764544D01*
X152518188Y-58696624D01*
X152667488Y-58666927D01*
X152692258Y-58662000D01*
X152869742Y-58662000D01*
X152894512Y-58666927D01*
G37*
G36*
X140194512Y-58666927D02*
G01*
X140343812Y-58696624D01*
X140507784Y-58764544D01*
X140655354Y-58863147D01*
X140780853Y-58988646D01*
X140879456Y-59136216D01*
X140947376Y-59300188D01*
X140982000Y-59474259D01*
X140982000Y-59651741D01*
X140947376Y-59825812D01*
X140879456Y-59989784D01*
X140780853Y-60137354D01*
X140655354Y-60262853D01*
X140507784Y-60361456D01*
X140343812Y-60429376D01*
X140194512Y-60459073D01*
X140169742Y-60464000D01*
X139992258Y-60464000D01*
X139967488Y-60459073D01*
X139818188Y-60429376D01*
X139654216Y-60361456D01*
X139506646Y-60262853D01*
X139381147Y-60137354D01*
X139282544Y-59989784D01*
X139214624Y-59825812D01*
X139180000Y-59651741D01*
X139180000Y-59474259D01*
X139214624Y-59300188D01*
X139282544Y-59136216D01*
X139381147Y-58988646D01*
X139506646Y-58863147D01*
X139654216Y-58764544D01*
X139818188Y-58696624D01*
X139967488Y-58666927D01*
X139992258Y-58662000D01*
X140169742Y-58662000D01*
X140194512Y-58666927D01*
G37*
G36*
X142734512Y-58666927D02*
G01*
X142883812Y-58696624D01*
X143047784Y-58764544D01*
X143195354Y-58863147D01*
X143320853Y-58988646D01*
X143419456Y-59136216D01*
X143487376Y-59300188D01*
X143522000Y-59474259D01*
X143522000Y-59651741D01*
X143487376Y-59825812D01*
X143419456Y-59989784D01*
X143320853Y-60137354D01*
X143195354Y-60262853D01*
X143047784Y-60361456D01*
X142883812Y-60429376D01*
X142734512Y-60459073D01*
X142709742Y-60464000D01*
X142532258Y-60464000D01*
X142507488Y-60459073D01*
X142358188Y-60429376D01*
X142194216Y-60361456D01*
X142046646Y-60262853D01*
X141921147Y-60137354D01*
X141822544Y-59989784D01*
X141754624Y-59825812D01*
X141720000Y-59651741D01*
X141720000Y-59474259D01*
X141754624Y-59300188D01*
X141822544Y-59136216D01*
X141921147Y-58988646D01*
X142046646Y-58863147D01*
X142194216Y-58764544D01*
X142358188Y-58696624D01*
X142507488Y-58666927D01*
X142532258Y-58662000D01*
X142709742Y-58662000D01*
X142734512Y-58666927D01*
G37*
G36*
X157974512Y-58666927D02*
G01*
X158123812Y-58696624D01*
X158287784Y-58764544D01*
X158435354Y-58863147D01*
X158560853Y-58988646D01*
X158659456Y-59136216D01*
X158727376Y-59300188D01*
X158762000Y-59474259D01*
X158762000Y-59651741D01*
X158727376Y-59825812D01*
X158659456Y-59989784D01*
X158560853Y-60137354D01*
X158435354Y-60262853D01*
X158287784Y-60361456D01*
X158123812Y-60429376D01*
X157974512Y-60459073D01*
X157949742Y-60464000D01*
X157772258Y-60464000D01*
X157747488Y-60459073D01*
X157598188Y-60429376D01*
X157434216Y-60361456D01*
X157286646Y-60262853D01*
X157161147Y-60137354D01*
X157062544Y-59989784D01*
X156994624Y-59825812D01*
X156960000Y-59651741D01*
X156960000Y-59474259D01*
X156994624Y-59300188D01*
X157062544Y-59136216D01*
X157161147Y-58988646D01*
X157286646Y-58863147D01*
X157434216Y-58764544D01*
X157598188Y-58696624D01*
X157747488Y-58666927D01*
X157772258Y-58662000D01*
X157949742Y-58662000D01*
X157974512Y-58666927D01*
G37*
G36*
X145274512Y-58666927D02*
G01*
X145423812Y-58696624D01*
X145587784Y-58764544D01*
X145735354Y-58863147D01*
X145860853Y-58988646D01*
X145959456Y-59136216D01*
X146027376Y-59300188D01*
X146062000Y-59474259D01*
X146062000Y-59651741D01*
X146027376Y-59825812D01*
X145959456Y-59989784D01*
X145860853Y-60137354D01*
X145735354Y-60262853D01*
X145587784Y-60361456D01*
X145423812Y-60429376D01*
X145274512Y-60459073D01*
X145249742Y-60464000D01*
X145072258Y-60464000D01*
X145047488Y-60459073D01*
X144898188Y-60429376D01*
X144734216Y-60361456D01*
X144586646Y-60262853D01*
X144461147Y-60137354D01*
X144362544Y-59989784D01*
X144294624Y-59825812D01*
X144260000Y-59651741D01*
X144260000Y-59474259D01*
X144294624Y-59300188D01*
X144362544Y-59136216D01*
X144461147Y-58988646D01*
X144586646Y-58863147D01*
X144734216Y-58764544D01*
X144898188Y-58696624D01*
X145047488Y-58666927D01*
X145072258Y-58662000D01*
X145249742Y-58662000D01*
X145274512Y-58666927D01*
G37*
G36*
X155434512Y-58666927D02*
G01*
X155583812Y-58696624D01*
X155747784Y-58764544D01*
X155895354Y-58863147D01*
X156020853Y-58988646D01*
X156119456Y-59136216D01*
X156187376Y-59300188D01*
X156222000Y-59474259D01*
X156222000Y-59651741D01*
X156187376Y-59825812D01*
X156119456Y-59989784D01*
X156020853Y-60137354D01*
X155895354Y-60262853D01*
X155747784Y-60361456D01*
X155583812Y-60429376D01*
X155434512Y-60459073D01*
X155409742Y-60464000D01*
X155232258Y-60464000D01*
X155207488Y-60459073D01*
X155058188Y-60429376D01*
X154894216Y-60361456D01*
X154746646Y-60262853D01*
X154621147Y-60137354D01*
X154522544Y-59989784D01*
X154454624Y-59825812D01*
X154420000Y-59651741D01*
X154420000Y-59474259D01*
X154454624Y-59300188D01*
X154522544Y-59136216D01*
X154621147Y-58988646D01*
X154746646Y-58863147D01*
X154894216Y-58764544D01*
X155058188Y-58696624D01*
X155207488Y-58666927D01*
X155232258Y-58662000D01*
X155409742Y-58662000D01*
X155434512Y-58666927D01*
G37*
G36*
X161302000Y-60464000D02*
G01*
X159500000Y-60464000D01*
X159500000Y-58662000D01*
X161302000Y-58662000D01*
X161302000Y-60464000D01*
G37*
G36*
X135902000Y-60464000D02*
G01*
X134100000Y-60464000D01*
X134100000Y-58662000D01*
X135902000Y-58662000D01*
X135902000Y-60464000D01*
G37*
G36*
X149999000Y-60464000D02*
G01*
X148197000Y-60464000D01*
X148197000Y-58662000D01*
X149999000Y-58662000D01*
X149999000Y-60464000D01*
G37*
M02*
